<mxfile host="Electron" modified="2023-07-06T13:57:55.516Z" agent="Mozilla/5.0 (Windows NT 10.0; Win64; x64) AppleWebKit/537.36 (KHTML, like Gecko) draw.io/21.5.0 Chrome/112.0.5615.204 Electron/24.5.1 Safari/537.36" etag="iIZFJ8gGIS2xkPAGzFHF" version="21.5.0" type="device">
  <diagram name="第 1 页" id="97Gn5uIAf0PWR7daDz5M">
    <mxGraphModel dx="6136" dy="3344" grid="0" gridSize="10" guides="1" tooltips="1" connect="1" arrows="1" fold="1" page="0" pageScale="1" pageWidth="827" pageHeight="1169" math="0" shadow="0">
      <root>
        <mxCell id="0" />
        <mxCell id="1" parent="0" />
        <mxCell id="XG_M_sis9n1elPFnFuTc-1" value="1" style="rounded=0;whiteSpace=wrap;html=1;fontSize=22;" parent="1" vertex="1">
          <mxGeometry x="-82" y="213" width="98" height="65" as="geometry" />
        </mxCell>
        <mxCell id="XG_M_sis9n1elPFnFuTc-2" value="3" style="rounded=0;whiteSpace=wrap;html=1;fontSize=22;" parent="1" vertex="1">
          <mxGeometry x="16" y="213" width="98" height="65" as="geometry" />
        </mxCell>
        <mxCell id="XG_M_sis9n1elPFnFuTc-3" value="5" style="rounded=0;whiteSpace=wrap;html=1;fontSize=22;" parent="1" vertex="1">
          <mxGeometry x="114" y="213" width="98" height="65" as="geometry" />
        </mxCell>
        <mxCell id="XG_M_sis9n1elPFnFuTc-4" value="6" style="rounded=0;whiteSpace=wrap;html=1;fontSize=22;" parent="1" vertex="1">
          <mxGeometry x="212" y="213" width="98" height="65" as="geometry" />
        </mxCell>
        <mxCell id="XG_M_sis9n1elPFnFuTc-7" value="1" style="rounded=0;whiteSpace=wrap;html=1;fontSize=22;" parent="1" vertex="1">
          <mxGeometry x="-82" y="419" width="98" height="65" as="geometry" />
        </mxCell>
        <mxCell id="XG_M_sis9n1elPFnFuTc-8" value="3" style="rounded=0;whiteSpace=wrap;html=1;fontSize=22;" parent="1" vertex="1">
          <mxGeometry x="16" y="419" width="98" height="65" as="geometry" />
        </mxCell>
        <mxCell id="XG_M_sis9n1elPFnFuTc-9" value="5" style="rounded=0;whiteSpace=wrap;html=1;fontSize=22;" parent="1" vertex="1">
          <mxGeometry x="114" y="419" width="98" height="65" as="geometry" />
        </mxCell>
        <mxCell id="XG_M_sis9n1elPFnFuTc-10" value="6" style="rounded=0;whiteSpace=wrap;html=1;fontSize=22;" parent="1" vertex="1">
          <mxGeometry x="212" y="419" width="98" height="65" as="geometry" />
        </mxCell>
        <mxCell id="XG_M_sis9n1elPFnFuTc-11" value="1" style="rounded=0;whiteSpace=wrap;html=1;fontSize=22;" parent="1" vertex="1">
          <mxGeometry x="-82" y="594" width="98" height="65" as="geometry" />
        </mxCell>
        <mxCell id="XG_M_sis9n1elPFnFuTc-12" value="3" style="rounded=0;whiteSpace=wrap;html=1;fontSize=22;" parent="1" vertex="1">
          <mxGeometry x="16" y="594" width="98" height="65" as="geometry" />
        </mxCell>
        <mxCell id="XG_M_sis9n1elPFnFuTc-13" value="5" style="rounded=0;whiteSpace=wrap;html=1;fontSize=22;" parent="1" vertex="1">
          <mxGeometry x="114" y="594" width="98" height="65" as="geometry" />
        </mxCell>
        <mxCell id="XG_M_sis9n1elPFnFuTc-14" value="6" style="rounded=0;whiteSpace=wrap;html=1;fontSize=22;" parent="1" vertex="1">
          <mxGeometry x="212" y="594" width="98" height="65" as="geometry" />
        </mxCell>
        <mxCell id="XG_M_sis9n1elPFnFuTc-15" value="插入排序" style="text;html=1;align=center;verticalAlign=middle;resizable=0;points=[];autosize=1;fontSize=18;" parent="1" vertex="1">
          <mxGeometry x="-352" y="222" width="90" height="34" as="geometry" />
        </mxCell>
        <mxCell id="XG_M_sis9n1elPFnFuTc-18" value="" style="endArrow=classic;html=1;rounded=0;fontSize=22;" parent="1" edge="1">
          <mxGeometry width="50" height="50" relative="1" as="geometry">
            <mxPoint x="-77" y="730" as="sourcePoint" />
            <mxPoint x="-77" y="685" as="targetPoint" />
          </mxGeometry>
        </mxCell>
        <mxCell id="XG_M_sis9n1elPFnFuTc-19" value="end" style="text;html=1;align=center;verticalAlign=middle;resizable=0;points=[];autosize=1;strokeColor=none;fillColor=none;fontSize=22;" parent="1" vertex="1">
          <mxGeometry x="-82" y="691" width="55" height="38" as="geometry" />
        </mxCell>
        <mxCell id="XG_M_sis9n1elPFnFuTc-25" value="7" style="rounded=0;whiteSpace=wrap;html=1;fontSize=22;fillColor=#f8cecc;strokeColor=#b85450;" parent="1" vertex="1">
          <mxGeometry x="310" y="213" width="98" height="65" as="geometry" />
        </mxCell>
        <mxCell id="XG_M_sis9n1elPFnFuTc-26" value="2" style="rounded=0;whiteSpace=wrap;html=1;fontSize=22;fillColor=#f8cecc;strokeColor=#b85450;" parent="1" vertex="1">
          <mxGeometry x="310" y="419" width="98" height="65" as="geometry" />
        </mxCell>
        <mxCell id="XG_M_sis9n1elPFnFuTc-27" value="0" style="rounded=0;whiteSpace=wrap;html=1;fontSize=22;fillColor=#f8cecc;strokeColor=#b85450;" parent="1" vertex="1">
          <mxGeometry x="310" y="594" width="98" height="65" as="geometry" />
        </mxCell>
        <mxCell id="XG_M_sis9n1elPFnFuTc-28" value="end" style="text;html=1;align=center;verticalAlign=middle;resizable=0;points=[];autosize=1;strokeColor=none;fillColor=none;fontSize=22;" parent="1" vertex="1">
          <mxGeometry x="218" y="326" width="55" height="38" as="geometry" />
        </mxCell>
        <mxCell id="XG_M_sis9n1elPFnFuTc-30" value="" style="endArrow=classic;html=1;rounded=0;fontSize=22;" parent="1" edge="1">
          <mxGeometry width="50" height="50" relative="1" as="geometry">
            <mxPoint x="214" y="373" as="sourcePoint" />
            <mxPoint x="214" y="308" as="targetPoint" />
          </mxGeometry>
        </mxCell>
        <mxCell id="zz_xhbmCtKKJB1F-XMsb-1" value="最坏：O(N^2)&lt;br style=&quot;font-size: 18px;&quot;&gt;最好：O(N)" style="text;html=1;align=center;verticalAlign=middle;resizable=0;points=[];autosize=1;fontSize=18;" parent="1" vertex="1">
          <mxGeometry x="-363" y="288" width="129" height="55" as="geometry" />
        </mxCell>
        <mxCell id="zz_xhbmCtKKJB1F-XMsb-2" value="希尔排序&lt;br&gt;&lt;br&gt;1、预排序（分组排序）&lt;br&gt;&lt;br&gt;2、插入排序" style="text;html=1;align=center;verticalAlign=middle;resizable=0;points=[];autosize=1;strokeColor=none;fillColor=none;fontSize=18;" parent="1" vertex="1">
          <mxGeometry x="-399" y="837" width="208" height="120" as="geometry" />
        </mxCell>
        <mxCell id="zz_xhbmCtKKJB1F-XMsb-3" value="9" style="rounded=0;whiteSpace=wrap;html=1;fontSize=22;" parent="1" vertex="1">
          <mxGeometry x="-82" y="858" width="98" height="65" as="geometry" />
        </mxCell>
        <mxCell id="zz_xhbmCtKKJB1F-XMsb-4" value="8" style="rounded=0;whiteSpace=wrap;html=1;fontSize=22;" parent="1" vertex="1">
          <mxGeometry x="16" y="858" width="98" height="65" as="geometry" />
        </mxCell>
        <mxCell id="zz_xhbmCtKKJB1F-XMsb-5" value="7" style="rounded=0;whiteSpace=wrap;html=1;fontSize=22;" parent="1" vertex="1">
          <mxGeometry x="114" y="858" width="98" height="65" as="geometry" />
        </mxCell>
        <mxCell id="zz_xhbmCtKKJB1F-XMsb-6" value="6" style="rounded=0;whiteSpace=wrap;html=1;fontSize=22;" parent="1" vertex="1">
          <mxGeometry x="212" y="858" width="98" height="65" as="geometry" />
        </mxCell>
        <mxCell id="zz_xhbmCtKKJB1F-XMsb-7" value="5" style="rounded=0;whiteSpace=wrap;html=1;fontSize=22;" parent="1" vertex="1">
          <mxGeometry x="310" y="858" width="98" height="65" as="geometry" />
        </mxCell>
        <mxCell id="zz_xhbmCtKKJB1F-XMsb-8" value="4" style="rounded=0;whiteSpace=wrap;html=1;fontSize=22;" parent="1" vertex="1">
          <mxGeometry x="408" y="858" width="98" height="65" as="geometry" />
        </mxCell>
        <mxCell id="zz_xhbmCtKKJB1F-XMsb-9" value="3" style="rounded=0;whiteSpace=wrap;html=1;fontSize=22;" parent="1" vertex="1">
          <mxGeometry x="506" y="858" width="98" height="65" as="geometry" />
        </mxCell>
        <mxCell id="zz_xhbmCtKKJB1F-XMsb-10" value="2" style="rounded=0;whiteSpace=wrap;html=1;fontSize=22;" parent="1" vertex="1">
          <mxGeometry x="604" y="858" width="98" height="65" as="geometry" />
        </mxCell>
        <mxCell id="zz_xhbmCtKKJB1F-XMsb-11" value="1" style="rounded=0;whiteSpace=wrap;html=1;fontSize=22;" parent="1" vertex="1">
          <mxGeometry x="702" y="858" width="98" height="65" as="geometry" />
        </mxCell>
        <mxCell id="zz_xhbmCtKKJB1F-XMsb-12" value="9" style="rounded=0;whiteSpace=wrap;html=1;fontSize=22;fillColor=#ffe6cc;strokeColor=#d79b00;" parent="1" vertex="1">
          <mxGeometry x="-82" y="1035" width="98" height="65" as="geometry" />
        </mxCell>
        <mxCell id="zz_xhbmCtKKJB1F-XMsb-13" value="8" style="rounded=0;whiteSpace=wrap;html=1;fontSize=22;fillColor=#d5e8d4;strokeColor=#82b366;" parent="1" vertex="1">
          <mxGeometry x="16" y="1035" width="98" height="65" as="geometry" />
        </mxCell>
        <mxCell id="zz_xhbmCtKKJB1F-XMsb-14" value="7" style="rounded=0;whiteSpace=wrap;html=1;fontSize=22;fillColor=#e1d5e7;strokeColor=#9673a6;" parent="1" vertex="1">
          <mxGeometry x="114" y="1035" width="98" height="64" as="geometry" />
        </mxCell>
        <mxCell id="zz_xhbmCtKKJB1F-XMsb-15" value="6" style="rounded=0;whiteSpace=wrap;html=1;fontSize=22;fillColor=#ffe6cc;strokeColor=#d79b00;" parent="1" vertex="1">
          <mxGeometry x="212" y="1035" width="98" height="65" as="geometry" />
        </mxCell>
        <mxCell id="zz_xhbmCtKKJB1F-XMsb-16" value="5" style="rounded=0;whiteSpace=wrap;html=1;fontSize=22;fillColor=#d5e8d4;strokeColor=#82b366;" parent="1" vertex="1">
          <mxGeometry x="310" y="1035" width="98" height="65" as="geometry" />
        </mxCell>
        <mxCell id="zz_xhbmCtKKJB1F-XMsb-17" value="4" style="rounded=0;whiteSpace=wrap;html=1;fontSize=22;fillColor=#e1d5e7;strokeColor=#9673a6;" parent="1" vertex="1">
          <mxGeometry x="408" y="1035" width="98" height="65" as="geometry" />
        </mxCell>
        <mxCell id="zz_xhbmCtKKJB1F-XMsb-18" value="3" style="rounded=0;whiteSpace=wrap;html=1;fontSize=22;fillColor=#ffe6cc;strokeColor=#d79b00;" parent="1" vertex="1">
          <mxGeometry x="506" y="1035" width="98" height="65" as="geometry" />
        </mxCell>
        <mxCell id="zz_xhbmCtKKJB1F-XMsb-19" value="2" style="rounded=0;whiteSpace=wrap;html=1;fontSize=22;fillColor=#d5e8d4;strokeColor=#82b366;" parent="1" vertex="1">
          <mxGeometry x="604" y="1035" width="98" height="65" as="geometry" />
        </mxCell>
        <mxCell id="zz_xhbmCtKKJB1F-XMsb-20" value="1" style="rounded=0;whiteSpace=wrap;html=1;fontSize=22;fillColor=#e1d5e7;strokeColor=#9673a6;" parent="1" vertex="1">
          <mxGeometry x="702" y="1035" width="98" height="65" as="geometry" />
        </mxCell>
        <mxCell id="zz_xhbmCtKKJB1F-XMsb-21" value="9" style="rounded=0;whiteSpace=wrap;html=1;fontSize=22;fillColor=#ffe6cc;strokeColor=#d79b00;" parent="1" vertex="1">
          <mxGeometry x="-82" y="1035" width="98" height="65" as="geometry" />
        </mxCell>
        <mxCell id="zz_xhbmCtKKJB1F-XMsb-22" value="9" style="rounded=0;whiteSpace=wrap;html=1;fontSize=22;fillColor=#ffe6cc;strokeColor=#d79b00;" parent="1" vertex="1">
          <mxGeometry x="-82" y="1250" width="98" height="65" as="geometry" />
        </mxCell>
        <mxCell id="zz_xhbmCtKKJB1F-XMsb-23" value="2" style="rounded=0;whiteSpace=wrap;html=1;fontSize=22;fillColor=#d5e8d4;strokeColor=#82b366;" parent="1" vertex="1">
          <mxGeometry x="16" y="1250" width="98" height="65" as="geometry" />
        </mxCell>
        <mxCell id="zz_xhbmCtKKJB1F-XMsb-24" value="1" style="rounded=0;whiteSpace=wrap;html=1;fontSize=22;fillColor=#e1d5e7;strokeColor=#9673a6;" parent="1" vertex="1">
          <mxGeometry x="114" y="1250" width="98" height="65" as="geometry" />
        </mxCell>
        <mxCell id="zz_xhbmCtKKJB1F-XMsb-25" value="6" style="rounded=0;whiteSpace=wrap;html=1;fontSize=22;fillColor=#ffe6cc;strokeColor=#d79b00;" parent="1" vertex="1">
          <mxGeometry x="212" y="1250" width="98" height="65" as="geometry" />
        </mxCell>
        <mxCell id="zz_xhbmCtKKJB1F-XMsb-26" value="5" style="rounded=0;whiteSpace=wrap;html=1;fontSize=22;fillColor=#d5e8d4;strokeColor=#82b366;" parent="1" vertex="1">
          <mxGeometry x="310" y="1250" width="98" height="65" as="geometry" />
        </mxCell>
        <mxCell id="zz_xhbmCtKKJB1F-XMsb-27" value="4" style="rounded=0;whiteSpace=wrap;html=1;fontSize=22;fillColor=#e1d5e7;strokeColor=#9673a6;" parent="1" vertex="1">
          <mxGeometry x="408" y="1250" width="98" height="65" as="geometry" />
        </mxCell>
        <mxCell id="zz_xhbmCtKKJB1F-XMsb-28" value="9" style="rounded=0;whiteSpace=wrap;html=1;fontSize=22;fillColor=#ffe6cc;strokeColor=#d79b00;" parent="1" vertex="1">
          <mxGeometry x="506" y="1250" width="98" height="65" as="geometry" />
        </mxCell>
        <mxCell id="zz_xhbmCtKKJB1F-XMsb-29" value="8" style="rounded=0;whiteSpace=wrap;html=1;fontSize=22;fillColor=#d5e8d4;strokeColor=#82b366;" parent="1" vertex="1">
          <mxGeometry x="604" y="1250" width="98" height="65" as="geometry" />
        </mxCell>
        <mxCell id="zz_xhbmCtKKJB1F-XMsb-30" value="7" style="rounded=0;whiteSpace=wrap;html=1;fontSize=22;fillColor=#e1d5e7;strokeColor=#9673a6;" parent="1" vertex="1">
          <mxGeometry x="702" y="1250" width="98" height="65" as="geometry" />
        </mxCell>
        <mxCell id="zz_xhbmCtKKJB1F-XMsb-31" value="3" style="rounded=0;whiteSpace=wrap;html=1;fontSize=22;fillColor=#ffe6cc;strokeColor=#d79b00;" parent="1" vertex="1">
          <mxGeometry x="-82" y="1250" width="98" height="65" as="geometry" />
        </mxCell>
        <mxCell id="zz_xhbmCtKKJB1F-XMsb-32" value="" style="shape=image;verticalLabelPosition=bottom;labelBackgroundColor=default;verticalAlign=top;aspect=fixed;imageAspect=0;image=data:image/png,iVBORw0KGgoAAAANSUhEUgAAAokAAAFVCAYAAACDw3XoAAAgAElEQVR4nOydd5wdZb3/388z5bTt2dTNplcgJECooTfpXeRypYkIUlSuggKigCjiVaqAiPSqCAhIB4XQW0JJCKSy6ckm2/eUKc/398fM2WxIgASuPxHm/Xqd3bNzpjxTzsxnv1WJiPBJfPRTJetMFFEIChETzaIUKIXuNZsABgNKUIAGEAsBRIEQLasBBWCiN+VViBIUaj2bj7a19hjDeJsSz7r252qdKdGWo3l9lCgQHQ1Mr7v+MD4MOgTfFiwTrU8UaIFQQow2OLiUIDouIqSUFc8oqNAQWIIWK9qeNii9vpFJfDCsdUa8oQiggjU7H1q9jnN5h+LPjA7jtwqFBiE+M+ui1z2ICQkJCQkJCV8S7E/60BiD1nptUSYGMGsLJ2VFosnoHmEnip7lREUvQ4gqKxIRkEyk8QAdycZeqjBedflPFSKEPfP32jiI3WuiAF78XqOw1tW569nXNZsVlIRgFCgrEovKWmtGxRqtLBIJUa10tI8qRIUaR2wIo0Vt0VgGjC6LYwViYauyQBaEAKvndPzfqi8F0YZjvWnpj8zQowKFUAcoDBo7EokJCQkJCQkJX0nU+iyJsREPE4ZYlgV+r1l0rDR6FtOxtQ1EmUhkGSKBEb1BjEIpG8IQrFhl9QjIyHqmTCRIxASRRU2tz3LW26YVWwsFlNYYEyISiVqlJFJkAmgrVqjlDQom1mAqFrqRiAqjQRkrWlbF+2mvR0dLgEHwJSRlXEIFaIUOTbTfdgCEGCy0cTAq0pw2AWCBMQgeSmUwhIRBgLZSKB2i0Ki1ROLntCQKIGF8oKJxRuI2+q0kBF0Wgz023rV0amJJTEhISEhI+OoRicT1mNpWAi/PW87Yhn70T2mUCBaKUAmhUtjxYj1uViBDpEnyAgUF9RicQGMUhFqxQoEfu4ANUBkv46JIG/A1dACzF7XTp381ox16LIedQEC0HZvI+mYAI4IoRRXgxe/zRLZEV8BSkYu67EzusUzGvw1glCInQiqeXorn8lU0xo8yH+GDRR2M6J9jhGVjEQBCa8nhqY5utuuXolH7WCYNohAVINoHL83bSpF1YLgY3CDgLd/m6VdncdB2YxmTKYu09YhE+RwiEUNRKeZ2eCxPWeyYtjCAjQIRimXrb7xdG3DilxYDH2dRTERiQkJCQkLClxa7LPR6VJMCDCwrwi2PPcsR++9F8+LVuEqTEkVJ2wwdMYDZs+fhF4qI0nQFijHDGjlifA0K+Mc7S1jQ5nPkjsNojB3ML765iAeWrSalDSIGUUIKxS7jhrLdyL64ACJ4vuKRJ/6BHr4pZ+0yhsXLW3lr1jyWp3MEykYLOBJiCYiTwvc9Nh09hN0HZnizqYOX352Nn3UIVZa0lNhnl81YvbKDd+avQEyIrQ1ibESFkcdcKbYe1Z9N+tXR2u7xbnM785a2QMph5PihbFFp0SeOh4wsk/DqUsP9T7zAaYftxJDqKiwEUTBt3hIuf+YfXHHiYfStsLFROCo+qKIwAvc/+TZ2yuaYXcczQiuWFRTPzFjIDpOGMyaT6nUieiGfUY31KGFFh63423Mz8Pq57LjdBAKBF2Yu5YNODxV0ECoVediNjdYWmw6oY8rIetKsG4O6hkQlJiQkJCQkfFnRUtYAAhhBghIEMHtFkY7aEbRlctw0fQYdg2pJDa3h1RUWs5WQGj2YqrFDyIwdykw1iKmrchRF4aLJNQzi0VnCVdObERtKFryzfAmv6wqGTBjC6AnDGL3pKGbISN7rcmkDQh1ZrmodOOmIr/HSasXfXnufQnWWjopBzO9bz6I+NSzqU0NTnzqWV/dhZlU1j7WneatQQiuY3mHzXHc1ufFDqBk3kFn5gPcC4Z3Vbdy91GPpkD50NvZhdUMf2hr60DIoel+ZCuny4LbHZ3DpnC5equzP9atcjnxkDtfNXI4fmshd7UFXd8BfPuhETdiV6poqikCooGCEZxcX6b/pRDrdHAvaU8wudrOi26PoW+gwjS2KfXaZyKJChjOfnUeXp1jqK5brfgTKiU9J2c4axyoKECeQrPWCdaetbx4AT/HSSpifF3bcdBxOWKCI4aWlndzu1tDaMICWhv60NAygtaEP9xUG8HSLoaX8H4Qy63nJx2vHhISEhISEhP94bB1bDntiBENDtwtNCxayecMgJoYWfSyb3Qb3YVsXWt5bxJh8ia1GVNE3FjSl9hKLO9pxrSxaNF+rdxm+s82l81ZQ9GppVZrlVi1bVwWcMMAmhwW6khVNq1F+AaEaB+g0wtMfdjBgRDV3HDCE5gCGV6aYsP0gDOATOT5dBNsLWW1b/GnxSjJ+jg7ANQFjq3KcOKiSVcamRWucAASbCbqD7w4ZxTDpArIgbpSUYkUBg76BI3YcwX811DA4gLbNa7j7yXe4cI7HcSPz1GQqeWX+Kk58fiWWEmzH4bAZYJPn3F1HsfnAHE91KEyX4ZJ7Z6MFmowhXWrh7IO3Z+9+ij5imOQoztppAI/OXky3selEIFNA65CVoYWnov10BWo8hWWD7axtTFTEJuBPQkWhiMqCxW7IIy99wGbD+rJjFr73QhfD6z26UxV8rY/i/Ia+0XHQ4BmhtLydmmIXin5AELu6E6thQkJCQkLCV4nI3aygXK9GW2kW+iHTV3UzfPsx2HTTZedYZsEHQJNrkaq08UNFLlR4StFkQgLbpoCLRuOJRZ9Nh3LumJCiY/FOCzy7sJvv7dUfR2eIkl3AVkJT3mZmATpLUJsOeer1GezROIUtsilea4GnpjUTagclAlIES5Ouqub4wTYFFSVbi47SOkKdYbnn8UiLQ4sIC31hCwOagHxFJe3aZYWpwCISPaKjmEjbAsuGIQOr8QwgIWmBbcaNxHmtDS8MotIxtk9jlcX3dxlDlQ0Shlz96gJW4PHoEsUoy+P7h05CI2gUC7o9LntkFVYppBTY/PalpSzxNT6KkBwXvNLEB8UUzaUsf5i2ikqxMFpAQ0oUaS/k0K0GsU2t9JTziSvofLpmUyouBWTx9PwWOrTFpC2H8tzydt5e8iH7TZhI++Jm8qqCFh0JUxFwgW47S1aKkT1TonUkJCQkJCQkfLVYE5OIxLUILT7IhyzqytPfAi0h3b5w98OzqA885nfncYdN4M9PPEE6gIKuoN2z2HLMMErGYeqb81jlC4GT4vBNani/VMFdj02nz7DRbDuiEmXi2DcFo4bYvPDPucya18Tu/ao4fI+ReKQoxMkq0z7sZvr7ixk/aRJOINjYLG/v4sOFyzh62LAoM1oUoqJiLbZl0bRoKdc8/D5Luzwm960iByhCPli6gt/8PWBgsRvCECGLozRTthzBbqNqUSKkrCju0Ct5lJwU85oW0JjtR122hlAEg1CpfbasV/RxwTY2f9IBHxZCZs5YwInbDmRiBVh4OK4ipwJcDFa8PysCh8WBxrJsMoFPc0pYsrqTbGUdHSZFZ2j3ZFWHvs/cuU1ss3kDIaan4qOgUCpK4vk0oShKsJTmlZlddHpFbn1uAas/nM24zUYxqs7lDb/I1HdbGTBnDiWVIVQulV6BN1fk2HNMdeJNTkhISEhI+ApjwxpvswChH/D3V1dQCn1sA3mtyZXgG7uMZrTjs6q5A93X5cDDdscxiryyWdqcx5Q8EKGzwmZ2t8tT09rZakgti7TPiMZqdpxSSabYwnKrAksUGWOYMqiafkdsQdH3aUxZVBiFWwrJhGAcSNshkwan+MYminGiECp5ZXmWq1/vQKsShhShFWBUlOm8w8ASYw9u5MMwxV+ffpNz992KzbOapgBMxUDGj+vPwLCENoZ2O8UbTV08UYA9EYyBggjPz23j7XwHczpKLOgIOXtyimqlKPqCXaymwl9OlUCtREJNaY8a8fn6NoPBt1icb2ZwVRZHAgJx8VSAdi0ylvDbXfrQJQobjRsoVljCOQ+/Rb9hQ/nhljXUGkGJRkTx7KoSP5zzBnlCFoY2zava8X1/zZn7aAHxjxCVAlJUpg3HbVvFnM4Kpq40zB0xiZsn9Ync9pZPTaWLW1GPrxWBAl8UNVYOsQsoBFSGjy+Ck5CQkJCQkPBlxSYuKWgZTWjgtQ8XMbNrNWMHD6SxLcCu1RRymu60omA7DBpcz30zLV6bNY+SG1BV7KJILRPHDGMf4Lix1bzqZ3nz5dl0qEa2q0rxzPJVnHFrgaxfwNYGTYijDR16II7p4oyvT+JrGZ+lJYPn+HhW5ODs8IX3OwOsQsCQbiFA8WGLz+oANOmenTBxCZ532wJ0XS2Ny5fQYhxUhaILoVPDZHslx4wcy1AvDypN6Dj8ZfUyXnWzKBS2hq6ukIfeXsgHRWE10GfUaDrr0wQ6RFxF4HQy301zZyGkOoBcACbsx3jXZefGGm566B1u1xYXHTyGiSqDljx2EOAqhasFW3yyVgqNYGufhe0Bzata2WqbLVjUGVKyoMERXBT9KWKCEtW2RVtTG8c/PJW2QhWBpSilSuTimuTqY8SiiFAoFNl+++14Ypc6KvppXnpxKlccuBV9U5pmEdCaHRtdvt9QEwU9qqjLTKdXIFfsJmrBEmL0+t3NSanthISEhISELy82scBCCUoJtRnNN7bZhGXzFiAYRMAr+bzw8kIWqRJDKdIwalN0aTWHTZnI+LTNnTNX0uq3YauaSGigIreyGGodOGSHicx+6DV23X0HtunjYCMoDA8v6ebtN5ZT50aD6W2v0kDW0RSb21gybSl2WwvdlsuyvMbRfTFiUEqXm8chxvDhkiWkZBjDbJeCH3Dn0zOY0liPUjYFKikom5V2GqUdAqVY4VTgEdUMFFOkIiecfsBEui1oLcJLb87mxgd8Ju0zhEHVOXQgFPIFZr7WRAUGNzA0txXx1GAsB47bYyz/eHAWj7++mJptBlEyHiiDKpfQiREBjMWrLV1kUg4TBsHMF2ZwzUqPU/ebzDjXUAwCHBMVihzUUMM1xx6AHyqMVgQanA3wBYuBigpYWPS59MXFpEeOJHAqeXJFNyPqs4CiQ7s0aweDwiiFLdClXexytrXS63U7J2ksCQkJCQkJX25siDu2xX3mRg/ujxab+xYQJy0ospks++wynAkWDAHeB16rsanLFZhcU8HttFE7aAyVWgNxhxMUrmWRVbDV4Ax7jhzE4iVz2Gn4OCqUgBNyzxsd7L7VeEanWcejqQAVemwxqi8HTxnCOIbQDkxbFnDz621YSsft8aI4wozShCjsXAbd3oF2HIZsshm5OoU1dxnvL1jFebe+Qo0pEXoeXVaOVX7I6D1qo02rEpbxGO6kMZZg25o99xjDA3fM45U5C9h/682xQqGuLs03dxtBvRMdt1mPLiSwQgyGUdWGbxy6Gffc8SgTtx3OcGkDonqMa1vdNITCc/MKTNhkHI0WTNhpIjc/s4zfP/4aPzpsW0qhj4MTxVqmYE8XUF7UIxuN/uSOiiAQBgGWbXPPe8t5ZMEShtQPZM7tr5OqaOVnh+5IaOCpaQVS0xYSWoJnAhwvy/Pthr3HVsUnQiWxiQkJCQkJCV9BIqXhgbEFdECKAkOkhipvjTQIjWH+onaUCmgKffoOrmezxgFMayqhuxWmbTn7DR2LDj3QGbRoLGPjBIZWHzIavrNdA8c8+T73LVjIlqOG8cTLC1noreIn47Zk5MeoEK01nV0llqwKyBQ76LA1rS0e6cJqbJNC62zUZg9FKGCFgi4ZVjjCQCfHLg2GUXjMDT1qBjSy57aN1JTaMdomsDN8sHg1I4g6sohkwcriAiGdKJ2m03dxydKV9vEBzwmoK3mMFqgBQoEqzyMbpEkJEJY4LJdm/P5b0R9YLi6hQEXFGjuiAN0a7pm5iuXLVvCTbScwFEhr4Zad+vK3qXnausA3FrkQckQvxMcoB4xCewqT+vSTq2wbA2zdv4bf7xDSv7aaYVUDqK9M4wNTtaK+Dhptl9CCUFzs0KXOSpFOuZ/hckpISEhISEj4shCJxLiEDKJBcnQr8DSkVGTeC8I8cxasomBKpOngmJpqdhoygIv/OZ8HllRx3pht2UwUWCbqfQyEyuIhVcHvHn2d4yeP5ODBGb6/ZQNnPWeoWtJN02qfR3cfwdCMRoISSq+xtZXbQodOjhfmLue1DsOgttX4KnKRDurfD1cZrF5OXBvwtJBPQUVeUzJCe2ixykpT0sLoylXsO3wMjbggAaIdzMiRPRbMdzsdVvjQ0BdyVNECPPqBoi1YzP79xtBPIBsEFByhPd5oqKDgaIoafKUxqoo+lNitcQAY6PIFEUETFQo3noebTvFmh3DVrA6+Pao/o2ssMCXQISMkw/d3GQJ+G38tQdrJkLbL5t5UZI3UQHrj3L2D6yvZob4SAVb68OQi2KYeMCHbDtB8Z/jgaMXaBqVZNj2PU1xJSH358khISEhISEj4imGXu8ZF/YENYEUlE5WArUEFZBzNIbuOZCJROcWMgrBoyEuRztYmMgNG0qUhbRS2go6i0BV6PP2P2ewyKMXAflUsKpZo1lWknGaWf7iMcZvU0KprWAbktEW1UhgREAuRSCiOcYucMGUMm20xguoQQkCrqO4zqoABAgWiFK1Ayaqko00xo9vQ4Xs8/PJchmYz5LEoGJeCZdMtilBpNBbKhDhYaAWdrV08/PTL5KvqqMhWsLKji/aix3FThjG0XxVgMFaGjlKex+d3kdEGCUNaCoJvOXhAoDWBcvGDEEtrlhQhNApbR3UTuzOVTG/V3Pb064yub+CgyYNwAw80dGIjlqAsjbGzzCu04GZt3NTnF2kvzFnGQ+8upr2jm+p0Cr+6HwO2GkRbqgrlKtrRBAZCDChFt2VjbIdWYKCJj/dHrL2fklydkJCQ8H/Hv+p+86+KpUnujwlfEtaIRAkBA9qKkyIEHA0YrLBIjQgDA0O3L7zZrLjl6eepHD+Bffoqrv37CyyavClHD+9L34xhZbtPUKE5YPeRHFhnM2tuC1c9/zpzU/3ZbZtRjBrk8veXVnLW3a+yyYA0B+4wkW0ru0hZFUhoRdY9A0eMqMAL0tjGRGPUGiOQL4W0lByaXUWbV6AuBc8u7ublmavodIV3sh71I4ZDbYaG4Tbdc1azqN3wz3lFGoIieUljmQK2+KTDbsYM7sv4IRWc/I0pzPAV73fCxCrD4IzDjimblAnoFihZFTR3dPHwAoWjNbYELO9WlGKRuLirg9ktPpW5HNmMwwMzCqQrqsi6ChWGvLqshR8/s4KKXD0/26k/ox0Q5dAReNz72gxsN011dV9Wrurkzpld7DxyALWxSPzovUw24ubWnkozYNI4duxj0ejaTF9S4s+vzOeD5a34zUsJxaHLCfAsgw4sXux2SXt5lrXkuXzXsVTZH3PPS0yMCQkJXzQ2RqB9EQKuE0H5r2Njzm9yHtZL5G5WYaQ6BFAaS4Qcgi6VsHKKOkJco8C1uGLaCqbOWcLeW4/jv8dVUQPcWtiUf7y5mIYKzRFDqjhsgM3eX9+KxR2r+cGfm3HFY9stJ3DB8CqG11RgKTh5nwbun5vh8XkdXPvw2yzdvJIjJuXokwmot6JEmtAYXMeJzFaxKlrQVuSm56bzhtOHoJCn2hjOSdsMydg429TRt3EIm9YYshYgIRaK92oc2htztC6eT8ETVqUV2giWCG5YQuqr2LEKJlXBJFFIXVSrUCvwlIcKLWytqdYFDq9r5czdR1HpKkLgysfbGO8XGUgF7zcXueClJYRag21Rr10u2XsCowXCTsPlU0tsWw/f3Hk426XA12CFoI1LR1cFD7UFWM5yjPE4cuIAzpg0kEo+nxZTCvZvrOVQQEIfrYpUZsCrN2w5oA9ojVU0iFIYou/JENuiwqomHfh4Op74RbiZJiQkJCQkJPx/Q4mIxDVZAAFl4wssXtWNk8ngSIElHUVGDKimRgcszzuEWlOTVqQj7zQFCekuGLKuTaVFLDYVRT9gaUFI2VCZCsna6ahTSLRhDIp8AIWiUJ0W0krTWiiSrXTJhhptrSnyXcYzhtXdXXSrDJYRMrZNH0djWwVE2RilscM1JWeUEnxjUbSiBBUdQmBHXVhA0Bi0CBoLR2s0BsK46bGyEOUjOIRAKYC8X6Q2lUZHpaZpLQopKyDraoLQ0BxETflQkeu9r2vQorBCxeyCUJc2VNqKlNGIRCLOCHQFQqf241FrcpZN1jJxLrMQVyvqYWMsiX5cLsjCYBFERbMJo1Z/oghUJsoUJ274QoBGUCK4uElTvoSEhH8vG2Pl2Zh5/1V9Av5V403YOBJL4ucmFonQ821RmjBWLyKgiMScIsDCB8lE8WgiYITQ0mjx4+4cDiJleSYYpdAmRDAgIcZK48cnQgGugCp/SVU0BKMF0YIONWo9IhEMIiGCgyU9XewI7UJUFkZF5WUUquekiyiUjkSZMWBZQCwSo503hOLEdRdDRExUfVFplAowOJi4+IxFiBIdD0pFU8WgddRIWlS0PQQ0FqI9QIPYeBpcMVE2NSoq37PmTIAqReWDBIxyCVSIpVQsRz+7SAzj0WuiftlRWfJIrhtRhETnVAHa0POZICicDd9QQkJCwr+C/3iRWG6AK73+Uv8WYdLTirf8nGfNMCR+sHxck4ZPWFvPX2WUxNXwiIxCstbuqk9acgM2K/G6FSoSKutf/lOfk71GkYjE9bKm2J5a49S0xERtWIwCHWKJjWgN2kEFRKnQSsAOsMRFtIoFRQjKRiQSVL5SpCghykasdE+Wb/m8KcXavlQNgVKEKDLr8bFqIc7Ajj9Ua14l5eLEQ8Oyo7FIeTvRRRTGWdtZAbCiNoTxenQsOD1tESoLHZWXxhEHpdbMrXBAFXq+AQobURZGNDrUhFGVGgRIhRCqUrTXyo4OtmgEwegQK7B77UOcGS6RLPatACd0QJmop/bnuICtOMZUxQdcRScQQ5SVnQri89AT/GhH4jzusZ24mhMSEhI2kPI93cT/8ytBGxN5pyQKuBddvg+vh/h+a+J7vu49Xfh88UdxVBliYplm9bq9y2cQieUgJY1IZBiCcp1jCHVkbHDEiw1KCo2KvHTl5zMghLH3r/zQiQSriKD1enZYgsgPqCxsCdbSLyJ6zfg/+vwqH7/ysVSxOzThY4ksiawJSdS9C/pBdKY/9SCG8SLWp4vxjfiHoXz5rXe23ibGeCbBIESu4zVriCyFhqg7iyJKfuGjX8CPGWe55V/vzWlZd9ae7+7HDtZgypnj5fnW/lcKCX2iDidlE6hGl2MC42O8ho2/sIXoPGtCyp1xIsJ49Mm/UgkJCV88Nsbg9/8zny4Q0HhoVYKwkjC+LSui0KYwvq1aEj/PJESJIbBAl++58pER9zwbIo+ONvbaD8LP+U97oCKPkY40IgGgxGAhBMbCMp2RTlNRaJmOO3+FVtmqVH6urhmOEcHyNaGrezxSEBlmRIFtQgIdmSg0EEYuN7TWPc9OE69Nowj8IpYd9WZTysKEHpYVCcvQWNimgNE2RjvYEj03iUWlBA7KKaK0AJl1NYeEsXqPkwLKz9INPa5q7f3/stNzdao1Aj6eEL826CtXNkNtAL2sfxs666eup+efhnKTvo+Oy0LFIhFY41rdgI2rtf9ErWfbPcfuEwer116WdedX2o5GJWqNnZ5yvOjnR1Ee50cFYSIQExISEsrIBsbzWHHZuJAMoQIlQeTFglhMlF/l504v94zoXvf5XtuOfyuxUKIJlSlHIX3OnSJO5gxjP1I0LTJcaHzRWBRAu6AzhOKiiitZtKKZgo72Mh4ZvU0nCqHQ2kK7VhgpocQDgkglq5CyEcKKJaKgsZQggYdXLDBzxgy68kUECAwgPm1L59O0eBkiQsuH7zJ7SStFL4CwHLcfRu1uFfTEpSmN0jaeaWHWe3MBdz0HzURjj0PGvjpS77Ozlk5av0zYEPEQKZ//a5nxqetbR5ip9YyiLNDWzLyBGnWdMXzScp++vg05PgqlFFqXX+Xp/3eXsur186NTExISEr7o/KvvVmU354bNHLuRsWOjQpTwFxkEykH3sQs3joCPIubLbqT1i8TIvRd9LirKLRUjGGM2fGwfXWn8RhFQLBRYtbqN0Jge45AAYSnPWWefw29+dxXK0nw440323nMvpr+zCAl7JxDE/nQM+Y42/uvrR3DuRZeC2PilAvPefYuXXn+Fl994iVfeeJk3X57OG6++ycuvvsnCZc2YMMC2FS2tLRz1jSN58ZXXKAXR2BDNbTdez68u/S1B4HHnH6/kkt9diRcIijimX0XxYUo+6gVT/PO5x/jGkf/FjLfnrefwRue2tbUVz4uSN40xiEnk4sfxKQ2AExISEhISvhj0yKpeSRefBxFZK/6u/PdHxdjHxegZy0aJYBkoFtvArcLWFjZgLI8gn8fzQnIVffGlnWLRIZfNYpsw2oWyx7nXOrWAr6L4/a62DqyKHFkjUSyYUtEMPQF9GyuZhdAPuOSXv2LhqoBrrrqYnBVXvlDwz388wz33P8ZV1/+RQGDwppux9YSx/O6i87j51uuozsWJjArKFtLXpr/CW3Pe5gf/eydaK/Ldec7+/neY5VUxclAFlgRYpi9VahXPvtPEt86+kPNOOBDsIpgSq5uXk/dDsrYikPIZtilKigCDU1qN59fhpFOgfXQYHXcv387Tjz9ES3slRhV7jkl3YTHZbJabbryRzbcY33OYwtCQcVMccvh+XPiLi8nlBnDxL07BmBxKq8RW8jEkIjEhISEh4QvPGoEIhWIR13HiuLXPs85IoXXnuymVSmt9prWF1opVq1YhRrAESlYcxBQnOubTNQypr6TKgWt/cy79tziCIw/eAwCDxdRn/8kfrvsT1914N0sXTeePNz/C/172W2xHEepe61IBYblsMUAAS5umc8zx3+bc397KXtuOjS2LNqAQY6JWth+Ja//knY2O1JKZr/Dkk89w90MvkErbGBOglU9x6TzO/vmvOfX0H3DYnlMgKFJwG7j47NPZaa9Due5vz/GTb+7XK+kDRBS33dU7Ng8AACAASURBVHY/R510GTtvrrnwp79keEN/TNDF2T/5A8cetE1cwk0R+kv59snnU/BsUIqn/3wHL017j66uAo/ffyfVrqbQ2c6KRXN45MU36Td+SuzMtpnx0tNc//vfo8QweNAIDjpsL9pXt3LqiT+AqjGMGlHV4+YPvSoqq13emTmV6e+8FldcEYIgIJ2tYdz2u3LCIXtx5L4Hsfneu/L17caitAukP8eV9OUlEYlfJD72y560NklISPiqYlChQWmLYr6D5194mt9deR/nX3geU7beFGPKMX9qI7JyKWdcYEyBy397KU8+8TSW42EblyXLV5Oqb+TwQ77G4088hl8sIF0tvL+oi8FDBlCdS2EboWLIKK694ndUDejDkqWteENW9rQx1Vh0rFjNnFkLaPM8Sl155jZ9SGgrUM4aJ6mCVcuaaO6yCQIfWwUINk7gM37kSJ69/26G136Lkp+PDYcK18nQp089tbXVGyUSg2IL5154LZO23pM+fWyQElq7LFq0mNNOOIW+I8dxwnFHEKiQ0HYQgcETt+Lqy37BT373M0blUhx0wB5YNmjJ88rUV1iyfAU/+9WRzHhrOjffexeXXnA+VgiFwBAQ4EgIpBDxCFFRNRBTxA9KeL4hlcrS3B7Qsno1y5csoGn22+S72mBN5CTteY8Z789GhT7pVDVaRXWNK1w444KfctwRuzFv7myU1ihVQSh5tKUIfE0qlcH3fRzHpXHocCTnkGnM8PWj9uTma+7gwK1/hZNycDb40tmYgLX/fBKR+IXnq3MxJiQkJKxNZLYSY3jzxalcdvVV3HPfQ7jpTTnTWzvCeqMe3bH5UXyFTtv89PzzOPf8C1Aqj3QH7L3Pwex//Cmc8e0jOPfHZwHwwlN/49Bv/4p7772PTcc09qxq+YrlzJ31Hi0tq+lY2sS7K1qoznehw05WL1mKrRQlrQhLHl2lPG/NW0ZdaTlBKcWYkcPI1mQ59+wfc+Pdz1BRU0notSGhQ1Z3E5QCsi5c/8c/gfZBhShlEQSa8396Pmf+z/c2LBsgnuX9mdO47/HHeOzxH5NLRcko+a52zjj9DF6et5hnbv4rNfUOQoinHGwB8YT9/vsE3mmaxTeP/gY//fVlfPeMb5JuXclRhx7Bdl87gCdefIYnb7ieLXfajX332okHLoO3353PiwMs7LADpWoZJG+zakETDVvb2K7Dvt88is12bOGu+5/im8d+i0P32xkJutG28OMf/Yim0ppwgh1225srrvgdWgLSjoPWoLTgKlCuxdNPPc7hR36zp4IHsVBXRJnXIkJFZRWPPvlPttxuSwLX4oc//RGb7/oLmgpFhuVyG1ER+Kv1TE5EYkJCQkLCFxQFYtHWsZALL7mUPnUN/Pzs73HJVXchpvvzr94JkbyLOHmu+f0vWPjhSt6d3cKorXbmyKMPwC+0M3/eXDyvyEsvPEhVzWhWrW7nrbdXoI1m8JhRPP/iS/ztzvuYMW0WnS0ehfaVDK+q5oNn/snK7mYKSpERjavzrJj9Luf98EyyYYFWu5obLvsVE2uyZF3NSaeewf/84CRM0IWNiw4LuLZFEIYYyyU0flyTWKPEpq6uLoqflHVDE9crY4zwwTsfYteMoG7ocIoBtM54iePP/BmtJXjowUfZvLEeIyqy1JVXlKogDAN+eNav6dN/HL+59GKmPvIAl/36fI448Vvku9q59dKfsDoYzAN/uhBbulHG8Mojt7Nieg7bCjFWjnSwghmLlzBBdUOQhsDFsWyKXivd3UUWLljAkCH9AZeqqgpUi+op9OF5HkqDazs9wtE2GjuEwILtd5rCqy9PZdq013n1zWl885vHUZFKs2D6a1x0/T0o2+X4U3/E2HHjsUJwdQbdOIlRtXlee2sOw/bs8/mvpS8piUhMSEhISPjioqC6diC333kvlVUZXnz6IX591Q04KopBU0qtk4Cywau2LEiD0g4nn/Y/7LTjbhRlIPc+eAG2a9G6YC7HnnAC8xcsQrp8ihUpDj/476S1wQvr+Ovfp3LIwXtzyIE7c9apx1M/5bt8/+i9SQPBWT/g8Vtv5xeXXUNJK9qppnHC9tx8760MMiXEuLipFBBZvypyOSzxOP7Y4+hsb8FychQKpXi/DJaTIl8oksmkuOnmPzJ02GAEA0o2qEaxGMP7b79BdsgmVNfUk1Gwytj0bRjHwVtN4LZfns2Vupa0qwh8L1pGgTEG102hsTj8sCP521/+ypWXXUlFn/7876WXsbhpAQfusxunXnIWjf36Ylo7Mdpw/FkXcPKhW8UWOoXx5/LdMy+Ncry1Aq0JlI1SwmnfPZ1vHbkXTQtmsXLxbOYuW80uR5/VM/bH7r+fCdNeJigV+Pk5v+DE4w5EQkWpqLBsTXXfwdTWDaSqTz0PPnA/P/rhqWyz/U78+e5nOOiYk/jFed9nYF0W5XUgJoOxXAK3hs3G1/PGtPkcued2G33tfFVIRGJCQkJCwhcahaKmtoIgEJTyoilrFaH+aHmWDUNMiAk9nn3iaZpblrLXHjtw6z0vcvVVN9F/QD/GDVCodBX3PvwEY/rVcdNf/s5B++7MoL45vnfmJYh4WJaNttIEYeTj7DCaCldjOVnsTDoqFCOCZTxcS6hJpUjhYIzusYqJgJPKkKqs4bTTTqN55VJeee1ttt9+ChUVOfx8O/c98ChTX3yRvfb+GrU1tWhrzfIbssciISuWNzOycTS5VDTWxs0nc8stu/D6C8+xumk2dVaW+//+OKlsjt333gstPloClIQ8eN9f2XzrPfnaAfty0y03YNwQ6W7j+muvYrtdvsah++5I++pmsqIIlUXWsbBsFddHVITGxniCEhsTFnnpiYe55qZ7WdncyX9/+2TO+vFpPPrI/bQ0L+GZ559ba5+GDh/GQYceAEGRkSOGEeJjjMGyoauznVmz3scvFrG15pyfnsM1V13ODdfewQlnnMeJ/70vzYvm0LzI4DgO48ZOADFYEpCuqWLRylXrtKpIWEMiEhMSEhISvrgIICmMBtEBijyg4o4lZUti70LPG96NShkLbQsz3pvBG9PeYcGcN0nZad587UWm/vMZfnH+6RRJoSvryVXZ/Om6P7PnTttRt8nQqESO9iBuOJtyczz55GO89NyTHLj1eFRHG9PfeoVAICOQylosbZrHNdfdSoXfTsOm27DbdltSn3NRKPzQUNunD/99zHHMnjGd+x54lEcee4xTTzmFO++/i8VLlnHLjbdy8OH7k82me8p093RT5ZPFoohBhx4ZA64GKYWUshkyKKbsuCNTpkyBQiuz5y+lceQoLrrkItIImoB8Zzfvvf4alQPH4huD42q0Ev7+57v4/Z/uYa8DD+XYww9k0YIWbv/jZdgZzTOPPkZFcT65lCB2BZX+fD6YtYD+k1P4QTe33HQt1ZWDqays4dCD96dhcCMnnXQy2Db+Refwzuo1Y58weTI/O/9cXA2mBKGsIJ/Ps9wzzJ47h9uuv4pSdxeWMVimi1JrJxmlufve+/nHw3fhWAHGeHSVbObOnYejA1x8iibAVlbSmO8TSERiQkJCQsIXGq3Bi9vIRRbEXu1LMXHR6t5WxA3sIqVBkeX7PzwHgLuvOpf7prXwv+eeydEHvczI8TujzFOkVYDgI8bBSFTgOm1bhKbEiuWrmPr0wzzzzIt0ZQZx0pln0jRrOnPmvM/ihR/2tJfN5/N4HauY+uiDpPAZ3hawx5StAAhEsFMu+UKJ0O+i/+CR3HPjtVxxxWWccNx/MWDCbtx+118YN3owRdOBaVHonEPgGHIqkonqU+pGKm3RMLCGl5aWKAJVKZtM3KHVWDaBghUL2pg5/XWOOuoIHF1ukmERGMOqfIlatxJbGURCPClCRYpjjzqAhjHjGT38EBoahzBqcA1haJj1xhPkl7+HmCJieeRCj0WLl6JMJ5ayuOK6O+iSNA89szNK+7S2rcYrdJFyFYViO7ad6Rl7d3eeJYuWknIUaTvNgH4OXinECOy+39789HunRP2xJUSrgLZ5CzjyqG/xyzvuYOtxLlnX4ZKLf8nMmcU1l4mA39mF28/5xOP2VScRiQkJCQkJX2zi5AwDPUWT136wlztvWGxUm1FZ88sosDD4JWhqbWfguNEMr/fQocLzXLRfotPyCS0LjUuoDJVVWe75yz1cf+WlZLXi2DN/whknHIrrH4GIx1/vuJlLfnM1gTF0k2XAuMnceO899FUBolOktA84dHUXqcjmOPSoYykufAdPV5LzO8HkCUoeCz9s4uTTTkd7XWjTRqc/lN9cfhG777EFyo56K39aXKbSmuHjxzPvsccotndi+lb2dM3TgCPw3lsvsMpLsf1e+2HFR1MRFRf3Q0NNXS5yHisLrWz2O/xo9j38eJR2kZLP/OZm8gS0W5oTz/4lJxw0mbS2EQzKX8xJp/4c8UvYqRwV/QwtS1rBdRGd57rfX8Ff7roLJ4SFbavY5ejv94x96mN/Z/8Z01HGY/yYsTx81zV8uGIFRucYUl1L3/79YxuyxpES1ooPqXQU1dUuDQOGM2/ODP761/u58OI/kjIhRhx8ZbN6ySJ2OHj8VyxfeeNIRGJCQkJCwn8M5U4ovbvTrRFHqtyM5bMlswiEYjNyzCguvOQSMk4XWkIwworlK7EFautqIW6x19XVyW67786x3ziEi889J1reGMQYiJM+glBjWxYpCxwNjtKAjW8CLG3jIuSLJfoPGMAPvncalX4rgc5RbRXobGvjR+f8jK0POYrD95qCYwrMfftRzrz4YexUioydivZ5rWPwMWjNiE03x196GR/MmkVDv21QKkACjbJhWdMCfn35DZz+/TPpX5eJ2giayNSYz+fx/JC6uqq43SBgNO+/9Q4vvvgqc5uWsmzpQt6a+QG//PWFIC7asUlnMzgiECiUCCnHJpN2AQtKeUQMhe48FjYHHngwW22xJVWZCq67+Vp6lzbfZOvt+OHp3yFtQWVFDnB4+403GD9pK8aNGBGJ0LjdoVIWtp1CMFHbPQypdIbTzziDfffdK7YeG/KrV7G0vch2W40h2Lir5CtFIhITEhISEv4z6NWDWHrZEo2JLImW1pHF0ZjPlO0M4CuX6to6+tbW0bLgJRwpkcLnlZefJ13Vn9qaWqBAseCTTqeZsNkmWHiEoSE0wox3Z3Djby8jpMCqpU1RIq9SVEoXTe9N5/QzfkTa66KZHOeccRLbjh7MymXLaGhoYL9dNiFL7FenSMuqTvrXX86kiRPYe59dsbwiLz54ExN23o3J203o6Qcde08/1iIWTdeMmTSZHSZOYuozz7P7LttgVB4tFcx6exrfPfE47LqJfOfYQwlKBVpWryCXrcALhBtuugXlpBk0uAp0AAQYo7nphlto8X1GbrsNe+w5md2aOlg4Yy6rP2zl8aefRFrfI42PY3JUleYx6+0ZzFpt2HRAjsMPnoxy0ig3TeC7TNhiMhO2mAQYnnrpQWb0ikkcPnwYBx+wH2krPtfFIo8+9Rz7H3UcdZkUISHlIAQB2ruF1pKglOB70NA4gv8561zAja4aU+DW31wADTuz6eAqKj7TlfLVIBGJCQkJCQn/ESggwABhZOEDInGYYcGCBTz55DMc+fWjYmvfBq6wF54FeRcCA1Uh9BswmVtvuh4ocfk1d5EWn5/99GdcfNFP+cPVF5KqG4SRECtueaeAdCZDQ+NQjCrR2bwEC0EjNAdpVLaOPvX9qZMMNZKnT4VicdM8CqU8Y0f3w5jIShf9CgAfYymURLLRCzw8u4Irf3MONWl3rV3ovSsfF2OXqRzIj075FudfdQ/HnfxdBtcrLrng59xy212Mn7gdV994Ff36Z1jw3jt8+1unsry9A22n6Ozq4qyfnEtNpUKhQQIUFr+69DKcdBrSLsrr4pqrb+C2e+8l1dDIsrce4a5poEOhZKWo9kJKdpZg8VweefQxVj5/G3c9+SaWQF1dKoorDQxYDoRry7awVIj6aVsaS1s898LzrOjo5JgjDkUphW2E5uaFnPztg3lu9kpUcxVDho+kvroSEY34BqUE7BAJAz54+z2u/ONdnHf9fVTmMiAeKHfDrpmvGIlITEhISEj44hKrHwsQLCpqRrH5xK2oqsoCZQuaolTKc8MNV/Hko0/ymxv+xNC+tdgYwF7XxBb/LQQYbCwVxeV5Vg1aVqIViAqxdIn25iWccuY5bLLdXlzw4xO57MKL2G/f/Tnv4t9x5IGjIoGBQaUziO0wcvRoLvzlhYgEPHj7H7nw4qsREdIaxowcya8vPocaJYT4WEa4/KKfkxu0FUNrKkiLRPGXGhRpDHkKvkYZCwFSmRwXX34txsl8Yhzd+j+LKlPv+vUj2erlt7jk4gu4/NLz2HLryeywyy5sv+OO5CrSKOMzeMQmXHn9DXhhiIgiV1HByJEjsQW0irK5ba3Q1VWYMIxyQRyXU04/nW995zsYhNBWWCZEiRCKjWME37IIgIylWfj+mzTuuJz+Q4ezxRabAxri+ModpuzK8LY8We0yZsfDSHWArRRhIGhbscU2W3PHbTfRvz6HMQaNoqZ2AD+78A8sb+vCMWkGDx7K0MaB2BiUimyMYgCl+dOtt7P34SdyyIG7EgZ5bDuRQh9HcmQSEhISEr7wlHNtJ2+3K6++PLVnugggAePGjeeRRx7mW0efwnEnnca9f76DgSn5xPowRgUU8oonnniC1pZW7nvgCQZtvhdKCa1tzdx55a+4+vYH2W2Pvfn5Zb9iULXFdddfxx9//3tO/vZ3WPHz05g0egjvvPIcz774GkftekxPP2ZEYWmFUkIoJipVIyZqKYfCNor577/H7/73Ck7//T1UplKxqFXce+uNvPLai3R252lavIyB/eqj/VcWlpuJE0o2HktbkMnwi19fyKz3P0BbDgcffnB0HA1xgpBDKuOw+RZb9kwvx38qQEn5TETza61jpW5hOxa2Eze409BTv1I0KEhFi2ABY7fYgbFbfGSAokDBnl/bB4AwDNnrkP8i3lQPVTU1bFZTF88fHQnHTTNpyymImLgskorSmUT16tWnUNLFMcefwGabT0C0wlL2ZzyaXw0SkZiQkJCQ8MVGrXmMC1H3EK17F5O2MaFQ32co1/7hCp56cwYpHa7rg/2IFjAmTUU2jy4u5a2Xn2HSNntz3HeOxsHn/Q/e4o2Zi7n6upvYcZfdcNMaQoPO1HLS/5xLn9GTyHcuActlYavPcaecweF7b4vT4//V1NfXse3kcWTSLkFVHePGbYZvIEor1tTW1nLuuT9k34N2x1IAGsKQgYNzNCwbR2AcfrX7Mey96+brjF/il2bjqa2uYodtt16zLhMl+RjTazNxAlBk1ey10fLu9Uwsm2Wt9WgtvdYsnzrWeD5jTLyN3jvcOxHJWnvTouLfZYEYDVaXk5xUXFMThbIqmLTFBEQ0oRhU4mb+RJSIfFz4QkJCQkJCwheUWCaJEBgLHSsQrboJyQA6lhJhZMnqrTTL+ELoqJ5+LU4AWGGUGY2AdnoyX20DQa/lbQF0iRCLALvHQlYuxBOZ5sLIiqVdMCFGaUSpNcWbxYAYRNuonvYrrKWmypPNx2Rrb5RI7P20Vx+ZpsDEYZ56fStVrL38p/FvNs6JCB+VNwawlQZCUAFI6t8+zi86iSXxM7Cu92LtKRvTKikhIeGLi0DPw1vWozES/k0I9E7Z0Gu1zHAjF2OZcsmW9RBaUb5EeXGjDSounqKUQgvo+PwbteZ9+e8AOy43DZFzMyrEgkSKStCgosQTlI5KtAgIKrLEqbILNO6dsp5x9pQH/5Ri2RvEJ7Zk+ZRl/wPMSWUL5McRRwGAxG0dhUgsbmSnnq8Sn8VS/ZVHZO0aXXEp1rW+RP8B36evLCLyqTeThP/H3nnHyVHWf/z9PDOz5Wp6I4GEBAgEUkggoYkgAoJ0FEEFBKSqFBHFH6CAIkVBRBGigoKiKCJFQRGpgkCkJSQUKQGSkJ5c392Z5/n+/piZvb3LJbm73N6lzPv12mTvbnfmmfp85lsTILqOo+s9uaY3IooHo6NezR5KImEWH8C1HD3RrUJQC1gtiBLQCqtUGHMnoc6MW+DFLwsEUe5yaD0MBWaplAvzmmOXq4pGK21Ho1RoUewoTbmX0XotVsRNBL2ewReNoUoBkUjEklzdaydxN3eRsOJ/+IxoVYAXeOGjKALKCV0HiuKVllgeNi7auyDWd1PZeIg7SqjEVN2LWPJok0JQGCdyMcbXe2J56Fti7aeIYvxKJv7YBKws4XHq7DEzUepIXOql5E8dJb4UBxKvp6OfQ3TpdRv36ot+Lg03XFe9w4QNJ9z1EllvO4qjTCglEYldJbr+jYIWDVVBCzipUCACRsIgYNcRsI2gq+mts7BbHQY2gmVvKBvz2HqWqAeBTYf/a59QPGbKtsZYVCulivvYRkkDWwQG0D6iIMDDK9HqCQld8Ue0EYklSrCjCTg5vRI2FpKYxG4QP6R6Ynlt3jvc9+A9vPnm/xiz9Rj2Pfyz7L3bxNb6XBLHw5T3sjfGoLUmCAJc1+1x4bSu5cV/6y2xFj/XhNl4neusUJot19TUxMKFC9l6661JpVI4zqZgESqxgkSTjFgFyqE39HHpPo9/jvd/bwjG9udWEAQ4jtML553FoFpdhuFoov+TqTwhIWHzZgsxB/QgUUkA7cDLzz/LfvsfwJ/+8hcmTNyJv/35txx9yHH8419Pg/FBUhQDmsqM1rqNYOrpSdNau0amWEypcLDWljXer3QMxhjy+Xyn1qe1Loroe+65h7lz5zJz5kwKhQK+73d53b1P7L5yi141pV3A7ZVxGWOKxzne7/H73ojvjNfh+z7GmKJAhJ4/LvE2iQiIJWc0Bt0uUS2JaU1ISNj8SdzN3aRx1Uec/NlD+NDfiT/8/ieMHt6P5Yvn8dnPnUF66M7cefdMBhvbGgXc00aHyF3h+z4PPvggf/rTn3jr9bkMHDiQ0089mWNPOKnnDB5iaGho5IfXXcsHHywsLjNevNaaww8/nEMPOwwnmrjLZV3K5fI88vfH+MMf72TevHlUVFRw9NFHc+GFF67ze9Za6uvrefjhhzHGMHr0aO6//36++MUvsvPOO3dqvC/PepZbfvFbcvkWJApQr6qq4oILLmDs2LE9tYnr2AYAg9Y5FixcxNVX3ciuU/biiyd9Bs8rcQr0cFCTtZbVq1dz22238c9H/sWypQtJZ1J8/gsnc/LJJ1NRUVGe411y/q5atYq7fnsX9913H0uXLqG6toYjjjiCM844g4qKig3vmNDBtdLY0MiLz97LFTf8nWtuuJlpO/aL3M82SnneFCzQmx/WWpCwR3OHz8LdOvclSh5Z+zEt9UaoqJxORykxYcHp1nI5xbzZDt3NrWV8fOWgkKiYjo4veKzWaBMm06x1O9cTO5mQ0F0Sd3M3sIVmVi5fwtz/LeK4r1/NgIFpLIbBw3biyq98gWPPu4UVdTC4quOSBhtESS0tMUv49xOP8fVzLuWIs47n3AvP5Z8PPMgFF17AR+ntOfWIPajY0PgpMYS1vgyjthpGZbYCELSj0K5i3rP/4fcP/5f9jzsPqzRONMCedkP6Aq5ayu9m/pzzLr2Fk790Oj869Uzq6laSa6I1EHwt2+r7Pvfffz/Nzc1Mnz6dm266icmTJzNu3LgOPt2Rlcjyv9df5J4/388XTzqR/gP7o8VQM2AAuClMySfLFrKmwViDJsfPfnAFM299jINOGM4JXxBcrzUefm2JesWKG50lLkirNatWrmL+/PmcddbZjBiW4Yl/Pcw1V1zK66vS/PDSL5PdwE1b9yAMf/zjXdxzzz0cfdQxTJk8kdnP3su1N/yAd99bzlU3X0P/9Rz/zmPwfZ8HHvgbN/9sJi+/9Cyrm6sgpUtOi8QB0+vEsaAAIq0dQNSaV6ve0Iekdg8McccRGw1ACTgKRPkoHNoWpnHCztIqFoaCsmHSjHXcML8xWoUW0yoUlQ2t1SKYfDOpdEV0QVssPlrcsAdxlCFtbbjtOk7aaZsuDUojJkA5OtplYWu6sF5kOxJRmbAOEpHYDbTnYkxAYAxBkCflhc2GRBwG1NQiLStYtLiF8dtmiMro9xzRHSZQ4LguD917Nzvtths/uOxKUsC0SVP56MPXuWXmnRz/6T2oUD1zx6yuruK0M8+OikyFBSCCfAPfeHsBn/zseA48YCJWUTbXukuON//7Ctf/+Ca+/8Mf8bUvn4TY0J6nNW3Ec5uuBCLU1dXxwAMPMG3aNHzf5/rrr2fGjBmcdtpppFKdrbZvWbTgPUZttS0XXXgBw0YMXuNBfi1D6Dbt4wDB4GF56q8P8dvf300qsxWpTDpaZ7lMCQqxwugxo7nxxhtxHA3k2WXi7rz2wivcfdvvueisk9hmULm6FggilmnTpnL4p49m+FbDAdhj7+148+3V/OW+v3DShecwY8zWPbY+gJkzb2Hw4CF885wj+P6P/05LrgWo6aF1JHSZotWt9XqIn0F7LkJUYW2cpFXy26jejVZRQetY6ZUGIJTExRaHGotMBUqEju4M1hiUEsRaCsoj4yhS6WxYR7FQwNgAP+Pg2gDleAgKKx3lTre9/q01KK2jxLPYAipr3J63iHy/hA0ieSTuJtW1/aipqeWJxx6hsd7i4OFb4R8P/5sG3+AHq9d0D/QUCnKAmGayuRzuoGFkCZ9htVLUVGVIqyw2AAkKG7gyCe8kxgdbCEvyS2jdefW5R/jt/f/gpC8eRWV3m4l2dhT+Em6+/T50vzEccdRhEIDS4VO1RMlBItLGrCAiNDc388gjj7DvvvsydOhQnnjiCaZOncqJJ56I67qdj6cTnxXLFpHyMqSy2WJBDUP5qmy1L9fjSyPLPlrBd7/7U476/OfZccchSGFF9Nd4FD0fK6e0KsYAGhMgIriex4DhA9BuispMeZ81RYRJkyYxfNjQohp3XIeJ222N07iUj5qCHrIixhYX4dZbbuH2ppe3nwAAIABJREFUX/+KPWfMwHEsnucltUn6ktg8r8LzUTutP1tCISbdODZxHLVYA0GeJ558mqbmljXFlA5v546OHkqVReEWB1Z6H7HGYvKGXEEI2tyS1rxTaB26rRfMf5fnX5xLwVrE5DGmgEjAv596mqUrWvBbGnjxvy+yfOVqtG67vdbGAlSK56dCePG/s3j//florUsqEwjWSge1fhMSOiaxJHYVAVSK/oNHcsZXT+f/LvsR5321jum7z2DWi6+w/PnH8BxdvmB+sVhToFIU1vbnkyeez19OO5Gf/X4/Dp0xkSVvzeXx/yzjkmtOozJjCIyHt0GTm9f61tiw7ErQTM4P+MlPbmHU5P2ZPnVX0gjYgHLFaTXXLePRR//N5E8cRl1DE3fd/wiNeZ/ddt+d7XccSTabDSvol+D7PnfccQd77rkn1dXV3HfffTiOw1lnnRV2U+iKO9xaHK3J5XPMe+Mt0pk0wwfVMmzEcFzHaVP2rKfJ5/OkU2lS1uOWW3+Kzo7jisu/xac//Xk0DWVaawkC1hqCIKCxsQETNPPaKy/w6Atv8Z3zLqNfpSagDDcTFYQ9WSWNVmAooAS0pCg0L+WJl+dROXYaOw7tt95wg84SW4RGjxkN4kQTrJvMqH1MDsitWsz7r85i3mvzWFY5jH2mT2fH7XfAiXo4dymSInoACwx4rkYkj1o1n/Muu44/3X4j48ZswzvvvMOqVatobmph5YrV4MO79SvQTUvxG1exqKGWEz93ANOmTS+5lxiWfjSfzx15KIefdD5nn3EKynFwlAXx1hyIUig8nn32Wa76xZ/5z5N/QzkurkqRq1vMV8/7Ct+eeS8H7qC54GtnctWPZzJwwK5hTCTRRkv0IF9UfgJK85tf/4Yly5byxz/eDWisDRMuJYpJCV3WcaJj945LwuZPIhK7SnxtapcTTz6bIcNH8NDfnuTfTz3DLhOmcuExe3D42VdTVTmQ1hr9Pbl+jXbTYAxa59ljj7048qBjufDMk7lh8ECa6lbxiYM/yyf32w9XWRQtoCo3bJ0WwAnvMBhwNbOem8UTL77Nj3/5A4b2y4Rhi6p8hummBp9CbiVLFr/DaSecwTbDalmw4AOuvOoyzjnrXL7+zXNxXLASxgzpKNmhsrKSoUOH8qtf/Yp+/fpx6qmnFsumdB6FDYSmphwfLV7I8cd9nsCvp19tDV869Ut87StfIZWtID7ePXW/Lc1Ut1Z46r6Hufvue7nmV79HmwZc8REdR4EWA7ZQqr29okcGw6wXXuCib32DXHMTy1fVcc63v89pJx1bnHzC1UfBUj2wF6QYiOZEyQAWJAA3z69vf4j7n3qaa2++nTGDBvSYQlcqLrzc6jpU8ZSs6BEhmtB16j58ka9+7TKee/5Fdp68OysWv8oN31Wc/61vcsaZZ4UdUVTnnTdx8ol2wkCN8JQNMErhOC5BEPDA/fczb94bWLFkUh7PPf44o/f4NBO3GUCVl2X02GFkMlXR8qJ7IzBoyGCuvfpyjj3ze4zZbgKfPmhPsAqrwntTW0EWWiJFhIqKijBuEAFrCIyP46XIWwdl81RkM1RksyjAi+p8+77lnbfm8ps7f48VwQRhi7lAAlY2rGbOnNlcdNFFhCIxKlVmFRMmTOCoo46ipqYGiOIVExI6IBGJ3SKciDOZLEce8VkOO/QErFW4rvDY728iWzOYbUZmCKv99zzWChqLaMMDf72LP9//MBddfgUHzZjBc//6Jz/6yc384o6DOeMLh+H1xMUvFAOARCuU1fzrn48wbsdJfOoTu0OU7CllfBzNNxQIgoC35rzCL2/6DQd8YjomyPHVs8/g+uuv48jjjme7cUNDt3M0x8+bNw9jDD/96U8ZMWIEJ598cug27DIK7aW57PKruPDyUVhlWbxkEdde/S2uuvxyth03nmOOOhzdw9IsFome5/H22+9w0SWXcuTBhzNj94mo+jnh9KI1Srcql1jQ9LRI1FpTXVPFnnvvjQ1W8+KLL/GLm29hcEU1Jxx/BK3h+ELrrLthSKkLTQQFLF+0iJtuuYEbb76br33r2xx31CE4PZa0EomH0gxXAYh772748hO6R/OqFYzadhw/uOk2hg0bTLrlHc7/xne58CtfYcbeH2fXXXYEun7ei1JoJdzxs5/x2jMPMf+95Xzzm99k96mTOeusM6msrA7jBXONnHXisXz681/k6AMmoRGMcsBajAmT9CQK93FTKaYf8CnOOPltrrvmOmbs+UeGVoUPj0q3BoVoFO++8wbXX3c1r7/2Fm9+UM83LrqMA6fvwlNPPU3jivdZsKgh+pKlvm41l37nEoYNGYG1mi9+4Xg+vu8ezJv9MjffMpPjjjuOTDqFUuBmUgwZOpTDDz88TLqxYdtYK4JY8P0CNTU1iNgozjghoWMSkdgNRIJQqOkUIs1opdCuS3P9Aq64+Q/MOOAgtEeY4laG608phcWyesEbXP71izjqop/w3XNPRiHssdvODHXrOPHsc9lr6hSmbjcKne6pFYNRhuXvzOWBP/yBUy6biUMBxAGcKHGlPMYWnapFKYc9Pr4P++w7FeWC5wZcdNGZ3PfQ33n8mefYYdwR+KGhE4BCocCgQYPYf//9GTVq1IZlW6sU1QPHUeW6GIH+A8bxkxuu5uVHn+f+R5/nwKMOoxafcrjbly1bxrlfO4/KYSM44KgjeOeVOdj6D2hosqgVK3jx5TlM2Gk7aqurUIQZ9XEuT495SUWYOHEi102aiAFyzQ1cdd6XOe+Cb7DT5F2YOmEsYf/yEuv5BpwEFrBYRCmMgkyQ54PXXuW0L53FsoqB/OrOezjwE3uTNaH1KExhKp+K00SWqsTr3CeMGr03V12+J+mqCnwR3Opt+dyhx3LXzN8za+6HTNllx64f/fgLErDLpMkMSmn+MPev7LnnPgwb3J8fXnsN9U0FNAFSaGbeK3N47+c38OzfB1MpOeq8AVQ6LmefcwbDhw8P65YqixUXpTJ8dt9tmXnTTK6+8Tdc+X9fotaAdcLzqKBAi6b/gDQHHDyZtDOQ9+peYM8992KbkQMYP34Zq5emqXn+NUQHIOC5lvE7bsM2IyeSy+UYNGgghbyP569m1LY78J3vX8P8t16nbvlibDqLtYa0FMCpwQma8ZTQhMfobbZhpwk7Roo6EYgJ6yYRid3CRemAxUvfQtMPzwvINzVw8+WXMPfdBq655USGtdSRT6dJ4UWTV89djEopUBk+mP0STQ0Zdp4+CfJCPjDgpthx9x2xzcLb73zE9J1GbfgKS4buiOX++x5mSaGCGdN3JpCAtDihpYXy3XLSVTm8dCX9KrZBuxqFQUThZWtwtEfgh8WdpcSdc8ABBwB0Pf6wtL4GUAw9Vzp0RCrwHBg8aBhjth1HS/2qqASMpceC40qYO3cuz7/wHCAce+yRiISW5Lpm0G99xOFPP8Qvb7+Tow77VDR+w7rqvXWV1sxNB2wTBQVUeHzs8IP54Z3PMf+tt5i889iwr3EPRWdqwrIeWiyeX8978+fyqc+czOCtd+J3v7qFcaOHIra15I+7oessft1p87tivoSlWOYo8Tj3LtZadHUFmjAs2tMAH9JYWE4TkM2Gx6w7x8UCBB5T9pjGlEmD6P+b5zjm6COpyDi8+/YbZDI69BA4Clc5DKjth+N6WBugtSKbrSTlZbAGXCe8/h0FCssb85eQK6zkvtt+xHEnHMJeo0cWx+kRnlv9+43kyCPPpn71NfzrtX4cfdTBZAUm7zaNukXv8bt7HorurS7Z7EA+/7kzmDJxPGH0dwGfRpT18UVT31Tg2utv5IVnn6Bg83iZNMqmyAQFCtbjo6ULcRzNcZ89npkzb6WionyFqxI2HxKR2A0KhQKup3jooYe44rs3MmhwLatWrGTMyPH85q67mLrLtuggANsM2usp71sbAgMDho5CaGLu7FdRu03G0y4Ww5tvvg800r8mTcHkSOnu9/YVFZd0CF1/+ebVPPfCq4zeajTDhg1rVyOsHIRFbvsN3pb99vsEr7z0DEtX1bP1kFqUSjH7hZfxrWKvPaeDCGndWhxig+s0lprhREEgKIdip8WFCz7gpdff4EsHfToaaezs7dmDvdtuu/HE409iERxHY6xBmhZx+lkXMXSH3bj0W+ezy/jtsB3U291gon0Q+D4ohbhpXNWCDXLMeWkWnptiwODhPbxSAB1ZqAVMgd/ddhtDxu7MXXf+kmGD+4cfUa2e7Z4rg9KW8IEM3G6FKST0BFqHNSoLgMGSsgE2b7j/vocYPHIku0/ZBUdKjn0nToJieSmITiCFn8thjGH5ogU0tjRz7kUXU6laeOKZV6iqqmTV2y+y/wnHc9RB03HF4isPV8CY8BU+TEWeplw9v3/oOb78pVN5ftbLPPXwU0w/54Ti3cGJTlixgnIEx3HwUh4vzJrD+K2GMmRQDSYIy6zFWJrJFVbQUrAYo3FdB+W0FrKvrEhz28yfs3z5R1x15bfZbofxnHDyObQsXsgPrr+Vf/zrSb569pf48pdPJZPJdHpfJWzZJCKxG6TTKaz4nHTSyey/79HM//AtdtppPBWZraisBDEKqzxcJJy4e7CodLFkg3EYOWEqx33mQK659NuMc31mTP84b735Dldceyv7HX4Me06fRMrbsLjIYihWFBe2fMkinnlpFkcfczrpigxK5bpXe6LTAwjFqZfpz1fPOZUDDjiEb3z9Sr5zyUm8PWcu5517AfvsfSDjd9gGi8Vpk0XRttZg+5Iya0PFdcWK3XIUy5cs5aYf/oS9Dz6WoSPSrFj+Id/79jfwsgP4zJGHRu7dYopDj1JVVcUuu0xoLaWhoGlVNRUVWbLZLDvvNJ5UygkTSHpeJWGDgJtvvplcLsfU/Y9geOVK5r3yNNff9Dv2O+xcpu0+uYdXCmFtEx2a8KzlmWefITVsBo8/P4dKfzWiNFa5+May9x7TGTlsYFniBiOJTCFqQ5jQBwhRTVRBHMjnm/jRxZdz518f5/4HHmDMVkO6/GhWLAkjYQytDVyCgmHZovns+bGPceIXPs8Tr77Lr79zJtJvFKecdiotuWbe/+BDPrnfZTQuX0BQNYwr/+9yDjlk35JlWpSCt1+fw6OP/4e//fnXzNhjOpd+/9ecffqxVLmp8BqNz1WtCQKfxsZmZj/1GKd8bj7HHn4wP/7Z9WTFEtQMLo65flUjH9vj4yilGDRkO/7+8F/YaeftMEHYRtJxXCprK+hfmeJrZ53J2eecw4MPP8HqhYsYNnoCs+e+zvBBqfI9USVsliQisRv4QROe62FNDaO3ddlmzL4ILnmlML6P1g4aDbZf2MKrB1EqrFnn+EBqBN+67layo6/n13fcyU03/YJMJsMJx5zB6RefTU0F+IHBc3tOpOqgmSkTpjNj+t5UOOCIU7xBlyVeS0WueoGdJ0zizt/exvW3/pTPHX0GNdUexx53PGdd8C28OCm1TGSrLc3qbb773fNobirguQ4Tt/8k37/2ZHbZaXu0zSNa9V4pPQPb77Qzg0aNQkeB563W6p6Ni3Q8l4mTJnHNNddyz1/uR4ylurqa8y68jlNPO4nqknmnR/vNiBclN/dn7A5jeX3+29x2w3fRKARFYATtuFRXfJORw/bvmXW2o7J/LdOm70dtVWUyp/YhgatI2QKvPf0Yl11+JXPrLTffeRfT9/kYKcLEue7Uk/dQoArc/otbueNXM6lvcPnxzb/kwH2mcfaJn+WUS2/kxGMOZNjgAZzzwkMMHDyQCy48n0JzPdf89Nc0RjUVHSd8SARF0ORzw3duYPzk/Rk5YTojx65ga/k+1914A5ec/3Uc7RY7yHww/zW+f+VlPPLoHIZsvwu33/Yztu5fw+57TkWal/F/V/64aC7PZiv5/tXXMnbMWDw3xdajBoM0o3Qa10nxyiuzaVy5CE/5aAWnn3o6N/7wRyxrquKc4z7Ds0//HS2CdjRjx27LzjtP6OnDlLA5IgldxtjWl5S8gkDElLzElm8M1sYvK8YYsdZKPlcoDtAXkUBETLnWLyJ+6Q/lWlG8fBuEOzzap7lcTnw/HIEJrPhB+H9Z9rkVsYGN9rVIQ2Ne8vlog42UbHtQhpW3jqEUk28WseGKTfttLuN55weBLGkphMfeipigQXw/1zoGGxTHtaEYY9r83ydE21XOaylhHcT3Fmvlqb/+RQY7yFGf/5K8t3yZ+CKSE5FC/Ln4s9GtIpDoilzHvbjgByIFkSsvPE+e/sMtMmHf4+XNN16XFUs/lAP32V4eeepNaciJtDSukNOOmi53/32utPjNUijk5KgTvix33vOP4nnRICK28K48/eSfpXbAMPn1PX8VY32x+Xp59O6fyqBBg+TVF+eIzVkJZJmIb+TlZx+Xc086Uq747uWy20EnSKPxRQrNIiLSsvJ9mTx5gtz+5FxZufRVOXCvj8t/nnlTCn68MTkRaZTf/OgH8vGDPiNnnfd/suvU3WXK1Mmy2667yIxJ28vWVWnJZLeWibvuJVN2211mTBgngJx5wSXSKCJSWBZNJJK8kleHr8SS2B1UR25LhdYKsa3toso6hA4CcFJpLxyXSLFaX09bP0qLhLdxo5fdzKKiYrGhdzvthW3gxNoS61357HiqxEpYWRGvu8QVT5s3ZUc5LsYKKIvuhRpnErnqrbK0pD3umvUm++80hhEZjeOUWi5VzwfgErobizVKoyBEK62/0+UqvyRgopT9cmZPJ6yFaJd/NPdFzv/GpZxy/sWcd8nFDKypXjNFTMIrNI5+iSuQyTpOSc91EF+4+LvfwSmswt7ydPHDCsU1P/ghY7YZyLRJY8nnhYVL3uF7V/2JllULmPXiyxx51NHFkjYpDB8uaeCSS6/koKOO5ejDDkGZHMrz2POAw/nY9Hu55Ior+OWdtzPAywKKiZOmcMPNt3Lnnx4m/9QcWnyfd+fOweo0TSvfI5/LtW6l8nnrf3PIVLSgBAYN6sfwkYNZsmQF2nG5+geX49j/AyxKArQYvvfNr/DC25o7f/tzamrTfPDaLPY/4kRmTJ8RNlkgibVNWDeJSOwGgiAqbrEUFxtRKBx6uyapRDGKSil838d13bBunrU9GgsZE8f29a5ABKLSLm1WF03crWW+yjeQuJVV+DBA23rRxdWW8eCXbJq1FpSDs7bjW4bdYK0N1+vARwH87ulX2Xr0UEZWZtqusAcvgNJzTOL6i7Qmk5RNGLYZRFzKO6HPUPDUww/g1A7lW1ddSYUXPpREaU3Rg5oUy3RaJ4zyiV3Qxl13EIQATjaN1LWQC0xRJIoIBx9yCLvvuj21FYpZ/7ibilrLtEM/gTSt5pm5K9COLvZtb1m9itO+fAbL6j1+fsWlVHkW5RdAIFs1gBtvvJJPHHAMF152Obddd22Yve+lQBkCY0il0yxasIBTPv855i9uwJMmGr2BxZ3Q0LCMb158HsYYtBXOOP10vnPld3h3/odsv92OVKY1StKgw+hoyTejrKGioopMOoV2hAfv/SNuv+EceMDHCR91EwmQsG6SM6SrCDiiKQoCTVGk9cVUEscoAqRSqdaxlGkCLeeyN2Z0ufpwd4NyiP91UXpOKa3QFiSoQpMK0zqd8t5GtNaYKMuztFtO+/cJmy9vLHifN/43j0996ghSxse1AYHSGBSfOuhgvnXRV3npuWe4+OL/46yvf4PDD/40nuOu+4EpfuhwVFT3VocPwNGDjoiwyy7bs9eeO+E3rcA6dfTPTmLPqUOxgWHosHvRpgYt9SxZ+A4XXXwBb89v4Ec/m8mYoYNQ4kelqBSiKxm61XZc+u1z+NrXv8cZdijf+/aJDB1ci7bgOA7NLc2MGDmSu//8Z8StpmH52xx/yjkoFdoq07W1/OiKa5m4/XiyyqF/dS2mqcCL8+Zz+TnfwRdLRhmk0IR1KnAch2xlJblcDoPgKJfDjzuRvY48hWEDsmAL4GVbuw8kNRMTOiARid0hagFlNKwGbDRpDy1nA98OxhBj1RZweccZgX3c+cJSkkG8hXXh0Fqj0BQcaEk3ktMBYdX48lMqAmNLtoiJJnW3F46FRJOps0Ud842FY846j48fcRzWD2ihlrQYAuUgjsvIrYZhAp+dp0zmiKMP5sxTvwy/+CVHH3UEFnDi7o4dHDexofFbKZdCIGGHKqURUQSiufbqa7nnrgHYwmoe+89bvPDR2TzxtzE0rV7MrGdf53OfOZ73Xp7Hqcd8hndVmjvu+wN77zIFx+axKoNxUiCCJwGeO4Djv3QBLXU5Lrj0Ev7x1IPc94dfMG2HURhjyHoOjvIYu932WKlkVVVAOpuJwpccHK+WrbbakR132B7HL4Ar3HXrzTjZNLtPGhXGORkDNkC70FBfzwcLFiG2Hw7gaIftdt6V7SkgCEZ7OAjFmqpJofiEDkhEYnfQsetL8etHZrHV4Eo+OWWnPhlKqJukWNCwt61MvYqESYEr8uEh6J8tR3+T9Q5hi6sgEccAQujCyyio9hzebyjAwEyviGUVV+SMHxaQsA+uSHQ9qh4fh9iw7l1JsdC2f++5VSWshwnjJ8P4XQj3utd6GhCFIto8juPx1fMuRtGPW2feyn77fZx+/WrXvlAFcTPlm2+8kV/e9CPGTjqQAQMGIEELXqoKJwWep3G8So77zNHUO8PxpIl+/QZRmU6TTWkaA8uI7XbgkkuuZO9dpmEo4CqNELb8Q6moqbyLYxWnnn8xtUO25p7/vsuqxYs56NTP8c7iOg793ClkHIU14diU65DyHCqMRVQG7Wq0BOGp6Dq01K/irw//g8OOOIxsVRbxDbgujz3+NF+94GIaG5tQInz1vMvIZlL41qCVg2ME0RK180xIWDdK1szASFgvFmMtRruc98RiJvcLOHLySIZ0ZEksx3VYWuMZIVAWzzrtorg3I+LttdAC3PyP2bi+4cwjptBTHQc7tX4gUK27Wbf725aAWFjuwJ9e+YhZzYbb9xxOWKCxkxbFDdhfpSJRxS0ArQXX6/FandbaKMRAtbZ1UQHgFU+AMlZcSlgHFnAjb44lKr0leZTSKKXJ5wMaGhoYNGjQepcVJ2StXL6MlcuWUDt4GEMGD8bP53j80UfYbpepbLvNyPDkM5B3LY5YtCj+/uiTbDN6K8aNGY2fb6aqqn/bcUp8qggiBZRqvVsZG9Y2NCbg/bffQqcrGDJiJBXZNC6GIHBBlvHwQ/9k6q6HMmCI4dHHn2ba7nsxdNBgtBiwwpLFy6ioriFdWRkK0iCHbyzLli3HGAsiDB+xFU7Kw4oNLaVs5saEhB4lEYndQQRrDcZxObeNSDRrfjY25fd4mnG4TCHsA+rQ6lPZ7MzDJSKxQcH3H5qFBIZLjpxBdS+tP7Yg+go8bHiTDgrgVvbGCDYeCsLqlOLBeUu4L1fgz7uOAiPgdvIE39C7TZTkboJGlvxvAVuN2hap9Ho8JlGsBaX45ev3MGPEVLbpP5wa0SDpRCRuhEixdWTXQm9slOBn2yX6xdNiXM2hfbhDHPIQf3d9sdql42u/jPZ/KzWJh21Go6ztuPtREOA4TpskwiAIsNbiuu4aArCjKT6J4U3oLMnjRHdon2XbB/jKYpRFlMUzBoVGo3rd/dprRPdNCxQ05J3WXrplp+RAe1gsCpas4oPzv9dbI9goECuIhjTgFZqRfNgqLehFt5VIaDz0n3+D5y/7QRgYXAa5Fnfbmd+wkBv/egtLWY1ED3xCaCVK2HjoSIB1hlhQxWKt/ffivu+lL6VUGzHWmWS+9n9fXz95kQI2iCzl5Nqc4m1LToXb67ouqVSqw2WWCt0tNfEwofskIrHb9O2FJiqsh5hfsZKVf3ukWMNts7/8I+tprxvA43p8sSksV6Dl5Tm9O4Y+RmkFOjzTRg8fwoL/LWZRnUF68S6iCLtbFGbexnYjRoAplC22SinFwTsfzNK65dTRiCS3y02C7gqh0u/F72NR2P5z6/q5O+tt9xuUorXUVnTPUbTdrs6uNxGFCRtCctfrDkIZmuR2DQ1oA3bhMrjlTixlcn9Ju/e25NUHaCBlIG10n1lNwyNvcW1ui4tJVE4YYzW6XyWD8rAipejNrsaxFS+7sp6Ru02AKp9y3sb6B2nS4qJE0atqOGGjpXdElxMqRKWA1hAHoGjRjN+vbzyd+UxCwtrY7MLXegUVFla2RMHTcXxSR9dhma5NbS0Eggp8HPLFwrJlwUTWO9WuP7Oldx4zSm6QAhilEKX6TJ8VK+BYW+zBukaJjQ3OtF3TmV4vjfjiM9AOiOp6RDtGOWse/J447zrYwRZDWKpXgbJgu3gCdGVcaznASoG4AdYBtIOV8j2zrVaCpBxSpMI27NqECRKbv80+oa9R8T9J2aWEviN5NO4uffxkpqQX7xtxRm+cvdEH6qyD0OveH0QpQrEFYsmvenLxa7zufPVhHvtoDsbRrZbcXt4NRgwqrgjTl2bUkoeEHk5sbkMFKQIswZZmMk7oY9bVIyYhofdIRGJ32ALnC0EQ6bt8zo1OJMYj6kWR+PKit5nfuDTcdAsiCunl/SDF+KholH31wKB16yEo47rS4uKkXF77cF4Z15KQ0J6+vr8lJIQkIjFh3UR16RY2Luae2Q+G1avj+1dy9hQLO/fGPd3XBXzHxxEDnkdOOzSjt8iHlt5iu9rBTJiyM8/MeQHfAcRpLdydkJCQsJmTTPMbwBYzTwi8l1/GdbP/RF4ZbK/6ujd2ynMW6A5errG4NrQrWoGMQOUWcxL2DR7gVmUI0gobB+dCcv4nJCRsESQisTsYH/w8LQEsbG4BUyDT12MqJxocT+NmPRQSFndViTrpbayAUg4SVmpMdEovYK1FFFixyf5OSEjY4khEYneQAKth4cpmXluwiAnbje6d9nB9iCgIlIk66PZR9soWjuelmPfGPOob6toKluRQlA0LCBZUb0d/JiQkJPQ9iUjsBgUvjThp8hKQxmVQVshKoa+HVT7anyWJRiw/HWSunHRXtLmeAAAgAElEQVTgsdQvWsHCIIjVS3IcyowCxCqURN2MEqWYkJCwBZGIxC5ircU1DtYocqkqqqUQ1k9Tfl8PLaEvUJHjtxfEWqVK4aJodvSaIjKhLIRFiIWkw31CQsKWSCISu4jWGqWhRcPfnpvFiKo0GWU6qH3c3uTQfpbpqMhJ54m/UdK1qey0Nv7r24i4jcOYEzfw7r3RxMZDt/R498HOiMvfKKSsNQo3FiTOYE9ISEjYwkhEYjfw8QkUvL50FQftPJYBrgOxIVGpqLpv6a6N+9m1/7ndqwua0ZZMzr0xT7fmqpSIxI50bldfMV3Syd2YsLszpnWhIitTL4rEgPC4Z0ozbONXT27belDF/8MFbtbyKTq+iSUxISFhSyRpy9cNUiqFEkjbgKzjowM/EocO5CnWLLFuAV0IQLugU/gaNIWolr7TRjZqAGva/kJKuxO3NVX62qJcBa6mKEDL5XoUQAUo1YxnwETNAJzu1NYuWmWCSGeGBaF13gGdA6Ku9vGsrAQkQIsGR1Cuh8bga4PEprWeRrUL+FNO3IgOxAmfAUTwrAXb2rlY65LxFM28hG8kap/X6eeyqGJ2CZVicAtN/K/wKuP1gSUtcDTImm382hKv17Zt49cVjatAiI4RDqhCl7vyJSQkJCRsOiQisRsUgIICX3usyAxkmeNQ54bzbW0aXAspAJvGuimUCMoaXGMBNyohY9aUC2JKGgOn2k3gJYJBCTZsuQHWB1GoKAMzFCIbQgfKzxeUeGhTga81DqpVR3X0+TUodU/nAQPKgFShlEXEkvcccjpNLvpEG9ONckEUWQX1otAIOZ0lr8Nj0Rk6awnSAKpU7UFpp14BWgBPQcFV4HhY3drDOwphazUoQyQQ6aLVcc22XFsxmj12P4Cnmt/gMHUgvlJYgbQYaN8NZ43tjX5hBRwVNjtW7YTo+vaRgCcprNKRJdVglPR615eEhISEhN4hEYndQGw4fVcozcP/nsMbs9OkghxBoY5Ddp/EqNosShQKIXA0nobhNQ4eUOqsWwOlQmmgIE2UTVn8ZNvPCxqrbOh2FhvavaQnTIlrir5Y3yigoBSexGJq/Wsr3dqAUNQJCosiZ2DJqgJGLAVtuffpl2g2hpxtt1SlcEwt6fwydp+2E4F2WdHiMHtZjqrObm8ndYyWNT8ainkBZRFxaXYs1XU5XNHMXp7DaDBaYWnrAS6GBBTd9F2l7bb5GFZJDUsLK3l5iaWgDUoLY/o5uJ0RoBK6yDOEF34sEbtiDNS4WBQBIDgEqnOPCQkJCQkJmx6JSOwGaaDWwOn7TmGuCShEYsm1w7jtw4APXnofX6WoNDlWpatQuUa2rvIZZJoRKZmSpe30bJUiLQEVGk45cDqDXTBGcFGUHiolYfKCVgWMD7VYVI81hO9AMriA8rG6jqVNTYjyou1wsOsRJyKCEsERYXFLE39+dh6rC4acTrPSTbGw3sWpqGaZKTDEHcind+1HbQeuU1ccPAbjZ1PYmiHM+cjn/EcXIGp9btYQ1UkrnhZQHfWoVgZUHrE15DMtjFm1hG/ks1z66PsEjsJosI5CCThao6Q0bjQ0K1rLGsd87QOOY1VDLILRDbQEiiBTz+x6g3EbcJwWdkh/hKdBa4Ux65Bs1uBKwCHbD2W37UbjWEtOpalY13fakbWKBlexGsXI0dvyp3/+m9GH7kO/xO2ckJCQsNmRiMRuEOjQ3bj3qEHsLUQdGcK2xmePhYChWMKfm4F5H67ktXcXslL6IRKsfbkqha9cCqI5746naVQpAhPQ4RxuPdLSwtbLFnBti8N3PmxCFWyHcYLSlaj7dloqDCFUrLIFFqe3ZrdfP08/qcZTGh/TqWVbJQTKkjEF9txhBAMGphhsAnYLmvnkPqMYN7AKCMU3xkJgQLXfT82I7hdaw4akuXavynCoZfB0rq2ZjAJykXs1O38A7/08xTPH7kjggNVhCGks1eNcklK6lCTbwXa1APe+upR3K7fmirEeVg2g0TfcPitHfX0dmUwWY9Z1fjm06DRXPrqQlkeXYbUmJXlyjrf+8QgoLFoJogO01qR0FQeP81i8cjWjBvXr5IYlJCQkJGwqJCKxGzhEaQ1RAoOgokzP+N9WsZABpowawORRA1hfJcXSnOfP7LotBQnD4zrUYZEolTffxHn8DkYuWUBjXQ4lax5S02ll0pG7WtDWI5epR8Rw1Sd2ZKehw0m7oTDu7FJDf7MwolqRccERyBKlQMTuayHcYE9HsZWlSslFFU9XBw2YMiXqdKQ7FaFxTzthmzYRi0MLYKNjHSXgrOX7QPe9zhEuBi158n4jsW+7wnU4ZfrYtSvb4gYoRIVJ+EdPGYshPH4aMJ0ckyom40RZzVYxrj9UdXeDEhISEhI2ahKR2A1UHLemAK2iZIUwaE8BpakjpV64rrTu61+9lj9EwkisQYmlOeOTG1DDWdN2WLNUY8TabUtrW0FbXBTP1Gsee8rluPHD8KzgaUUn7E/tUG1X0ZGuKQqW9v7LkrUpJ3TAl6ssydpEkwMpcQgIUAhafIgeERRSFIldXWxn0VgwPhI9bkRJ9FR1wkSplCpmXA+s3cCBlB7HNlncCQkJCQmbE4lI7A6qg/c9PVGKrH3aV2BdQRsLYlEFQ4owls7tKJ6uS/Fia35fxKPG9+nfVEe1bUH5CuWmwOlCJnX72n5ro4slWXqVaBsKhLGL2mzixfO65P9uR5zJlJCQkJCw2ZKIxI0VrdY+Bwv4SpFyNMrVKMfFhTCZpKPEiA1MP1UaRFtIGVp0AS/l4uDj4HReY6zLethdesuSWPogIFAhDhZLQ7bkI3rjztwQa0EVqz2WiPVE6SUkJCQkdEwiEjdRHAiDymyoAIvheR0Jpw3VL5F73Yk7ySjVdX1WDi3SS/qmzbYqUL5i9t/+SXrEoFB4ad17Wkt1PlN78yau86jQ3SkM3knWSERKdn1CQsIWRCISN1EcaG24EckYS1gneYPo6PsBKFFoG4rEuEvKlkJcg1JEcLQGDf7yOvpPnRi1WeldSkWitVuqbmlNDysegTLERyqlojqhCiM2tJ5v5Du8rt3PGxyCmpCQsMWSiMRNFB0AaERpBB1OmdJxJvT6El/bsJbPWiUUtKDw0FaHE7M2bHiHl42P9t55a20kjHVYD/P1F1ky+0kGf/aMSK2Hn+tR7dDBcZAo90S0ai1kHhsx1cbt7u4W69yhGqWcMLyiQNTiqBxoFILjKoyyBAacqHPkxkTYHNIgBFRg8EpqKeTI4OORQXcj2SwhIWFLJhGJmzLtsktF245F4gZau3wVoESRCjQKXSwSHdpy1l/MOhZYnWF9eS1tl1u+sMQ261FhMWuRcFucj1ZhFq1kxD7TNtyVn9ANJKpPrqOqAj6US/5Iq+XWIlht0aWxnRsBeSAH1NBEI1UUSNFCa8BsDfWkyVNPDRWUbU8lJCRshiQiMWG9WBSLli4mq1I4olGYLom5TZ3SnJuwXbUmq13ErK/yZRlQCr2RJ8lsVmwCJ7lgqKWRZipw0FSU/C0UkNVo8tRSR3MkExOhmJCQ0BmS2SZhvQTK4bW3X+fwGYfgWgcHi46E4haBily9sYvXghsINp08YyX0LaEjIXxYUXhtBCKEtVnTaApkaaaCLC00w3oL+yckJCRAIhIT1ouhkYDAEQZma9EKtFLojS0oq4xoC070cgE8aHHBSWbahD6mASFNHh+PtUUHK8KuOAYHQVFNQ6+EaSQkJGz6JKaQhPWiCNBK0MUsiXg66mycYecjuOLWhJ1bbu885VjC5B8t8djCjFrrbTlCOWHjppmK9WYxZ9AYHBwMecqY65OQkLDZkFgSE9ZDWOxGrEWIu8DEDeFUJ1+bNmvU1i5ty5iQsBHgEqz34UoX/7e4FMo9pISEhM2ARCQmrIdWx5TFRnF5YdmdLcVnFVss41dCwsaCoPDxqKQpkX0JCQk9TjLnJSQkJGwimOgVUwMEUdSQIkfQiWVYNE7ibE5ISOgESUzi5kBZLXpxQzKFjk8XKfG09vC6u5IPo8qw/tYFt/9daWRl5EaX3vY3h+uMi6O3OQZblOs7LgzaS6sTFfVE77ud3Bz970Xv8lEecwUgpIAWPHwaSZNBdSgBC1jSGFrIJiVwEhISOkViSdyk6Y3meAqwiFhUlLBSLoEYL7PTkY69JBJicRiWvxFsvhC53HtXNKzRoliBSGfTfDYfFIR9y3uBsIA6WBsq8TAetfeOewGox1JBHRkacDA4GNI0Fq2GFUAdtSiEGurJYwkIk6ziVzOCxRB2XXcTO2JCQkKnSCyJmxxR/q+yUcpt9B4J501ZU/dv2JOAAxTQGFzxoj7GUau/2MjY0/R1rGM7NaZUOLUGGtJ1zcz+218ZM2kiTjbbYbJAj6TrdLAAidowFpNmBHTcjq8v91mZNJNdSzcfjYPywe0FoegriyiFHxgULp5vw5YlYV/Ksq+/gKGaJpqpQJWUuWmBkp4q4fsClVgM1TTg4xGUHJgMAXnSFKiisuyjTkhI2FxILImbAXG2rVOmOfMFeZc5C+fTz6nA8UEFhIFRoTbd/F4doAXSFvB9Fq9exfj9P4aXTXdvh3ab9vLTByn0vajubQSMa/Fb03XLlki/sGE1/5s9j5GVA8mKhpTqtbtmA1BFI01UInhkCcvWpIBa2pawSQFpHAJS1FOLxuLh4+GjEBqpxpIindzyExISukBiSdxUKQnLChxC95IKxUxPs8pvoP+A/oyr2rrt+jePCjdr0m6b4n7YoZsT8jYAG6CU3uL0WZ8jsPrtd/lwxXK2qa4FHET7qDJF2eV8n6aVdRxyzCnRb3rnhDdAijw2CmuoWs/nc9H/VYQjLFDVJomlisQikJCQ0HWS+8YmjigwSlAobBkmMBHhjbf/hwikUVtgkkQUlxZvtxEs4au34uISShBY9fZ85hfy1EyeCjiI6kxOb/cwChwrpNfaz6RM6wVcChg0Feu5TecIezTngfrod6FlsfWV3OgTEhK6Q2JJ3BSJLXgBpAqQenclrz38JDtOnwa1PRtxlMvlmPvUc3z2oGPwUoockLJR95HNdOYp3SwbBR0GCloU1CJoq0KXuw86Da2+9/bf7ulxabQokDjLPLKeadO3wj3SyrYDT2z7mE0Vx7PGH4xd/MUvdtxHR0RQSoEIVQb8TLqYVRKo8nUPUQhKwiLyOSBrdKt7eyMiQ440eeqpYaMbXEJCwiZLIhI3UVrQpJShuV8FT+y2Dalf3ciyy1YxY9wkqr58CowbBYNqw5oygYUKB3IFyGqM1vgiOMrBEcirMD1FAwYfB4tCYbAsyAg5X9OvchAOXjgZax+DxUgfVIHpBUrzVgSPQGtck6c6aGbZy/+h+v0lqGWGjw47g+GP/yQSbZGlSVmK5XFUT1ufQnOmRO0RfcdiEXo7MrJDJBSJEOVUBWBT7eReqeE1Nv7FgivabeECoj+1SSDS4XcCQ8UHb7GUHHhNkEoR7ntDOdSbihSsRpMGxOldCeYR0IShch2WzAxQR4Y0+d4bWEJCwhZBIhI3SVQ4gSqH6q234chbfoptakA/Oovn7/krdddfzdBtR+PWVELgk7MWN5th8icPgJSLIwpHaWTIQNhqcCgQIwuPo0xxctYI1Z5hAEImCEijUQWJagZqlFBs1Lc5EZe2UYCsXE56wSKwFqVc5M/3MdBL897s2axevJDhEsvrEoVTNuUsoaM7Co4Mo9UkFI19iCpJ+DFEtsBSS+EaX2BNpWUBB2wky0LNqLAKfMIbVaoZZv9kJu7dd/DxM76AraxB8KJM+/Lsc6ssSsL9rMoQa2GAxpKfKwm31QGaqKaGOlx8fJyktmFCQkKvk4jETY5QhHiRFc8qBWkXJ12DHHUgUw49AN1cIHj2OYL330fn84in0L7hiXO+guR9XOOSdxxqthuD+7FdCBBco9BWYTU4kR9ZRHi/ytCvsY63HnqQdPNz9KvTFNywj7NjYE2H4uZAmJAiCoL332Xly3NQuQBp8pmQX8XgsROomTKZoTtPBGnv6IwsPuXQznGpo0gkOhIKdtvXLRIlGpoTCjqtwdFRtn37ccUaqyO/tA6tkZEnH1dpfEIRVaXAWVZg0b1Pss8HyzBTJmHTVVjx0PigyiOUJYr0ba2U2bMi0QeqaSj+3Eg11YRnkQJayJKlhToyRQHZnsR+mJCQUC4SkbgJEyZUaJAsBSfUK5ICqirJHPmp4nQmhJP43qefhZMLUH4BaOKd559nyT9fwNUuOW2xWrCOj7YGlEIrhWloYViljyxdTP2KBlRzBt+1oMISjZubSFQCjgmtWApFS9UgPnbjjXjDh+JXpqn761+Y9d+XOPgrx9GoddTxolUJxe9E9bxuy6PIeeBpF4ONhJFCpOfFS1fQcRhhQ56M37o3hLYt5JS0lvdsu3NUaAk0wkcvv4i/fBmpXAtBqvV7y9OKyuUBo2w9i8bvQPXIUWQ8l0AJFWbTPQcdoIFqqmjEwVBBE/VUUIWiGsjhICiqaaCRSrLoYmhIjAFqqSNPGjeJR0xISOhBEpG4qaJtOFEIqCCM1yqGcLklZf8EAtOCchVurYep8TCSxZUqRh12KKMOPYwUChO7Cx0bJkdEcYoLJM9dM7/JGceexO4Dd6YiSEUFvMNGfXazdDfH/ytEGVwNOCm0dlD9qxhRyOE0NFElKXjykTbTspKS2kA9bN2SIQGDFrzKkkGrcf47LExbdQDTcdHpXkMUks7y/i/vYNGyJQQa8g647bSbojWsoeTLCIJSDk2Oxkml6D9sOAUHWrxwAY4FUi4mgK2/dDjjjjgUPWIEhagG4KaMR1iepolKaqjHJYhqI1ZTRVj7sIUqFAFVNGFwaIrynV3AR8jSBICQipr1JSQkJPQMiUjcRFEdvFft/0AoeFzHxZcAqy1GCeFhd3EcN5xilS6GxWsBP6q3KMBLC94k77joVBXpdCWuFya0hB/Wm73dQmwBg0UrECs4K5poeOcDlnz/GhbqLO//7V4GDx8WxtEpQSTu8azCUID2y+v+SHhxtGXFQMXK4YrnHryVJk9R0OBa01rMcZ2UoUQSQBDG7e00fgL7fPogcKI0504Z+EKXOSryUY/ZFnbYAVyNOLZ1JXGgo+eB2HDZxqJdjajebJTX8zhAFkUdtVTTgIOlgiYaqaASRQWaRlL4WFwCqqmjiUo0BarwaaYCwUs6qSQkJPQ4iUjcFImsePH7jo5iPGk6ClBeMezd7ehDpb8KC7ShojI3/6t7kwlbb8Mug7YlZQ2q4OJqG+Vq6M2z2kap3lKRz9MYsAHv3/4gI32H1KjxDE9n2Oa6nzFwwngEg3UJaydKlPTSft+oNRffaVRAv8qP+Nnvfs5Fx57F2ONHgnVBdNQCp7Pb1cOxe6KIjae6IgUVXmRIVZFGbLs+iQT02vJZ4v9LPdKtn/WjJaRwnda4Pas3/TqAHmHSShOVVNGIS0AlTTRFbfQqAUOGJgQncuIXSFEgRRo3uZEnJCSUheTesjnQk0JNteo/LCgRKtMZsqRCAbQ5d1pZFzo0r35w+B7IsIF84sTjaVEOGYS8CDrqvuKx9u5+cdZu9/DxaWJFQdGS7o9XPSDKalYYZbogPMtTFNqIIKo1K7xY7VDaucKjz6xrP7Q/vVq3rTW/N66Y07slrruPhWJ6iqa1M0opLpBBU09NZFE0VERt+SpRuEDN2p4KExISEspAcrdJaCVy6zk2SrzQsKThI6ryBsSgIquRctQWJRStIhRA4vKxCy4AR2FESAkYrdAonDgpg7XvFiHUmt2zJGqcQFHlZklLqpgUYiEqsN2phVCONGhHqTBhIqqVKBLaC0VAte9KEwUkrrViTYnQjHdk+4926FnfyM/FFqCCZiC0hTaR7bDVXqlFsZImXAwVNJOj8v/Ze/Noya7qTvPb59wb85tznpSZykFKCU0INKIBCcRgXBhsjF2YMi7bXW08dC272navso1dq5vqane7vKrtGtzGrjJVGGMbMIjBAoRAIKEpJSEyNSsH5fQy8+WbYrz3nN1/3Bvx4r18mUqh6WXqfFqhjLjvzjci7i/22fu3w3ByIBB41QkiMZDRd+OV3F6n7TxP732aX3nrh0hJEFNGfSaYXiFbuiVJFhnMKnB9nOdhKhS80s4H/ruRs9PVGctLEdZiMUivMEZyo+6sGMS8ph0ChbzCmfz4ReaGf42Zr+qku/8vbXuvFi+XD2gVaFCkTB1B8RimKTLAqSOKMwxQ7c3vSTHhCzsQCLyqhO+cQMY8v5x8ODAy2KjApsHNeRgsy0FUDKr5cOLrQCzaPp2g3SCqKNgOliJG8+4gAt2ubeYU2uKlmLUkNqVjHWkuwfo/vK+laO8XvycN/76UvNUlULjsxWXG8UTASyvUKmNpU6FEnRItBH/aiGLWASn7CVKmCSGWGAgEXmWCSAxkLLghd2iR4BDjqGEYNGXI63a7s/pF7pinEkdnFacZL87y4Hw+S3EufzP/e+8Dtcg6Xpqbn+M/ff2TDG4ZY0tURXtZedKtE3nt6G3b9U3IxeFJzZs5q35YeBLwMTGlH2q359VAASUiZhmgygxFOiiGKYqn7LjsyBwILK+xzVEgEHhdEkRiYFEMEc8f3E+7k/Qih70oWj7PuaAHXxTdop6+2/k8zfMCKuKlaSMDomzavIlKpTKvD8iLWu8rKtAWqTE+qcL7VGU9r8C2XwKqiohwsHOEtJNi561/XlPpRWnTDcq3e/MrJQCqGNpU+yKKSp3SvIiiy5cq0kKADiUW9vYJBAKBV5ogEgOLYom468G72Xze+VTKtayKJed1KxLpSpH5IvFMeWn6TBAUVUe3beDSYzFPpYUTXimR+Mrw8N5HuO7qaxllZMFfTp19OpX/O9R7lpGSUqdGiSyiOMMgA0xTzBvrTVFiKJ93lqxdX4sSPiuNOuttfgKBwNlHEImB+QiQgLPQMp6KFjHh9rQk8N0CEOfJ2sAEXim891hrceWYFdEApbyE5YWE/jT0RF+DCkLc/UgRwbyOKDWENlUg7S1TJyIlokIDg6dEiw7VPAYZCAQCry5BJAYWRQEnLGihFng16WUd5upEvGaV5z2HxMDLRTe+2ZXe0vVzlKwL5ZlI8jYwwDQtSqREWAzl/G+LiTwBikRM5V/DRdoUaffE6Cw1DDa02gsEAq8ZQSQG5qNz//TnIC4mSIJIeSXJzVd0TiRC3ivxpCHbM7wSS+KCLYmdWBRd5EXX2qjbJ/30u+/oUMjSApDTiruUuZqeIaBJieYCKZm16wsEAoHXjiASA3N0tUfuzezzSGL3vtjVKV0Wrahduhrg7EL9XFu//LqIai5AdH5W4lllWrk0y5t7srv3/peeQDd5i8oX2mslpUOREi2qp5nbAw3mPkpZBDIQCASWHkEkBk5GMoGYLr17+euWtgje+0y0d0Whh9wfJfASWdgrWvrG838YWftC88d0KNPE56bZgUAgsBQJ2e+BwBLE53Y7RgSMMAOoV0yamd84soJzDQLxZcOTR8/J2pQfac3y1FNPEccxcoZflTVmiUlonsYVM+vMU0ARkr5+1IFAILDUCCIxEFiSzI01e+/Ze+h5JqdOsG5sTc+9uz/yFXjp9CKGmgnGtqZMTk5y2bbLSei84PIJRQQlIcaQntb+OgTpA4HA2UAQiYHAUkQNvdIGMTTShGqlymUrL6Vb1KLMjTgHXhrdApX++qBEUkqlEsYYjLzwV2UBqFOlkA8l11m8y44ns8QJBAKBpU4QiYHAksWAU4wIn5q5nR2zm9jBWlIxeLKHho/wS6e/N3cKOBA0O8PGZB2b9YVjf0VAsPj8mlSoM4uSzt8EDijRZIYBNO8KHQgEAkuRcIcJBJYgImR5cNaCCIf3HeCtb7mJjs8GMU9nTRR48YiC7doN5WXOqmnfHGcWr60CCVXqVIlIqdDA0aIOvYfkltllmggx1Zf5WAKBQODlIvyIDQSWINmwp5DimJg9jm+llEslEHDqicTOzRd4yZzUYhroF4YdMqsaA9QWmb+fIoYUQ50qJVo9k+wGFSo0gKwbiwaBGAgEljhBJAYCS5UEvIH79jxKuW1ZM7Sc2IGxYQDg1aaNZ5gGHkOdIrUXmD+LKEY0qGH7MhCzVn0QE4e65kAgsOQJIjEwHyEzESbkIpwRp3I6eakhPnHgLR6om4SReJhKHGFMn9v5y7m9c4CFfWhOxWLv696yBsR319Nt1GdQIlBHUdq5t2HhBSOKcf4gyMFAIHCWEkRiYI5ce3S7rBiVvI7WIXkrCu2b+Uy945YMZ1gGnEomC4xq/trMr37tp39Ct6VhXudwaqe8+Yv2+jMD+SbxOA7Yo1gbIzWP1xYta4nEnPmBLGmkd/xt2gz5OJvWffNpX8alY+7k9/v+LHz7LaKdF/w5b0pO16ww85qU+SLRAh5D6mLiBEQNA1haWiSlRUmbdPA0KIXh4kAgcE4TRGJgHr1+zar5fVQRfH67PotF4ovQVS5foNv6zqNILmrOJGDXtaY5nU8ezNc9vTOZb8BKzJ9+7s+JhiylkQItneWeZx+krKVF13W2ISIggnfKRZt3UDYGFAyCVY+oRb2gzmMKEeoAmRPUzVZKuZJ/feXn7IyiiALa/dZLFDUy30ZIAKs4r6TOEHlBVLAYysBxShiUorbxCNMUGTzFtjpAC8UiQUwGAoGzkiASA/PwZDdSJOtX27159lrB9eJjZ5FAfJEUs34mPQVXwOeScZHwoJ783JCduxf8cJ1K1Qi0Y8fzy+Hh/Q8zc3SaTdEoXzj0NSz2jOxYzga89xgj/PkT/51WQSmlhvOHz+PiVRcw4Mo01YEaSraEwwOWisRcveZ8CrUKTbLqY5tfqBcS8V1/wvH2NHue2wNWeMPWCygwv1LcKFhjGD++l+mC4LpvdXVUsbQoA0KZFgLUKZ4kAttAgmOAOi1KpBTCl20gEDjrCN9bgXlEgLe50GmndAZdrmWyG7Ex3TvmuSQPIeEAACAASURBVCFU5tHTwRavijHZBD/bIqlYWiYh6k5DSUiZoUkHh8PTIBMHc7lo89EF58zP+1t3muLzwc84neWnd9zIe99wC2NuNcuKtXNHmucHIh7SdsrzraO0IsdDTz7C33/m7zGDJTo+QVXxPgVVFI8vCH+0ZpBiIcJ7nwlNzYQdzA3bnwoVmOnUmZg4TlyIWbd7RW9ZgMRC7KBtYc/0Mf75he+iVqwQIWCz61oEpqWEoJRo0QKmKDKUryeLIMIQswD4IBADgcBZSvjuCsynmxuH5/rLruHj9/8ZjVaDYulUg2rnBponpYmBeuJICp4jyVEUz2h1gInOFLuP7eHZPU/2hkoBjpw4wpHxceK4iDdZ71/rM8+9k7bhzTwV4/ty6LQ3ZJr/Jw6ssmb5Ms4rrCF2FSznkDTvOz9xMWJdeSWJKmsuX8nbr3grHfWo5LJas+F+VGlph3uff4TZ2enedRCdi2u/0PlRIFXH2LIRti7bygNP3p9HEYUOkIpiXRZFnjQdju16En9hC1eKMZje5RsE6pQBKNECsohiRBZBHKSOx9ChGoaaA4HAWUsQiYH55MWzAly8cQf24TgvpljcSW4po6p9w+SnIdd86pXHHnuUh6JDTLZnuPO+u6g36ly59QLu+8FOpsqe66+/lmq1iiBYb1g2tp533fjjrCgspwjEp4lkaV4S0aWbC9dfldvdW4sSiaEgSpkIa7plt9oTqGczqh5VxZhM+sYIsdqsmMQVkO5p6h8Hzv/dvOEWMrNrRbqRbZl/Hk+LT/L1ChfseA8w54MIYJzD2jircTn/CENxDYtFRTF+bj+qwHSfUGwBLYoMUkdQmgzkhjeBQCBwdhJEYmA+HowDiRS1ylBTUTW4RTO+Xqh+99UlK6URVMEpveFiUqUpHVJRElEmE8+jex9HUZ5LH2fn099n+arV7J84xEw75eLiBtJ2m3dc9TauXnMBZRfx81d8gKHCICMjYwu22S/zMtmnulCqZOdubqj+DFDb97z7xJwN2vyMEDHztW5eMaUANjv807dLlrzHcjcZ4swLizBzyQCF/F8PFGhSoAMW6lgiIoqF1X1blHmpuMKCiKK0KNHCY2gFgRgIBM4BgkgMzMNbMB0QaxCUGRvRkizHqpst170165nFbV5Fsoy+++UQNfFUqVKnztef+A4P7NqJolgU0/HgYLBUozIjvO+am9m+/nysKkWJWT6wOhviFEOZCFTy4WjFL9DFZl4S3OlUjWR+Ky+FpXa6XwFebJD0jCLFp0AhzxrMxGKTMopQpE2FBrPU8HlV8ym3z1xEsbtsmxrlIBADgcA5QBCJgYy8klfxICaPzAgDcZVP7/wccRRlf9c5eXhyxOy1JoviPbjnCSLnWbNmDc/teY64VuamS6+lEEUYVaJUuXD9BWyqbqQiERaDwRFjEFUsBZy6PLolcwUnRk4qjJgTKUEUvNq8FIHogNm8Zt3iaBEzBMySFaQU6DDADLPUaGMpnmI93V4qFSChRIMSlR96rwKBQGBpIbr07vSB1wwloUPcKZIYj4kM3z3+OPfMPkwqJ7v++YVhtdccgyXiQ8tuILFlOj67hQ9IzMryABF9zsldTjVGqeB9FlnNayYQYV4lLOR2QWdK+KS9OF4h3e3JIogV6jgsCTEWS5nsEs0AxbznsiLMUiXK/95PG/KSlYwyc8PXgUAgcC4QROI5xhkXayy+NJ4OUJzTTtoCLdKrZpk/+9KiP6jnUjCGpNUiKhVR7xAxqLGYfqG4SCCw3WeDHcP8/MAFBJH4CvIKiEQH1FGKtHFk11WJT6pAzoRinqMIzFIj7osoJkALzwAzAKREeKpBJAYCgXMK8apnlTXvi73PvhLH9mL24ZU6twv3watm7fQ0N4Hutj2TRcTdafB4RLM2dKqg2ka0azfcx5wLzNKhX/B1z4Nqr6GgAioG4/vOiXLSobm+MeVMKPfNsGDec8a38HVAJhChTCNru0eEIVo059Dn8xb6Iop1qlgsBmij1JjF4OlQIM9eDQQCgXOKaJF75JLnTEXaqyXQXot96KebH9jTNpr9T0V+iO2bOf2kgNiTTKCBTCQuZYXUVbC9c+B6FbBzJ2rxs/PDnLXA0iYTfZn5dacX75svELM8xYwYGABmKCF4CiTUmGWGAQAG+yKIBIEYCATOUcJ3W2AeBvIcPM3F1FJWgi+WrmN29/UZKt2gGc9quhHEEq3eD7yFEcQEaAAFOlgcTcp4ssrlOhU0jyjWmO39aOpQQCiHIeZAIHDOEkTiWcrCaKYxeTcI7+d1BPlhEZG53MaQSxc4i1GyIeY4r0Xu5J1RujigiTLALB0KtChRZO7n0QAw3Vf1nC0TIZQXbb8YCAQC5wriFuQkzj3vGgSfHGlZzCr4TNGTnrBoTcSpNqiSDR29mP4f8zx7AWGunYP2Bhfnjvf0g5FzFtKi+fq6WmqRZhiL9pLtzdM9khcvxhZLJBUFPROReLqTtVj+wan2K7fN8ZKdO+m2LVuSkbeTq7OzHT35/f1iarbPpTjruUwC+AX5hREWSxZBLNLCoHQozCtQcWTdWDyQAjEJilAgCgIxEAic80RwKtF36iZXp9U9L8Ciyy4qLPKJCxfQbnOG+QudwsVk3lxzr7Xv9UKRuFAnnfyqf5u64PkZnYfeQme4xCKznWopOdOuHqdRwtp3Vs7kqLr9hk13ziUpFPuvVuD1QAdokn3JVQFHiQRPnOcXTpP1Ix9gloSYJmWK0BOIXbNt6fuwVII0DAQCryMiAJOCs1lEyJGS1bJahJOtPxaPsiRZGM0X8sBYCuJgoQWtniby4sEbl3WlUDDSyXcv61SRGIicAxGMGAzTOKpo5n4H3uEkE5AGcsGSmUKn+Sa601GbH4dm++ks/flq3mR+eALgO3iTW8IodMxcfDUia2HXVUdGwC/00TvFsZLMHV7v0W3m26U73fQt151O0jezxWNPafnXr7cV5vWfnbug+caNp4knxhJrhJcGRipzK+g/DD+3a73IZleLLTULxVPlHi5ywhZ6IZ5+vT/U3gReYdpAksvCFiVSso+bp0I7jygOMIPHkBCTEFOCeRHEOlDJh6mz+aqE2HEgEHg9Ic6f7JOYCan+F3N45t//DSA+/7XtU7DgxeIxRKca4cvpDs8qkJpsKCfzpDN0gEL/aGxK1tNVwAlELhds4rG0iXwZJ+AFYp/v2CmCoYmByAPeoVED3ACJUbwoZTV4qaM+wppidrCmnZvuRhQ8GFNHMTjKma6UJBvC9gYWRPL6X3XNp7Mq2wjSBBdZ1JjFhYl0B8TzM+7s/OuSh+28pHSrkrNJC/r+KrTt3OuicyAGFcEZ8OqJNNsHbx1GbS7y08wjsT+o2D0WlEQ8Rc2uh88uT7bbapClZqx0ytDrItOCSDyr6UYQh5hilhqCneeD6ADfl6OoCB0G5/2knQIGmMHkn706Qyd5KQYCgcC5TnSqUd4zv/n5vvQ3zUJpIoADWVgXI71/MtuWfFZVrGbCxavHCFjN12UzZaima/GSR/skk2mqYIiBFBGD0YUZiycfiMlzCVVcvk6H9ZIJOgO4uG9fFTRCgEh9Ngyr2d9NN0LnBRGbHU+/B1//OQVEuxHLfB5j8nOX74fYvpm7h6pz65A+eS7d6mNFfP6vLHLhhLmoKYIXcEayzEvpTpVsO6J94k5Qtdn03jh9//C+YL3gJRuaNup7keegmwKvFd0I4iB1GlR6nVT6sWQRxU5uli0oSR5rjJiLIBo8HkOHahCIgUDgdYkR6Pktdx+dTopXXbQ44mQcKtkwMFEEJsaIEmVjwPMfAknqeuLEA4kDRDE+xTuLEQFxWJfmas5D6sBmqknVAw5vUrxrEotiJALxmLSFlW6KeQrqFn3YNAHj8cZjJELwRE6J1WTD1aaQ92ODjuuAZgbMkXOIeCBGNMa4bLjZSoRIhBGLGJMXcGT/ZsPnBpzJdslng96qCsYi4hH1iE/waQrqEdFsmvrs+L3PFHUu5DA+j/Q5MnFoETFzw9X9WrE7fJ5nGXogEQPqUNfJ4o8qoFmHEvWQeIdiSNMI7zv5eua/GUQhcoYkF65WokxsqixeVRMIvMJ02+TVmGWWGhAvapQNmQ9iRLnnmVijTossB7HGTC/K2KJGKQwxBwKB1yn2Y7/3sY9lFarZEM3fPLyfz+ydZsuGYUZOca/Xec8dDstkJ+W/7nySePlyKgJxquxrO6ZTz1T+mE1SWt5R7yRoZPDWkPiUmUaDUrHCo8cTHtlzlKEVw0jbcajTQkslnjrU5B/2Pc+OFSNEYrBqManHSoUZjfjrRw5hjVIbGKTZNBzvJMx2lJkEplNlKlWmU2UmVWZSj4sKYC0HpjrcP5WypVYB6UAEadvw8W/vpjY0yGgpwnrhzx44wpQXVo2VsZhsAFizGMO0sdz+1BEeOjrFhuWDNBOlnnrqqaeReprO03Ceuvc0gU5kMr2Ywn+8+ymGhgcol4sYE9E0hpYaminUO45mqhxPYH/bc6zZxtqIKI6wYvIwbEwjEe7ctZd2qUq1HBNLLgWzdil0o5aRy2o0rVgePDrNHbsPsXr9cgYVrHr2aMRf3rmTQrVArVblr+/fz5GVg2yNozkrHN9X1KJZekHkZ+lIxFfv380XpuDa5S8Qc3mh0vFXihcz3PxyrDfwqtKhG0GcoUEFQ0RlwTwtsihhh0wkGsAT41AsjhJtLJ4Ih8fQZoByuMCBQOB1TNSNOtU7sL/p+LcPzLJm1XL++LGUyKWMtutMR6NZ3p208+KTBJMmbBwd5mc3K85EPLS3xd+PR/xEJJSM5dB4yoe+eYLBmcO0klm8tDFEzBZHWD0Y89F3bOLWAcu3jiV86st38oH33crTbeGppxts2AG/88BBttT38f533siXHp9gMmrQEsHiKaQt0Aisp6mWr+45TK06xLKVIzz4zHP8/g9muVImaKWGVAqIJLSnO7hKkUOuwR+8/c1ct2aYZw7M8AffmcF8ZJA3RkVGPXQc3LF/lksujLjIwKSDOw7M0KlWuIS5FjVqBEuBr041+cQ3fsA7briOuO75X7/xDEfqHdq2SK0j1ItZJNJqxPYRxy/dtI0xC7Ox8I9PH+NNF6xlzMF3HznEN+oJs7Md6vUOjzPIUHua6ZkjIHVW2JiP3PAGrtq2kuUkRL4EBrwTnnhqnD/clfLx923jghiKLiUyJivW0Cwg6zQGn+UXHGi1uevZca578/mszvM4Jw18a98EI+evZhS4Z/9xLrp8He9SSEWwmtUjTRnhWAQtIyQmwjGEijCxZTN3PmR520VQILsJ18kilzVgGM+IJxO4dKObi/BqFyCHgueznm4EcZA6MwwQYU6KIDYAj2OABjMM0K03iwFPOcuBptOLILapBYEYCARe90SQDfk+7+ATX32EHRvXsnnlIG52Aus7mE6LyKaIpBhJSAQi74i9o+YLqFQY7wjfemg3N16zhVSV3QenKZQH0VrML9z8BkoVg+aFJHtT4Rtff4LEezywfmWZHVu38eThSZLBUdpRxO7JlIkZx3tuuZGpBO7Z9RhX/8i1nJBMtJkoppYI4j3HvWGCKuNS5hhwoCGct20VP3fRJbTTTAABWA/jCfzFHXczk3pSlB3nr+TiZ2b4xBfuZPW7b+BEPWXvbMRMocyTs46xCaHuPJO2xN6O8OgkbI46jNWynMTnjrb41F3PcuVFF/DOi0rYBG69dBPTqdARSzXxzPb8NIRVZoZqpByYavB0GjNZGOLhusFVlFItYnu1TLymhNgC408e5op127l4/Q4GYhgU2FCACq5nM6MeygXD+99xNXfdeYAv3refkevWs9Fm4/mK4sXnmYKGRqocOFHn6XrMODV2TisSeVrNFrukxIQdBCwVBU+BQyfgAdPBSMqKSpnVkeHp8Un+893P4gpFaq6FNwmeKm0X46jy/33+KNYr1mXbbxk4fyzmw9deiIkLeTQyPyWLvCHDbTnwYjFkOYSCEpHiKcxzYWoBSkqVBnWqFGGekU1WA1YmQXEUUGwQiIFAIEAuEmfTNn969z6eMjU+et0y1lctxc4Kih4KeRVx1/JlMobhDhRwDBUVJ/D13ZMcbMf80vJhdh5v8cU7HuJt776RQnWSH10xAJpiJEsXf9DFPNaZpuw9qUL9cIuLV67FD5T55vGESddk2liuvWwjo2mb+4+2mC0Kf/f953ns/qfppB3q0uGt61dQFuGh58Z5rHk+M/c9y/ceP8rG1eczXE7ZTptUFfEWbzoUKDAeRWx0Hby3GGAsTvjodav43e+1GBfDdx54ijuPDrHXp3zyoWe43aUUihGPTaQcbCd8+9mj/NS6lA9dvZ0DUx3+6CuPUt6wmR+/ZhkjbWgW4b0bBFWDKljvSSJLKlmWZM0P0HIJn7n/ET41VebJVpU/e3A/28cq/Jtr13GxgImyKNtD+2bZPjDA9ZUS69IOHUpoB2wk2G4xCaCqjEbCB69bxn/+wn1svHY9m0VAFK+eRBSLwSCMNxP+9M4H+JbbwsGZiMlvH+JHN8Y8+uijPM1K9jVLFLww5MAnEZ/5zjEebu+j2pzgn978Zt61cZiDaYenCiP86C3reZNmuZ8FDIkKqVFUx/LUSGFIlQlRxiIhjizee2xf/PBUQbxwew68GGLA5YUoZZq0UGYpMkAWQVRSKjSYpUYRM6+NXlbokkW/LZWeK1UgEAgEcpH4id0tjh07zoffdRWf/cpu9muJlnM4U8bRYJnOkKZKqTTAQYHyxAl+759dyQ3G8+SM4388e4Dt119Gud7kL+7Zx1u2bmJ7UWg1V7GrqVgRUhyDXtnjYTpehjeGNHV87fvP8/jRaQ4XLd+eLjJkYP/de9h44jDRNZfz+LEWuuGN/MEFQww7+PKz43yFMjddXKDUTtg4OsBzO1Pesn4j129Zw5NPH+K/7Eo49OBkFr20wolWTHG0TbMFE9NDXEcBUIoCl4zV+Ny7Lkadct2NF/ARF/GBT+/ll2++gpvWVXAJfOxLe7hi0yjvvmiQ9SkcTeGzdzxEYUONP37TGLfvb/NHDz3Db777fAaLRWzXfse2iFsV4p5Bo6EcF/jQzVfxVrH83F8/ym/euIXzBsv81df38LCbxWoBa4o80BjgwUNTfH6wQZzOUC96zmsc4SO3vYXL43Je/JNi1FGKYpZZz6GO8Id3TXPDdRU2xTFGEiISOlhi71k3YPjdn7yRL+07zt/fP8mvvWsNl7ehueY6HikX+fhf34cXYSaCOJ7hI+/YyoeT5ahJGS7HlDwUUmWFjrNlYBMndu7jG+0RnAht50msp5TW8aaCN5YGKTcNK9svWMkAc8PL/XU1p3ApCgReFNlP0CwaWKKFxzBFjM0jiLNUiRcIxATo4DF42hgGQoFKIBAIzCPCwwc31fiJzW+k4Tx/4Sv89q1rWVWMeeCx/Xy3OcTPXLmFAZQahu8cnOC/3nGIYiR4TXH1BqMTR9h/n/JLaZmR1j7e+vabqbop9p4Y59/e3qTZmMSaBMUywXLS+gyprKYcW9538xYOJvCJe/ewvKPE4hgdG+WfXLuOTjHiE988QGfdOi7aVGA4gfv2pWwbrHLJSAGjKcvHaqz6wVNsXzXG9jXC0X0J77mkym9tPY9EFSPwsYcm+NVLBoms4Zmjx7l4OOae44YHnjnO8fIQVw4e5bb1y6lJSslGRDSxJFjAakpEk5JJqFgwpIwg/NTVW6itHOHZTsKXH3ycDVs38/xkh4dtkWYbMCCmgmh241HJTvZ6O80FK4apJrC82Uacp1QUPnjDet6No6CCYvj3O/dx6aoVXL26zDJGUYGSW8eyYpZ4X/QpiORp9oadz6csHxxi756nue+8NWzYtAq8xfoCLmrjrSXyhqEWDKdKqZkyIlAsQaVUYthBKVEgzUzHtUQhhmVlISXG5pXTqQEnWaX02gHLFWJ4pCPYZbBFhKRR4Rkf8/cP7GPMNvnRa1ZRzvMiF4ZolprfduDsok0Woe/mwGZGWBXaNKnQICXC4vIhZntSBLGNUqOei8SB1+AIAoFAYGkTQXazT7zlkYOz+GqNC0ZiisBNO9bxta/u5tv3Heef3riN1a7F9yOPGMm6F3jP6hXL+Ff/7BYONBL+8BtH+MhNN7O2LDSnHStWjfLhW5ZlokPA4TnYNnzlCz/Aqyf1yr7pFrff8wNGB5fxE7euZdf3J4nrM3zzO0+wZsUljNXKPDk9waRfzlgsTE9MsmXLKiJN8J0OEpVAHA1gOoGO98w0WjSameG1As9PTDLdKFGJDasHBkl9k2OTBQ4dO8E3Dz6HbIVrNqyko5YJBWeLzKrhWO4n3bBFprFMpKAqjEaWreuX0U7hT3YdR4oxt14ywLP3Ps439rbwuQehIeFwUqbdbDM6OMSgP8DFY8L5t92IcdDB8MChGb5/4BDv2bKOdidl1+N7GBtdRo0OK4fLWG2TuAS0SLVSIG1DVCK3wMmsb6Zannt37+Gai8fYNl3kW89P8L5Nq1AEm3fOETG9TjGJGOrO86Xdx5kugS0KT2jEbN4uRoDEGfYcafGgeAq0OX/lGBUDYjKLm4LApeevZ21HePS7+zk4kXDd5RtojSrf+u4+Lt2ykg9etYKbq0Klz+rxBel2bAkEFiHrpexxKEVaVEnpUGAqb6lXApQyKUqUF6GAnZeD2I0gDuYdV4JRdiAQCCxOhIGDB47xRCPinsMN6sbwyHPjxApFhIt3bGOqPsE9+5qsTjs8MGmYii0797Yodo6yZXONzRa+c9d3uGrjVn5kdYxRod0sUfNT3JB4igZEHdDioajKIxwnZgNTTcff3Xec9du2ctvaGnftc6wcSHjrFWt58pkqO5Z7Ltq+nd/5m2+x//gaRsYGOTYxxU01R8tVmUmLPHci4YgU+bOHTvDkuGHVwBru2H0cOXoQE5doJcrOeomPPzRJQQx4w+UDE3z0jdu4df02Kl95iFZU4gu7xnnwkb08H9V4tjXGXz5wlE+7Z4hcie81KzxUn+aruw4xLNN87MaL2DBW4/bvPcV/edrxq29aywaBy990AbdcnuBzl/Cqh/9r3PDMo7v4F287nyvYSBob6k3PI7v28YipMbO/yTvetJr//tA+dk05rtuwnK0ra0QnWuybhLvHxznWPM7+6RF++fIBbt28jOEUiJuIK+GIuO+pg9w30+ZfbFrN8tk6v/hdyyMn2mwZKhKLoJQR36GpsGeqwe3POB5WkE7EQC3iy/fv5lh5FU/GZSAmUqh7y52PevY2G2yInuWf3zbGWBGMiSgkQlEVq56RYsQvXbeBu/Yf59995yj7pyb5jZvW8v6NQ6wznghB8wrqbscZyM24RRYfbg5JYYFFaAEJnhqzNCmTUCDpiw92n81FFLP2exFt6hSpkUUQO3iq1FGEJBhlBwKBwCmJAP5h7wR372+ze1zpDCznr6b20VJDmyKzxVm2Jcf4whMtfEE40BjhcKfM3z2wnycl5V+t6PAfjyl/V1/Oh1YP8ydPNliH59JNVdLOBN9JYbl4YlU6UuRZ4LCsoIVltGz52evHmFT4i/uf59HjDX7+ts0802yydnWZ86sxVTG8WZrsOjDNc4UaEyuGOK8SMavwZw8f5Is7n+b7uoaffbPn1gtGeWLnHj54RY3/sG1r7yDfe2+DP3ljieE46+YcsxKrTaZF8MbQYoA3rSpziV3J3c2V7HnwUX50x/lssStpeUvr0efZOFripvM3sqwzS2GwzKd+cIx/t6/E6lITq4qiDNNiuBxlkUQU44UxLOOpY30My23MLPDJbz7I/3vMsLKc8LvXX8yW4Qp/fH+HX7h2I29ZVaHcmOR2Tbhg0PGLF5zHKOfxW3cfI6HS6/qX4rDeM5F4/nxPm59YX2NHnDAyVuGakuf37n6KP3j3RVxqHZYOzgrP1S2/8XcPMV5byQ2jwr++dIgL1fMr66/kiQT+z788SN1AW2B1uclvva3CL0Q1Oqwgyi1wGj5hulbg9v0J/7B7gslSTEfa2HIJiWMmq8KXD1ge2zdL7OscLA5y/ajj17ZXMKIUveTdZehrLRgInJ7MfN9TY4YGVSDqibs2effMvvkjQCmR4inRopHnKBp83rNZaDAYBGIgEAichgjgA9ds5bKrhD/65INcdG3MhzdeQaJwz4PPcsdsh5+/8UpGLBTwfP6Zae54ZJxff+82tnVSBtqOiZ0Ps12Eyd17WFausmx4gHJS4/BMwic/+ySSTBP7WTqRcizeRLsxjRhot9p88d4D7JpK2dVwXF6d4a5v7sKrsHtG+W/vGmVoeDW3XX4+f7lrmql9cNnYcjYWikTA29dWuXbrNfzRt/dy+cplbB6IeHDiMNHGN/A3+xN8oiTtlGcOT/GpZyxj1QLaTrhlvbDaZi3/xHgqrsGGkdUMjA1x3+MT7CjOcNvmEpsiqHvlH5+BS1aXeMt5JVb6Eie8sP/JXfzK1Vdy91PHKbk2kQhEZRI8StZeL/ZZLl7RKmlekRyhvP0Nm7lsZJj/+3P3EWvmCWN9zKONMuaEMCrDNHSSw6nwgxYUW/B8U9hqmjgqIGCTGkeN5fNPjvN8p8PvXX0Rg1aJVfnI5Sv54Bd287Unp1h5wTCrfUrqLSsLlt//sTezsznLdx46jAdaqtQFTihM565xKdCUmCnJOlDMAlWBmoGZlmOZES6uwPo1MFkypKZEy3kqByaoF2a5bZ1nazvliFru3bmHw2kJuWBjpge7xtwS1GHgzHFAgSZZfXw0zwexmD8WEgNJHlGs0KBDIbfIMSGCGAgEAmdABDAsSqEtRO0TrCmtY1UkqMK7LtvCHf/4CPd++2F+8q2XMorHtFNGCoYRK6wQR1Qs8b+872qaBspAFRj2cGy8zeiKNXzorSVqAgWUBHhKhc/9bZvIOSoDFd556xb23TXJJevh184fJgV2He3wxGNTDA8bDAk3Xb6NP3l8H8+MT/Dzb7uEEYGWwBvXDDIBgStRJgAAIABJREFUrPANCu0S6uDYsXFUqvzp7d9ipDZESWLKQ6v59uOH8O02Rw4d5LKfu4ZVlQiwqFGKmmKNMNP0fPPhZ3jbhetZG8NAO+uoF3XqFFyFAlBRpW2FD7/3BoyFR544RORsz7vQ57l/kHlZGwEjmnsVQmSEbStHWOuhmCZYr1lQTQ23f3c3D7kWF61ahlYKHJg0PLn7EPUDh3lKKty8dTizl/FK6orcc8zzmXse5op3XsPWChgVRISLllV4281v5st3fI3L1t/I6moM3jAYC5evKnBkfwpJi1biuffx59lTtxw2o0y57CAUaKlw727H2NSzFMqWjaNDXL1hhOPTMGANl48VuGRwFa0YnEBDwU/MsHdauHXTIG9Q5c59R0nqx7nmyusxvZbWQRwGXjxtUqqkTJ1B/mDXXDsGKkCaRxQLdNAQQQwEAoEzJgIwqXJkUjneGeCOp1rsPvA0dDyu1ULKq/he2ua57+5nWIQHjic8W0/5f+7dw4+sGeMd64pI3dOZbfDcVIPvNdsMT83wzjdfyEDyPFfXxyjHEQYP2iF1A6xID4OsAw8rHFxaGOfrTw3wtelxKpVl3LvzEB++eiUVFyHGMjU7xRGrTEmTqbbSKgtl7/BRA3yEx+Jsmcc68KhUuKUQ8TQJv/ljb2R7Ocudwy/nYEv5+Gf2cNBGbHcRHQ/jiTBYKrCvZfnbz3+PA0NDvPcNW6gpEEOSCk1bo2HKNBCcCgOpZyTKejGnWiI1tpciD27eKGpqLYmFRLp/9aiAiKISZWUlAp1Cyi+9ZRtXDsKoKh+/Zz8XLleuunAVKzsr+PV7J7CuAClIU/jS9DT/+10HWLfjKv63lRUKqZIaIRHwIvz2Jvj99efxG185wX+4Luaa5VUwloZYmgIqEU0VHmsUeMJapmiyz8TEaikCbZfwfHuWByhRmnXYoZhLHDx6KObi88YYzJo3U3IRCBQ9FNMWQ+0iZXXEacJkS/mfLh7immq3s0WWn9ht7RwMRwIvFkv+pXUa0lwWOiyOmIgsotiijRAHgRgIBAJnSPZ9G1muH4PiVYMckw4NU8HGFlsbJSWiZQtghVQ9reOOi0dneePYMjaKY2qqye98fT/37dnP+pLj1ku3sekN29gXwVRxgAfLFSqimRm3FhkvCIeWX8wzlJgQZVUkfOTabbyh7vnot+GJ555i1coV/OzaUdpieKTj+f2vPsHl3nPJeWv51BcfRn7sUn66aokZwAN1K0xFZR5+/BjLNl3GZfYE/8OO8RSZYXcNYdZ4JopwYHgdlWbEoTH4/MMN7nzWEo/A9ks96668iD9eUaRcjJgiEzOJgfP8cYZdTIsRJiMopylWYiQWGrHPWsypQquFrxRBhVmElkA9VpwvUFEBk2IEEgzHsTQ7KQmZjYcXSAsFZmMApVEZoh5D3cB4ydCMDFXfJrHw2QnPL353nJ8s1/ntG8dYgwMVVBwepagdxqTCb79lK9Gff4af+dbN/Ou3WW4csmwD2iokcZlKQfnlq0aBIjsVPv74sxTUkQCjkee6S4f4aDQAWBKEQzPKzhNT/OybNzKiAkkEsdL2ynRsmI5jmmaWVCzElg9sLqHbl9Pt+BxEYeDVICWiTDP7YZrXNWcWOYsNSgcCgUDgVESQJYWXi8rVl1+Aj5REs5t6hLBvqs4XnjiMKdeY7Hjq0xN86IYtXL++yCp1aAd+/prN/Mp7tjNS8Eji+fTXn+DpQyfAFPjkp2PavokzCUUfMW6LTEzP8vnxQYYvXMGajevY9exBHjlwhCsEPnzbpRw8cIDb79xNetkO/vKr9zCwbCX/8ppNRMOWv7h9mv/2yZ2MXbeKSq3EEwcnONTo4OrKwcef4pa3Xs2Qm0Snj/PZz97HkO1QdY6GlGkQMXFkgujGHTzwXIP7vvtN/o8P3szzJ4Rvf/Fe1q9exfhh4S4TY1CMASsJzcG1PD4pPHPvQcYk5YMXrWR1LQuHVdQRe08sQDFCPXz2+/v5wVSTuh/kW0/v5S2bV2KNZH30NOKJg7N85UAdY2PKhQIxYL3w1597kNUlS1VTDs7GnNj1JPfFRSoSsasRc+uKVew/1uYfvngvt52/iv/55isZJovQ0b2QKC6/Ma6owa/+zD9h/K7DfOPTd7PufT/C40eOc8eJJmXJhs5xLbCCJBHSme450KhzoOC8gvd0jOUfv72T7SNlNo9FVLxC5Nkzm3LH44c56gwPPDfNxmFhwCuKR8RmxywGQU6qYg5G2oEzJbO8NpSZJaE2z9JmIQv7NgcCgUDgh6MnEi1QjhTBoT67wWsnJXLC7nHHpDZoFoe4+k0buGldiRH1lPHYQsS1ywzWeAquw3ShxAfffiETCicEhsjMn5tkHmbNfHsxUK57/v1Xf4CWq9x03SV8cEQoGwObNvOown/6wn5qGzbxwbes4VID6pRffeeF1L85wThKu2W4f7zJeZdcwEUbI7S5kRtWC/5ogUs2reXn3rODFSbb7jRQ98Jn7nqeciys3VThp97/Tq5aabAr4R1br+bBw7BnCva1IMpbEapvYCoVWq3shLULdXyxiMtP4MqBKrU4yyv0FqwajpXHeHC2gWcZWzYXufHNIxRtNs4qIuyfcNxzEHZcuJmVIwUKaSYS3/v+K9hegRpZIr4jq9pMgcYjM8TlMqPLCvz4+9/CG1YIywTKHpwxILmtDAZPniOZODaPFPj929YzbdbSSCx/+9wJnh5cy7+8ZQNV9eAdRIaihartYNAs/iKGqoAxMZLb15RHR3j3+rWMWIhFwSccVMN9J2KORYO01y3jAzuKjOER9WBsJg1V8w4x8wkCMXCmlHORGJHSJiE+rUwMBAKBwMuBqFdNmcsTc6QILu/2a4jU0m0VrIAxLrOydWC1kMlMl/nfqRhEmqBt0AQkAj8y14fNN0FjshCdoe0a1JuWWq1IQQHXpOuN4m2BiRlPqWQoFSByLTDF7l6TYBAFIc85VEtismHbOAVjE1CbVZ5oM6siyTOa2pZe5TEG2uKIEzAeiBWMnTtDixVapJ2sIgVPQ4oYTbDiiSU70KxMxfSW9N1zl+16Tx01DRTUo2nCgXaTNVomLuVub97hCh7BQhtOpJ6C9ZRLRayAaAc0ys6VAaOut3stsRRTwLcR1wJboRPb3jUWdYh6jCrWJxCV6EjEweNTDNTKjMRFjtWbUC2zQhLaknW0NWTnbd5BSPfNkXvaeEBd1jvaLsgeO4Oalf6WfYFAFw/UgQGm6FCgRZkqYBeZdxZHlTpNyhSJF50nEAgEAi+MqGYisYvXTPAZyTwFs4rdub9HbhZsEe89Rjz4cqauJI95edsXIhIgyrqDGJfXFqaIWgwlVFLwiohkgpI075KSbdskHdRmA5UdExOroHhScRRcFklQFGdTIo1BfRa0yiNrc2XGSf7cgFg8CT7fDhiiJN9tmQutesluTJGCM3Orihw48RhjEBR1KWLsnKWLB5WsQGMuB68bTTNzvegkn5QPEatNs+ibjzJxm9/ZXP6IJQUsqnlun7bBxZkI7nkOOhCPSpyFH7Ub4Uyzc4ABtUhi0XgWNZ6EEgVfyKKmKGo6GMqogtc0O5f5kZj8ULrD2plA9NmBqOAlwptpRGOsKeDVkuTn4Uxv1EEkBk6FAg1SqtRxWOrUEJjXUG8GiOhQpkmDISqvza4GAoHAOUEE82/KVjJB0H+zzgREjmTRK2MM4Bbc0fO6XulfWvOnBkMeGROTTxbEmFzP9WJt+X+5jyGZ83KW1daNyMm87UpvLkFksUFM05uTvrVJ9/XCXe7OPW8b+dGYbPleA7t5fn/SO3EnC51FpgiZwDKCqiCSCz60t945z2lBkXwZAJtFM7Vv9SLds5NXUHePT7L58/0VIyBZvbHBZMup5oLV9PbNypwx+Dz7mu4GegeSef0YQKQAYvM9nvPLDsIv8FIRoEzEDEOUaDDIFE3KzGApYnF0GKBJhwJNBoNADAQCgZeIqOrLkBrWDY+ZLMdN+k1gHD2pIwmZnXTmw4i4XLCRRaT6403isojaSWgetbRzr/F4tZnY607qR+YvPm/aYvMuiCSmCxSOWbCOhSKoNzQP2Uq6MyjztyvMiyxm8+SROXPysXt9AcG1cN09sj7P3XOF2r4T5Xs5jPMWmbeOvmuoC+YhyUShLFK73D9vUImBlwlPFjHsdk/R/AeUwTNLDYMNAjEQCAReBl4mkfgy8FrvxQIRozq3S36hSHwRqw22L4HAK0OHLKuinyAOA4FA4OXjhXxpA4FAYElSyB+BQCAQeGUIga4zIIyUBgKBQCAQeL0RIolngOgCoRhUYyAQCAQCgXOcyHufVyq/xiwx4dUrgoHXPl8yEAgEAoFA4FUmRBLPhCUmYAOBQCAQCAReaZZACDEQCAQCgUAgsNQIIjEQCAQCgUAgcBJBJAYCgUAgEAgETiKIxEAgEAgEAoHASQSRGAgEAoFAIBA4iSASA4FAIBAIBAInEURiIBAIBAKBQOAkgkgMLDl03rPgZB4IBAKBwGtBMNMOLClUM1mY+Zf77JkEN/NAIBAIBF5toiXRkm9J4DnzqJUhtGF5ZVDJroRJAUv2wgOxW2TucB3OOk71EXNkl9Jnz33pBYY5Fq4nvA0CgUDgZSdEEgNLBq/gc5HYtFDyKWJMEADnNAricVZRPBiDWINNQa1B+659+DkbCAQCry7hezewZBBANH+gOGPwCF5Ag1I8d1FoPfMc7D2ApA5IURyKR1VR1e5sgUAgEHgVEe1+A7/uCcPNrzn9dSqqTKvQaXWoVWIiI1g8Mu8ahetw1rHIR8w1mnz3vT9N6oXVH/gRtn/g3ehwDa8x2TU2GGOyHxGnWk94GwQCgcDLTogk9qFAil0wVXp/86/2DvmskGNuu+5V2ossiuPh1Q3fCCQGZo0HIzwQwa//zT+yN3FEuAUC8eVAAbfoMXavt+a/HVTz4XDmP14cCfM35vA+yfYBh8eh+fPXFWnKuqPHufRt13Hkrz5L+sAkSSMBNQiG6IfJm1aXXbwXKJAPv5EDgUDg1IScxC7eAUpiLHfUhRMnGly+rsoYsNxLJhV7oYxXKGyRzm2jI1AQAI92JYvaV7DSN7+bqqI4PAYvkg39vorVxRZHQTtMS5kvPeGYsTWqeDhJvL88OLI8SKuKOIdEES4XaV4hTi0+JrsuL1FPKEqa127HXvGSoBicKipg+mTwy37GuyXjmlWMHxOhATSBIr16EUaBUZ+/zV6ly/7/s3fecXKU9R9/f5+Z2d2rKRfSCymUkNARCE16CVWkKSJ2BAuWnwXsICIiYEH5WVBEkZ+igCBNlCLSQwkBAiGQEBLSy+Xq7sw8398fM7O3dznw7nb3AmTer9fmLnu78zxTdp/PfKsC2eEN1H3+s4wdMpLnLvomTed9hPGHHPbG116f5mZRDRBR0OQkSvEYYASripGuEyvpfXNKSkpKkVQklqAa2XGuve15WjpauRbLyTNH8aEZUzGexvqseiunhopKiMFENl7XxPJQcZJVXgWVaswiEomhBlGSqVqsY1AFGURfnkFxVHlk/ivceM8Kzj16X2oyHtWwriXSwAJGFWMthIo6kaATEXAgtIpjyj8GNkrNKI7pi8EBjHS3kapW6V5AFdTSqoYbH1/M7Y8+A0MbyHRarGaxkuHD+4xj9rajMZ47iJWHlHyYx8u4jD/5PTx63Q00LHgZOehgFAcxMoDbhEjVi4l+hoUCxs2ACD4BQfxZNkAWJ74RS73WKSkpKaWkIjFGxStmUv7ilB1YsNFn7uur+cFTyjE7tDPCycSLlKHLLFM5q4Oqks8KXhCw8bXFrH34BYYd9W7qhw3Dx+Albk+BUCp/4lQjobKsZQUTG8cSYCOLmuPgMojRf9bFqMuSMMNO9XmOnezRZKswuFoEcNTBUWDDRv58+RUc8YGPkZs+IRJvAA7kX1mJU5MhM2YoWnLO+3v2A8DVaFdeX7OcXz12Mx876L1MqBuOWI0yuS2RabPSJ1ggCaj44TPt3P38Kg47ci/GGR+xHqgiKENqHXxPcEVxB0kyCeA5lgIQ1uWY+NUv4H/vQpbvsTdj9t4NiARiv2YjUSwjAAomA2vbNtDi55nTNo/7npuD42Y5cdrBHDhxZ9Ra0nJgKSkpKd1JRWIJAuQAUHZvFPZoHM7f5i/ifTev5XunzWBvOsFmohWHyprzRCQSY26OZa+spuPm21j505/xrl9cSe3MKYSihCIYNbihUzHva5I9qqq02U4+8c/vc+N7f0IWFy+MihVKsnYOgmYoiCJquaVTqJV2MhAXTaz04F0CghBYs56Om2+hfv+DQC3B//0F2xmi0skDt97Mu876KJlzPzXw4RQcyWJik2G2sY6FdhV3vPQY791lNk0FH7JR4fCOfDs1bkO5O7gJ6zFcNX8j19/3ND87dR9mjamnzobQkaeQzbKmYLh5/lr2meBE0ReD9u0gZPJZvCDAq3GYcsyBvHzn9XQsWY6+S8EdmC27XQvcs/xBHm5ZhK2BuU89QcurSwm8Bg7fdx8WLpjP3I1bcyA7D2pIRUpKSsrbhVQk9oLBEMUACufuP5VPXXM/zR07Qq1Dl2KqPEIeGxqmH7w/TJvGS9+6mPsu+h7vvuDrmAlNkKuNvWiVjM+LzHQa+ZXxsyGhBlgcRKpj1CrS1VqlSEGE255ZztqXXufUmdMYUuXMGTUgFtpeWchWuQxzf3Axy2qHMHTUSMZOmEjBybLt2R+n6ZSTyk6olTjs06I05OrZdvxEjLVYQvKu0CEBtdajxsv2mOQABkveqEoiiAOBx+e/yuydpzJzdI6MLYA4kMnRIbCkM+Af85fwsV2bwBnEEAPPY3nTcFpu/DMTTzoVdQzg4tHVgccZwMEPgk6C1zYyMvQIUI4bfyCzDt8JJ1PLEKeeq1ZehcF2JbikQjElJSWlG6lI7AUTx/6BMNEJCUMhCIUBOL36Oa6PmFggjB/NNt+9iMwPLuKuD32EoZ/+IHu9/4wKj56kfiYZ3EqYCbE2xBrBQQglWqAHY/m01rKg2fCrWx/kXUfuyXt3n4xb5WzuJL6zbuwY/OYN7PaVL7HbbrNgaD3UZsA44LpgZBOt1m+R2DUqLoJTCHE98HB4adlCfnL9b7nwC+czytSXTJAyRGKygYhOoFlyDPUL1NoQjxBMFEzQKfDjP9xI8/hdyCO4g6iXxPNonTaN3IKXsO3t0NAI4uAmuVTJbvRzTo1ePSfsdRTtKEIGB8ELFCl0sCHnkys4GE2EdCoQU1JSUnqSBuHQldlZLD6iEGeOoAY6cvX4noFCpqrWBqE2suyIRspsXB2TLr2YoYecyLBr76J98TJEFX8Ts8pAiNIoAiyhKr4p8MjiB6lvq8NxIkFs8fBsyfI5wPovSTmZTd5eUp7EAsY3rKyFh2QUn5o6mqyvuEFpDRNDJNSTR3/ORdj9EVftNkkJnLpGVg8ZzoZJW9M+bQRtI+pora3BzzmoMSBCEuVWEu3WL2ySIR2rnoIL1liUgPWmg4XeQjZkWmlzbXQd2pLX90crF99jIQwg8GlFWbx8A4X1Kzlh17FkMGAdCEPWu8p1L6/jgewMJtcacgK5MBjAHvYB6eXhCNsfui+rfvxbvIcexaMdZ3U7iqJG6CQEiSyhfr8+fgbIUEuWGiQKXXAAJ8QnS0smS14KYAXRVCSmpKSk9CQVicRyUPK40hGt35bID6ku161sZ9SK+YwpEAk334GqLyixKBIIsiF7f+szmCkjefUPN0KHYCtg9Yh0hCKieKHSbkPmt7zO3uN2JosHgE0ujyrvbqKBmjOwcMFGhtgChH5cjke65lFRYqlaLA2jEFocX/EAF42PQo+J9nwMgK5KSolcLq1/GSWQOGHxv2WU3tF4jOgaD60hyI7C22oI6x2PZi9Lq+NxxeqA79+/mBVeyEnjMxC0gAxirUZjaHr3AWx9yvHMueM2zL8fYsGrixi52/Y4ElAXBGCjpB+vzPsjEUGNy5LgdV5bvoS6QMAxg+peT0lJSXm7kLqbY6KlWTAoBCFrPZcHF6zj7oee56tnHMeURrC2pIraYK0pGvW1daZtTb45AMepzNAqCCaqEecIi+wy/vXYvznjsA/g4GE1jJIsxEaCucIUqwmpRvpMlFUhPDl3PmcefyjjRxoIiGvclb6hwliKBspOsZGbXQWxCk6szwbpXIsIimIwFCTAw4kSKgbqDZXomhYRHKDeERo2ruKrv3mEWTtPY0hOyIUd/GtFjjDvs+OE0ew2YyyuVqNw+ZsT1uaYcPxRvHbxD3j5voeYdMCBuGNHY21A6BhcYr1bgfqNagzL16xk1YbV7LPD7tgwjzFuFFqQkpKSklIkFYlQErQuUSA7ykPLfL51+zzed8xMjt+2KUplMYIZxCLDqOKKoLgEhDieA0HsHi0ngUbpcq+poGEnS9a9xhp/I7s0bY9F8MSN9KGEVDoWs3tN8qhgtxFhSVCgLV/gtJkGjzjRgxJXYMXL4BCJRBcwSrsb9ZkxdLWAC0rHrUYpnl5Y17GONZ2r2KFxO1xxByYSY22pIgiCI7DNVnVcdua+/Gm15c4XQwpGGOpvpL1xJI1OhvMOH0WTgIROV/HwQdhfBXwJcaZvTY24TKobywMvL2Ra60aoG0mHhNQRJbmLUva3VoDBFx9qhKFSgzgmDUlMSUlJ6YXU3QzxAuGAGly/lYeNy3UvLsXfdjRf2rYJx/qYpBCyU6Ds1htvSEk1wsR6FyqiAd7yZjwrGAVPhchFGc3DWou1tn8txpQoFit02OAG3D/nIfbbZ18m1Y3EdOsMV3KJlBuU123weBAbWQoN8LsnN9IwpIGtXKLC1kmxwmoc7sSNGyey0yls3e6RnbecxQtejiyJ+TwGh4rmNghdac5xBn2ielQVVx2efvpprnjkBnxji+U4A/pxGGKBpxq76gVcC0NE2anWcsHWWe45op4HDqvn9tmTOWeCzynjM0zNOXit0OZAvlo5WpbonOODD2oVUaX9uWdYdOJZdAwfif7hp4zYZhIPffg7BHOW0ehHF5u60aPs68HCU88/y4iRIxlq6qLPjUr1PtYpKSkpb1NSkRhj81AIXX78YjNf+PvLZJrXcNMR24EFBw/RqI5hwTjVCUlUKABWBazBD0PaAyVsb2XxRd9i/r33EmzVSJhV8iaPhiFqQ8KwgGKLtQ77JBal5KcjtEuAwWNS09ZkXI/k7clPmyR7V2xXY/GShAWG0A4sW7CcvaeMZDhEhY2NjRNMKjf2psQqsc6wcsJQHr/6Sl745Kdpv+sfICEm7JpGWfPY5L2KUYunxFZTBwdhPkv55nNXccSEw/DEoat5d5LF0vfxRCQu5xQl3qAG8jnERlkgWoiuuWdXKMNzhh2AMGfJqsUbpJ7GEne5efm3d9Ky9yz2/PEVFCaMZcYF32S7kR7Lrv81YDAWjFbgPACv6yoWr1zEMYceTZ3JRi79wfQQpKSkpLxNSEViTJA1LGn3+csTq9ihqZYPHbk7Yzyi2KyS9VmquJokHr4Q8EXJSUjhwQeZ99cb2f+8/2H6aacS2hDBIGrQQHFaCmA1MjgZwRjpW2Hgkpe0FDpobWkjK7moZlz89642hF0lcrTYwKz8vQ2JWgyqwOKNrbS0ttKQzZKhK7GmzMyNNx2fOA5VUXSrJj5z3bW8+89/YFRdHWuWvhYnzlRuCskhT/ZNRbGi2Fg2d7jwt//8ndFjRrLzuG2K5V+6BHr/r7tu16sIGIMRg2Oi6jcLV27ktnvuZr+9p0clZ0zYJYqrhcbnVqI5da5ciV30CiP22BXZqglxBNPYyLCGGsLOtuLUi28u82TM3TifIF9gYt0YDILIoPUTSklJSXlbkYrEmDbg9w88xWJ/DOfukGOfWqgFsGGXZ1Ajx2BVlhOJMjdVIDTgOw5mxRKevP569ttxT4aeeCh2WCNOpoaMZuh4eRlr/vZP7v3e5bQuWx6VcrGlWbL/fbwk6G5VezOOk2G/sfuiGiZaIhYnsasPjSyW2Pi3MlHoMAbrCLjwzOLlBK5lu2nDI02uRGOJLWboVpR4J61YQhE052GbGmD8MNpyGULXgUKhK5k9UfADJa5qJCXu5sAoBUfJY0F81jd6dDbn+d5BX2DroSNQcbBGIhcrSR/vfuwiUXJS93IzXb9bgZc3tGFrPJwMeD4YChhfkLBKoimxUqOEfnTB3/rjKxlaZ2k67kiEAOPnSQrGW9Uo/laSN5cvEltQJjSNZlemxpuqbv3TlJSUlLcraeJKjAc0mjpG167j5NvyjB41Dg3gor3r2aepHkcl6vpQqRTLTbCgQaxFQtyXXuX5j/0P7oztaLj0IjAu4eJltCxfTXjj7XTc/0+W1tdSt91UnCEGdQzS32DBeK1tFch4GYa5tf1TIeUgUB+uZ72p55Z5a7hkQZa9h7SxVXYwFmuh2GkGn1B8Clgc69B+8320vbqBmroRkHPJ2DA65xKbVsvpdhPvmkXYGPisCNrYqr7AOruBa1//B00dDp87+KPMqJ2GEyjWUUKNejqXHQaajG+IFbjQAfx+wQo+sPu2jHdtnBTlopkAxCCV6v3YbQ5ROESgBq0R5NVljHrqaTjrA5ghtYRGIzc7GmV7V8Ht3aguoWtYQydDqrGPKSkpKe8QUpEIoFHx4I8fMZP3+JbnF69FHJdC4POtO5dwy2nbkXN8XFUUDymmuVbKEBtbR9o7kWeeY94117B8xTLqd9yWg877MmSz8OhTvPiDy1ixbh1MmMCsCy9k65nbovU1FBpr6Jb00heSxBQn/k9xMe6xT0lAv5Tsb6Wyja0LKqxatoxXXzf8/OzDN61NmIxTrlboFssWJfqIuBirmEDwVm1An3iaJ39yOdM/9xFGzz4AnCyIEBDtfiXlxNKW13nmhec59D37cuW/fs1z654lV8gwrHYIJoDQCKjiINF9SUUuNQsSgPVQYEOzz4trhY9MaaRJhFYVatXjN8HYAAAgAElEQVSj4HTi4OJVS0AJiLjR6bj3XrLr1jN+l71RDXDwcPAI58xj4dxnGLbvrPIDEUuvHYEV2opTCBmBR1dLvrL2KCUlJeUdSSoSYzxgaFhgqDpMnLoVgYG2wHLh3FYCgqhmoIZEDdWqQ2HZav79nYvZdew4puz5LoZ/6JOsfPppVq1Zw5Kf/Zypo8Zy2GWXoVMnYbJ12Eyc4ywQdVDp51qnUS5Dp98OGsYOzZ5bkOJrS7vNVOQYeDV4ath9xx0Yuno5T81fxZQZI7FOkt0slRsLusSAKqbVZ8FzT7LttG3ofOIp5v7pBpY/9TR7n3ESo085DoyHJcTgolLqry0fQegIChTEcttD/yC/diMnH30i//zd3Qg20kQmqtVY9E5XjBAkgwp0+CGZIaM5fMZo8grZrBslnEu141CiWNC8WhqCkDqEmrETMA6EfohtXs/zF19C7eiRjPrQGZHRt0y9qiU//3bPnZyw/X4YDUi/AlNSUlLemC30GzIENXHSAhgJwbHF+CQj8HJrgStu+Q9km3DJxgkAxAWmoSvFpHKsf/+nGbl2Be7U7Vk/ronXz/wYGvrU7rYTu537aYYedgjBsOF0Zlzq4vckDeq0GDu4Kb0u+E4U71Uwltuf+DvbjBqFSxvGDCtuxPw3pdBH8RLnJ/TyfiUjsMOoWsY1Blzx0HxGDalh9sQGGmye0KkpGhGdXiqUdG2yD+ehVP+GCg88y4KLLqVTWpHmAqOOPIRdfnkuzg6jwRtKdEQjE55XegQHqhOL1lBLO+389Ym/syFXYNGi5Vx8+jfwNrRyW8ed0ea9Thxq+nAC+o8iWIE8MHfxCsTU4wC1yX45UBtF41aJ6FYkqT+p4qLqsNH1GZqvgReX8uB532XkqAyTf/JjaGjoOvHyZkK9xzVQGhagYOMyQvOXLGat38YO42ZS69eCK1F6fTyfwYq2SElJSXk7sEWKRJ9WXFuD4uI7hiyFqI+tBdjIUqeRm1ZbbugYwv3HzaTGEdQGYF06nA5yeHG55UoRCc6HJo1DJo5m4WvL8OcvpP6QWRx+zscJhg9DETwMYcGnxtryBUQYJQ/kTSed+Vb23OHoqFzKmwm/CoeH2TAkNIZnl61nfafLiPrh/OnRl5g6dhd2cmrIaYASEoiPoX7gAxXzHaKChx1ugHf0TA7b43JoDwjr66gdMRI/LBUhSZZHBYk3XUeOL7/7LD4lBZy8Q32ukVv0MVqzUMADaio7LgAWi+LjkvU7eV49rn5mHZ/YP1OFsd6YjvgSqwVaY/FtEBqdGljwKi986QvUbViP/do3MQ0N0ZvK/ahpiBMYXi2s4AuPXMIJTbuxw4gpWAUnMZum7uaUlJSUTdgiRaJDDpEoT9lRCxYKGIwjrNQsNywLuPfe+/nawfuwTUMBJKodaBQyoYeY0mzLSiAoDrOv/ikOFqOKUSFf52K9qIy3Y11QxXM9jEhFLB5qhHmLX6Z5dQuu41ET1g5qvrviYhU2bNjALuMNX5w1kx/9+SFue7GFXWcOARsVkxY8ygocE0VNJBBFlYx1MSjuVmNQ1chKrOCIlNXI5r9iIZSoRmRDTSONCpp1WN/eyvPznmSPEVNp1Dgqs+KiJcl1VnA8/jk/ZA2Gfcc2dXtVaaJIn0op9ZPkC0eBbDyvoKMDc/99PHbRlTTusD27fu5TyLjhaBgiThlCvWiBJHKjByFOPuQTJ55BDq9o3a56K/aUlJSUtylbpEg0ZIsiz0FRcQHD/S+s41/r1/LTOSv5+jH7cfrUOhpsM4E4URkOBde6XQKxgsFigos/rOt0GIUgTpbIEA1V1KZlYq1FECyKM6SWI/c/iu1HTSejHpUwUvYdJ46kVOrDkG2MMLqhhjbJRiI4bnMS1bErJ7tAUbFxcIHiqAcmKQRpi5bGqrdcTOI6417KnkKnwLC6Os6dfTZ1KFk1kee04p9MQRX80OK6Dm2OIaytY0pDtvsUY5FYDYEI0W4lhl0PwIY0r1vLH08/g91nHcl2n/0sjB/V/dwMZCo9P5oGGmrqOebgwxlOPYEKNs4IGpyy4SkpKSlvP7YokdhVYS0E8UEFo1n+vbHARfcvYt6aTvaaUs9v9h3F4VvXMiRUVIbg5i2BAx1ZiwkNmURfVHBeIZFlJQB8oF6hDj96QdHzWZkqjSJCwc3jWMOsuqnsvc14wCVpPFF9NKrHiBCI0Onk6JQ8DpDzIZe38TwcjBqMNWVbOBWDiiKuYtSUxLf1UN7VzHR1khhSC/jkjSFjBWOF0dbB9wwmTiaqxhQEpRaHVzoKPDf3WfafPrYYY1uNUjObEN9XJV0JA2NxTjuAPQ79LbvbyciIYYSN9fgKroJTjlk3ua9QwDhgYJQdyrkjTyJwQMTiJgW9U1JSUlJ6RXRQVoe3Bt1EIpFIlCDLZ6+/g5mNDqcdeRC1OS82FEbuSdNbUoQxXYWKK0hA2FUPr1SsxL+XuphNheLlVLVqVqOSUSidvSqEGtXAE2O4e+5KzpzzLOhoRjQv48yD9uQzuw+jxm9BxAOT610klroT/wth3P04Ompef95aWYodbXq/dqyN/i7Sx845A5kCEIQW45jIQr2ZhFJXZZ+ui1216xDh9CenvJfPafyBt3FdTAHERHdcSVF4ow5WqlP5NCUlJeXtzhYlEiHRFUnTYBAc1gA1Fjy1iONENZOtxoU6wthNmSCIiTo0SIWXFUvYtVj1IhK7z+LtKxJBCG2UZQuwbL3l1uZWrG1gSGEjO44fyk51IZ52Ai6YbO8reD+Uno17K0aiZHMWUN5s8rRXVCtrFe/X2Gx6FCKRGLu8+1UC6Q0y3JVYkJdefw5Jy0dRU7GynykpKSnvNLY4kVhEo3+sBpE1wSQlsoVQk0pukSPY9LDhGVOt5nz9KanzduoUsalIRA15AQ0g60Zudi+qTEQ+gKzxEUeJbE1utNa/0ZWaru4p79jPTkpKSsrmY4sUiT7NuGFXCRxDB4YM4CS5EiXup01FYvVqZrxTF7qeIjF52iFA0TiRowC42omreZAsSKYrRkDgDQMTU5GY8o797KSkpKRsPrZIkaj4iLqRrVCiXiWlruPEfhU5qUpEooLFq34Ml8aiqts41VnYLKUFwquDoii2JI7SUixorpHjzzdRDpVrFScqYAcSSXQfQy7aUO+8E0RioqGlx89K88YVyQeHNxu/rLm9mUhMrrvkZiUViSkpKSl9YYvKbk6I7FZSsh53Bf+pWkKRuCSKwSJRNmy8gnUzbFWaMNmwEDXsLZWrlUVLHpH4jerFVXr5jMZQQhSjFOMQJTqyJK1IBB+xHqKlKQRxbFolJ4MSiI01aFxIeZMRqpcwsukoPWIUNUn/rUIdojcQ2b09XT3t2GM0lU3ibQc2h96DVpWQ7ld1WLF43pQySE54FONTtYz+lJSU8hjE0slvJUzRn5xUl0keQoFC5ATF2oA8Bg2cqCMLXckWFUeJ/K1B/LskxXDiHNBSVdeVpj1gbMkDjYYtJPOoIAoEKPmoxQtB/H8liMSpGKwxZLQdLyi1akYC0iDF2nrFGICej75MQonTqi3t5AnDAgSlB7xCB7Yv0+g2SmzdKv7BgoaVn4aW/Ozx6O3SqspRSM6B2q5HPIFex+/XRMwmj8iC7SeFClCNes5U8RSn9IfEet7zck/PT0rKW4YtVCR2x1rLhU+u4pwn1+MHLjUFpbOlhXxnnjoL6rWCyRctbtUirIl6zEbqrQardVjNdAmkCuLEHt2EjIWayraiBpK0k7i7hkAmhEzgYDrroi4YmuQcN9CZ8fGNJejy7nczOAx47SiWRBRwHRptLa7URKV1bNKWTnv8rA7dxDlh13hFg+Ig2VNscvK79jcKAhisFTo5Clq8WbMCQYm1uVzEOpiwrmQkBxPU/be3pQwGErJYCvxj2VOs9nz8QbzyUlJS+s4W6W7uiYgwfUIN9976OF9/rQl7z+95au4TjBg5jE+e+Un2PPIgao3gqFbPJSKKQbHi4xswksGIoCFI7B2rZLmS5CvZsRCYrlIjojZys1uLqVDrFcHgqkcUZ2kIBfIZcDHk1SeHhxVwCLFWMGIiy49oZRzOCmAJwwDH8cAHX/KIa2KbU/IxMFgbDGLHmdKBfBCJSi85bsVvCrphLahiwwBxHIIwwHXdqKB2Itisxan2gbAWNVFHHQHy+WQe5W9aVVEBX0Mccegkj4ND1nEwovFnKb1H3pw4tpPlL77M3hNmIiUhB6nbOSXlrYPz7W9/+9ubexKbGxFhSJ3Hi0tX89f7nuHJ267j+ONnM/+ZJ/njdX9k+LQdmbn9NrgoViIXaDW+yDoXvoqbdQlNyIbWVlYvX4FfyFOTyyHGxAKx5Kt0wJNQVrQ101LoRAoBoV/ALxQoFAoUfJ9CoYCIwXGcYohkOUixpmQIRljdFvCv+atorHOorcngakB7ywZWrVxFS2srxnhkPC8Wa131KMtb0hVjHFYsXsSDF17K1J2n49Tn6Oj0yed9CoVovwuFAp7nReNW2Kq3iZs5hDC00Thhgfb2VsLQ4DmZ6lZ3FsFaixpYu2Yda9euobOjnfraGoiLeBupzjWODaO7HcfBYli7Zi2rV6+hvaOdurq66Do3PeoHDGAiErcPMsbwq9t/R319Iw0NjeTEsH7dOqxVMpnMf99QStUQcdhlykxCfDLiFj/plfjOSUlJqQxbZHZzKUkx6bBjFae///08NukUJm67Hd8/bTd2ybTx+XM+zu1za7jvX9czuSnpp1wdmfj0gcdTe+herBxew3l/+T/aVq7HzeQ4+YQTOftLX6GhNguqqLWI45UxUshX/n4tDz72KNlHXsYNlECi5BKxiuM4nPCe9/LJT54VxWmW2zS6qI7yBCbDCy0FfjXvJRa9uJifnrIfC+/6K1de9SteWN1OWHCYNevd/PTy71I3pD7yElOBZKEQtGAJO9p49aPnsHpUwNYf/yCfvvjXrF27AccxhGFANlPDr6/+JePGjau4SOxyM0eRmsZaUBdwWPrKfD7x6XPYf9+DOe/8r2HcClu5krg/AWNh3dq1XPDt7/DIY0+wrmUVGS/Dnu/ajfO/+32mjh1HECqeKedGpHTcuGB7EmioltDv4JJLf8itt9xJc3MLXg1sP2MPLvred5kwaQKeltwUDHQOGqBhnkvn3ci8BfM4aZ9jyM1bxfcv/RkXffd77D1rFsYUcydSXTKYxKGpoVUUIfk6S89DSspbiy3e35Jo5I1L1rDgwbmcPLGGlilNXHjXfF6pG81HTz6SNS/ezDPz59ApDk6VrIgA219xBYvvvY9nv3Q+R+60P9fe9GdOP/NQvnf5d/nG5ddTKIkZtNaW1W93yjYjyUxUOo8ZziHvOZR9DjmcQ444gR0nFLj3/kXkmqbEbdvCN6li3QdKMxECi1vIM6M+w/nTJ7PIHc5Hrn2AYz92KUMnH8zVv/wN/3vVT5m19874xomtSUnZkjKxEGSU1uEuY357ObWtIWt/eSNP3P8M++97EEcdcQzHzD6e/Y48jIaGhvLH6wWTj87bq62r+cSNP+GW1fNYq21g27nufy/hrrvv4/6Fr/BKVRKbo8x93/c59Y6NfPK2eTzsDeNT532ZG2/6P848/Tiuv/7PfOOi3+EHijjlJ2kFxCESoUAegs4OsIof+lzzq1/zuz9ey+lnvp+bbrmRsz5+JvfdcQvnnX8hzYUQJI8VLXZDGRguYur4/PZ7QUszl//5R7zvyx/j8TkbWduRpUWAQhKvGJdlShkcBFQsrid4XmRgTuJkqxn3nZKS0j/SmMSYQthOKJ2YIORnh8/g6n+8yLUvtHN0fT0qLqvXrKcDyFqpWrNbb8pYMpPGM37laE477r3kttmF6Z+ZwMqFT/HPfz9E22dPJdOQi0SqWkQGWsrDcPJ2hzLM1PLHuf9gx53244Apu5JVhy9+9t/M2HMsxx55IGGY9IiuQLSQErVHcwwa+owYWsc335Xjm39cxw4XXM0XP7wXM7MumJCD99kda5xoHyFygQ585Gh4BwxCDkOusYFtZh/N3y76PoePHssXzjuf+rpImbn4hGGV7p1ccAVG5hr4yKwj+NU/b+C1caOZPmIkf7vxn4waOQw3dKmpwtCJVVTU8v6dsvzg7wFHnPsdjpsM9TQzY7v/YcWL8/jH4/+mufN/aKrPlHfMY0ugFRCxvPLUI7TdcBuTd9mZ+r324NB3H8xRJ53M6NFjAGXbbT9LuLGTS66+mdeb84xo8lEcEGeAFt0kKUZp6xRW/utZdj54Lxo/exj3fPkprBdgRMHJI5oDBK2Wiz2lV0pjnh2HuCRWSkrKW4n0Uxkzavxoxk0Yyb/vuJ2tA5+DdtqOa//5BL+8/q8UgoAgtBQoKV9YDeo8NlhYuup1Vj31DBYlMFnqMsPiKjglNUvKmoQwnCxHbrM/u0+fxQ0P3kaLdLLupfncese9XHrxBQxvzOIY6HL2VmCnJdqWcQQjyqK//IZFjz7Lhsxorp+zBN+A1RA0wAQ+skmF6YGjREIpgwFjqDnkIMZM3pqDJ04k9ENUlQCAMIrFrEaWsRMdzTrHZe8x0/jQCR/msQWP877PvJ8TZx/NhPHjMdaltvIjF/G8DPtNyLLrfvty/b+fZpmvRMGRAdMmTcL1PHIZKbpgy8EUS9uETBs7kkljJnDfZT/hoW98l7EjRtE0cgwWCDRANWTqxPHkO9sIjMVIlDhjyjkPoiCW+voR/OHH1/L5938WGZZlylGzsG4YlVYyfmwojxpxpmwe5A1+T0lJ2bykiSuAWAu5IYwbO4W/Xv0T/vXAA6xYtpSWlct5MbMbzU/9h6OPm820mdtTbzpjC17lv8pEDA21wosvPs/4dW10ztiOh++6jz/88kZO/uKX2H+X6ThJ8WnjDTzVOfbgZtSwz6jteNVrZf6z93DDLddgvUlc8MXP4GiA4MdW03h/BzJcqb50YpUkFrFtXPH1C9hm2505+8RDuOI/j7BiVTur161lwphx5DIuIjZyAoop+24minUSRA2huogbEhTaWXbddWQXrGRRcwstrktm6AhqXFOMVa0oPvhGsaJ4WEb4cO/zj2HGjOQ97z2C++98nMYh4znpvUeTrbS1WkFUECvUmhA3a5m/eBlXP6lsWxsy97H5XH7JVZz0iU+z5947gQjlRL0icfxuCIhDMGw4dbvvwcRDDqVNHdZ87VKasz7Dp07BZmsI2jdw8SU/Je/W8aEPn86wDECGAX/OVOIwiQAjDTi1wxiWzdG0cQ23ZuYwdtxYth03gyGF2uhlFiQOq6jKDUJKSkrK25At3pIYZUFGIujAQw/jD3/+C+PGjWL9C49xSMMGDnz3dOo/dTkt0/ZhOKDdOoJUllB9xh5+JI3HHscdjzzAt3behS996Exm7rAfZ5x6WLSYKSCViRIQohI4R0zdmbnNy7n6hf9w/EfPAVuAsAA26MoYKWeX4/cH0nX8Cs1rWbq+kcLqV/jUcfsy7tlHub5d+eD5l3Ps53/CxtABDKakQE1ZxDUuO43gBCDZLDesfp0zNqzmphtv4vavfoUzd53Bt7/3/bJiPd8UB7wQXN8S2gIvPPQQt3znrxw07WT+77W/EuZCQtenXbQorJO5VCROq5gFJBw+VPnFng00XHcBp9+9hHP+9hQnX3w153/qNIb4Qm25Ayq4cWdJo9F+44G3/Xh2OPt9eN/+LE9843I2futici+9yE2//zl/uOEGPvD+9zM+lyGkPhJ6Az0VAtHNTQ2YqMxTpxq2aRvO6z9+ir//5+/84KnLWJFdnVRmiiz1GpZXkzMlJSXlHURqSQSKnS5chzGTJnDcscdw4ntO4JhDD2f1Sw/w6HKhvrGBbSY3MdoxcX21ygvFsLCe31z1c77zgys45qQPsg2N7N44mtY5j3PzqlYOOmgWxnMj0VSucCsJM3TxmfPEHOqHjWKfgw5k5vDxEEYlKtAogSERK+VYWZTYMCmW5uaV/Pzn1/By83qu+NmP+OqnP8YKVda1wbyb72TGLtOYOXlsSRmUyhxvkbiri1G2nz6ds876NMccfxw1a1awXXMr19x/H+6Yaey6yw4YAUtHyWEu855KFRVFUF59/ik+/pnzec/Hzuacj3yAF9Yu5LklyxleP5qTZx9NFkEkcoOjJorto4xT3s2fF6k3a8HzalgzbDQbV6zkgRtupmPtRvabtSMmsWRK1NkcCxLSv0MgJT8l0nxWQkIbMGbS1uy439489+D9PP3733Pvbfdxyucu4ONnfZhc1okMgRLFFFoUE0Z91gdq0BbA0YCVLz/N1dc+wGkf/givrHyd5s717DBmG8RVHLEYTLeEnTRKMSUlZUtmi7ckAl2rb5xdZ0Sp8RwgYO5vf0ZdQy0bnVouuOU5jLhUy5KY37CUa393DWd+4auccvn3OfV/f8HHz/kkZzXUcsufb+O519eShwrUg+lCBGTtev5z5c2Erxb4/Zw/sHLVOiSbATJxHGHEgCxs0vVwkgbRKjg1WTI1sNu++3PoYQcyzijn7DyWo2fPZsLZX2H+653YpFqerUQ8ZLSvLsTec5etthrP1luPx9t9KrvvMoNdxXDEkLH86Bd/YkMHBH6IpR1VH7QCma8S1SZs27iOr57zRZrrxnHs7ONYt2IdWzXMoGa/aYzefyeeXNjGmrWtqIZAGJUK0QpYt0rOBXg0NY3m7I++h28etz077bo7NQfM5vIrfsKiF1+NPw+AJkKVqEtkXychmz5UoJAvkHUyhBnLxq1crnjiYZZuaOH9dSM5YNJkGv0QIxDG3WgUS0BY7M7TZwNnj/6CHpAx4HuK4w9nZsMenH3cl7hryRx+ee81tMhGjCQFiqJxNc2zTUlJ2cJJRSLEPjHhtWWv8djjj7HgxZd5/PE5fOXLX+DuZ5RfvHdPPrDTCF5Zt5G/LFlDR5Wm4a+az5rXm9lpt5OpcQyZnbfCPXZvWo47gCuzwuJXWmhFCcOo/M2A3aKJF88EIKuZ99DDvLTc58uf/jEHTX43p97zZe5Y8Qih5xO4Ur77rYdYsFZpHDKUyQ1CnVcfxb5ZYYa+yok7ZKnreJFnhw8hTCy8mq+o/8+qRXFQHGwohF6O3FkfJvej73H25EnM0vWMKOQjV3fQhBSyEDiUWyIlsVCtWbeG9X4LwbolfPTUEzjlyCO46oNf55k/3sj8pfdz7OnTueHuf6JkADcqbCh+PH6ZwqXohu26yzgw5/GlY2YwY6cx+O/7NI++voRALBifAA8hQJwC1PhY8fsnnpJWyhL9qM3Wohqw/tVHOeyMc1k/YzcOvPsfTPzhDxny818x//hTWX7+d2FNZ9Sj0ro4gQdOFN/o+OXtPoCVduodn91rR/Cd3T/Kw+2v8Lmbvs8d654EGyAYAgzt5Q+VkpKS8rYmFYlFWnn48bs48sjZ7Lf/ARx++Gzu+PvDXPmbn7L3lK04clw9vzxkLFNqasoL6H8T3MZpDBtWyyP3/oa1QECBwoRa8kftwqT6HEc+fx+jAh+HjYiU1xHEQjGw/+a7HmHKlB05YNsxfGrmMdS3+/zm1mt4OFiIoxYppx1haeJK4qUXgzCU4448nAUP3Ie0Ah44BKz8150suPxiHly4kYseep5lKDYZvUJC0cYWY0FxHEtgPWz9MKYccAh36zo+3KbwnzlIS54oNNKJ41YHWnIoItJLyoStp/DnW2/n/vv+xf333sP9997Lg3f8lekyiuWvLGX6ucex++w98QONCg0SkKHyH9YgiPO5ZSWzhgd8rn4dw2vgen8az2JQcXHFx+Jg1QN1MdZFdKAzCRDbigRt/O/lv6K5OcfPL/kpE5uaGPHu/djujmsZ8+VP8c8HHuLlcz6JfeBxpNXHaGRJ9R2f0A0HJtVLr0PJEYqHAntO2oZfH3MBsya8i0tv+Bm3rp4HhHjWp9ba2IKcRiimpKRsmaR1Eou4HD37WB58aA9eX7qerbYaxcQJk6kbXkdQyJPzHPacOpnmYvmZyrucc+O24eQPnMKFl1xC3q3lwN0nsGrxEi676FI+N20Xmm+5jbFLl7DL1z+PlNlRLNKXQqGlkzvvup8Djz8dx4EMGS776Hd55OlHoS2P1EvF+kV3jR1tcPYZH+K3N97Dycccw1mf+BC28DKX/eSPHLDPXkzcYRyFdYtYtXFrxjaUtGMog1Lrqw0t3/7Otxg5qolJo7elfeM6fvOr/6Wxs53dhzVxx29+zb5jt6Ju6LTI5V6xY6A4rsuQEaNplGxUpQWFfDv5tZ24I+tpXQ/zFj3FrjuPxJikcTcVi8sE5corr2TevGc5+OBDaGwSnn9sHj/8/o/Y6cPfZkNzK1fdtoCvHDGNya4l+pooI4kkGVVDRC0drc3MefolRHPceNNfUDpxNYcJm2kMXfb95rfIPf4f/vL1b3Ds186jdv9Z2JoMjpgBFteOmp77vsWGFtVOjLWx8PYYZrK8d7cjaA9a+ON91zPtqCFs0zgRt1jFII1LTElJ2TJJRSKRZUk0R21mLNtvN5bttmsBwBhBbYgxNZHbE0uDVK/oa+jWcNa55zJt8ih+ddXd3POnBdTXj+WkM77DSf9zKrV/up9lc+bQ8WoLtUObyhrLxDUQmzcU2Hb7PThg/z0JiApObx9OZLudRhOaTggkSmKQLgtcv+hlfZU4znHUlJ249urfcNGFF3LZZT+k4AkHnvA+zvns2YwfNoS8nUi9mIr1ck2sr0mLuDFbjeAP1/wE1jVgGyyTZ0zhc9+4lB06OingkKtvwLFhkm1TwXsDQcXDEEZVvlXBzXPAzvvTsvUUnEm78vyKp1k7cQ/GNI0CnArfl1h2220Xbr/jdi6+9FJ8hLqGRr7y45/zkRNP4F63litvfppvP/wav9t/XGQ/LWbWD3xUEYl6NhuHbadvzfrMy9x449VABtfJosYnlFpq9ziA2aecziFPz+PRCy5g5698jaHHHowM5JMn0f6iBs81DBs6hHftugolm6UAACAASURBVAcThzZAIIRuDrcQMtLU8sW9PsJ5hUu57tE/cdq+72Vm/TRSZ0tKSsqWzBbfuzlBbVQXL4i1gBN3jFBVxPRwd1bJsNCzNp/v+6gqmUwmEmiSx4hHJbR9cVd6LPw2jLyrYLHWx0gWq13isLRLQv9J0mM3PYD5zk6MGNyMBwjWRgkTxhhMSfLMQI99ae5LcoiF6Ji3bGzD9Qy1tTUlA8TF89Sp6PlO5mEFXA3jxCCJbkLkja1WqtqVaTuQ+RQt4D2FvsOalesZMWoYhBAYH8d6PNLi87mb/8MvjtqLHUfWdgnF8jzuFDuhqKAlAqz0Mix+BCy89O/HkI6AKUfug4Rx4IHTF8tul1O6dI+lRGoml7Xio8YQoixeu5Q75j3Cc4sXcuZpn2DfXBNvdM2mpKSkvNNJRWJCUpcuSSN13sTNutnWi8qr1NLTLyIlQlWx1mKM082CWJ5IfHNTlLUWtdFrEl0oIt3LkFRAJCbb6ZJkFo0Vg4hb4lbtMd+y3d2ROCzWFi/ZvsSiRpVN2i0mbnJTjtu7m0js3slmQSDc+dhzHLDPTuxsN2LF5ZXQ5czL7uAzJ+zGidMmkE1eXq5eiq831a7xexppY0NvlLMUZ1kbByR5b5/a54XF46wl+6sKoiYSi/EHXG2IGkUJASEvwtI1y2gathVNTq4CO52SkpLy9iT1pZQiRGqinESNCmOtLRFplY+P6ln/sMuSKV3xcBXjv89djJRW3YnmV4WT0XOTvScCVfhY0z2sL6qYWPqcFF3x3d6XCPmKH4do9A3W8sALi2gVELFglEYPDt9pOqvXbqAQVvI+MrqGRaLzLCYShSYuUVR6CtRAoCG+CYut8+IIzn7tYc//WWuxyXUlxKbzqEaPAJ6GTG4aQ6PxSMVhSkrKlkwak5ggkX0l9AARitUQN6OdNREH5Vnv3pxqbru/vOlcKrxWd7fJvlWM6ZtaWgfD0B+I0EkjrQDWx5oMI1T49hHbYhNvuBL1La/keXiTXRNi8WgcfIA8xXI65dy7iAjGMd3GDwVUo5JIQlRTUbtfICkpKSlbJKlIjAmDAuoIi/IFHAxbuS6NbvUKZ/dKqUbQN7JuvYPoWR6nOknjvbK5clZNqTDqNoFKW237TieKShCVdnJdHFsTufgFjA94cbcUp8quB4ncvWiXW71YeGgA2fzJObYQh05Es08Sl5IXuaU1dSyQDP8O/uilpKSk9IW3jhlpM+MYCAi57vHnufWR56OFZCDZvGWiGsfPvYWaPXTLCq4kcYze+gDmBgAWtW9QBU97efSDxJVZfKjGQW920AyJm8yB/y5WK3bsped/uh5jRahzXf7+yCI2UouIjdzOQrH6TXGexWNW8ujPAZReHgChElDo2pYN+rXdTS+NxATaFYmpGCQOCk2ayHTrpFMac5kKxJSUlJRUJCaohli1rA5ytHTUJGkEm2EesTbdEkQikUicu2AZP/vHSyCmapbTTXVJD7U5CKe6N33UFz1SsWMvpb90PWo9lz1mTuWx+UvpIAulPXY2SSwvU62/0bwshBoQaNxSpZ9tEDedUY8zHf/B1zBuuKdEgY62aw6lP1NSUlJSUpHYRQi2tOeX9nuhKotkTQ7BjadRdju8tzoWWq2yTEJaGqt9KYY9Htp1cJOEJd9Gf9vCLEl1QM5x8Fwvujka9Hg8pdDRzHO33ousbYvcw07l7pLcwCNrMrT67Vz1n98xd+lzhMYSKETnu7SrSs/rJCUlJWXLJRWJbxUkcd8FQIHAKxSLlbyFjIqVRfPkUTaqQ7vnAB3xgj0IiIkqiguR6XbJKq6ffRrt856vmIHs7UINoEFIZxjSoRqXCxoshRiCDfCefIUnP/gFgldep0VCIIOhL6Vu+ogqjgN+6HP+3Zcwb818QFHrROWPTBgHYKakpKSkJKQi8a2Egr9wEQ/+6OdIaydhscdw1YfdPLrIGFzAs4oXwuCb72KToQhYZf3KlbR1Ng/i+G+N2wAX2HbrEaxfu45nX1gaeWEH7WKIYn+fvPt29jjlKJyxI8hStPUOmNJdsMaiAhnN8JGD3kdHxicwsdPZCFLMqt+CzMcpKSkpfSAViW8ZDBR8ghVrmPN/N+E0dxJapSplAnsEcGnJY7BJRGLWwmbKN45FosVTRU0wiGOXuDUrHObXZ0TIoIxvqsF1BN/GtRoHNateCDpbGPau7XFHDSVH+Y7e0kMYiI9PiHEchoU1tGd8QhMHcyQZRFtajEFKSkpKH0hL4LyVcBxqrM+QoAP0HetkLsFEJU40JB+3AqzeQt2jxEwxK9cQiBO3Z1ZyHbkqjQ8WH4uLAE4YkncC8kR7PRQDGs+xalpFQHoptaNtCB6OCjbpuvNG119v768EWkegHqEYAiwOpkytHMtMAWMNYBGEUAwS1oK6ZEIIXIvBi1NZFFOt/UtJSUl5G5JaEksQFN2s1bMT12MIauL2YdUai67aID2fHyzUIboEE7tR1PVicIgrMw/GcPFxNqGLGwrGgjoO1zx9J/fNfyjqIWK1+7Ef1PMQdVF2CFE1UYzmoJmVS8zZJNcDlF830kExJZd31/nOhg4uhsBVTDyeYOJblpSUlJSUhFQkxkhcU+2t4HCqvqfPUpCQQMBPEkWSiiCbhS2jvUUoUizFArCucyPN7S1xDODmz5SJupzIZphL7PZFoJe2hOVSLCEUX15N9UOY/+oLUadmK3Fv581//FNSUlLeaqQiMcEIoIPSBq2vVK3bioQ0axs3PXAbGzpboqeq0Xbt7Ug1jnmsfwKTFHCOTIsFE2DfubnrbxlK63yKCLP3OpyFS17BV0ECgxJuXg9CSkpKyluUVCR2Q7obFAa7JV7clk6rPq5lpWnnz3PuZk2hEyODv6sJUShgSXbpZjBiuTb5IJQUVq7k8Yith1k/acsXtfZwbBTiELWeGSTXd6/zM4gKrhiMxNm+dnMUko/czoJQmm9cyS8pEWGY10DgKK0UADCVLbaTkpKS8o4hTVyJ8SVHi8mwupBla78VRynJfBwkVFFRwri4rxhQFBsv2MYMdLnc1FqlKG7WwSaZtSWrcV9sW/3WUb1pDolEkqgbu/ziLOs+tkM0ZcUUlrTjUwNGsUYRUaIYyT66PvuqpYQozC451kDGGNo8y1rxaZTaElNu9a673o5ssZ+0RDEHiolvGnrZ/0pox543YipAJ1hFNIoO7FaUpueYvczB9Hq8epeYisVo7II2Njr/7+Qe6SkpKSkDJLUkFjG0dFiWvd7GgXvtghoHHbQkipjEkpj8p4dhbeCu8E3rqygWFdvtuf4Ik4rYmURjPRQv0v3caPkuwp71ZoqV9crc7hsgXUGvCmQ9j3kLnyNPGAul6tbAecOtJqdfSuISB9RAcKCTkKhXdPz3xKpXmU/fpvsgCI4xXZVvNocFOyUlJeVtQCoSYzYCPsoQz7LjKBeDwRq3WxJw1UvYxQmuRW3ai0i01mL7aGl7cwIgiCx4aiP34qCHx8VHtVSMb46Y0OKQtuSJaszDxkJRsBb22nZPWjY200F74ndnsItr2ziTeZPUoYpcY32neAOkgx0daFOBmJKSkvIGpCIxxgMKodAqtRQAR/M4tr2bXNgsXUlSBofBrR2NGKGeesQYHHXii2vLvrqqlqiVkpKSkjIg0pjEmBC464kljB7ikQEc4wFOXFTYRAWGk0Ws32tZtyCsTZ8q4vS6+d5eWp6c6HLnRTFfJTFZ/dhwSXhd12Z7PNntuL3hXJK/O4ho3938A3BRd00sGSOM6jUmrn4DUdXAvs2h37omvtMovk8kshsajQtVl5yHMjRTv4oKdXtRMsGBjz0QeloSVQdwbFNSUlJSKkoqEmNCYNnqtew2fQyuWhwRwEU06SKrZUZK9WHZFkFUivUKk1dWQyQm3s34t37VcS6d1yaJBdLLazUerPS1iVlWwJSIRMSCCgPO0ekzEk8jPq+xIrGi0A+ROKCRNRlXu/I2TPRMEo9nLXEiy3+nt4Sm/mnMeC7Fd24Gm3mPWobVZsu22aakpKT0jVQkxnQAvteO6+fJFFaDqQdTixWLiGA1iC1AbjHrtSR0sIuegilp/5Zkjb6ZVvQMqAs2CxhcYktcLy8tX0PF8XFkAAgEwj6u0YmE6rp44pjGvENQA6jiSCR3tFBAPBc0BBt2d6mGHpmMIefbSKZqvPX+WBPpS0JP6ba05BkB9eKDGT1vXZ8w7HuShpOo4D683OJjNDreISEjMORweWT+Y+wy/SgCHBxrMGpQJ7Jg94Xe+hwnvUN6HpmeWzRiAJ8sLvV+/IYBW8wHQElOiUpX/G/pFPpiUexPBKXGG05+JmO/4WtTUlJStlBSkRiTBSg0sMEM4TV3RNG+NhqH0GokDgGjIeIHkdhxeiymvRmgpD3eeg0AKu3xWzKbTiIQkE7UtIDbigkbiaxr3qav7c+quEk/Wieal9OCJQ8KXhjFZSK9SY7eiIVRIJGoE8WvCcnYDCqRZXKdVfJehkiGGDBecdE1qmQMuAKdOaEzkKKCMT0sm28yg2QH+zjnrtdaVVRDkAKOqUFsBjqzaDgMdfq+PduP8ZVclKejYMSlpm4E06fsyDMvzsWfPhuDW6y64xCC9fs2Ce1xfoXisfzvM1MIh+ELdDqGta5BjUG28PjIlJSUlJRUJBbJAnWmg4effo3Fz82PckwF9pg8njFjx2Mcgw0jSdAQtLDz5KG4EgXbl1oUey7KATkyOOSABiDEi60lm1qJshIFxdlAwBrUuFBqfRwovSz4GfEw6hCKQ2Aiy5MAYR/bollV8gIFR+gUxUfJW+GRxXmMCK4xzF3wKsvXNBMSYiVEsPFUFFHFaIH9tpmMyQ5n5foW/rC0Exva2LrVpx0ry9SjAqH+f3tnFiPZdd7333fOraW7Z3r2vSnuFCmSEsVFiaTIphbLshXHWqIYjmxZMeCHAHlIAuQlQYAkSAIhBpI8BAi8IEAQBYET2bIoS5ZhmpAlQTtFShpRlGhRGm6zkLOw966653x5OPdW3a6qnq7m9FLT9f0GPdVddZdzz63u869vjdTiPCfPzHJ2/0088cKrnD+2OMRh053uVPQbwvKpIriYIUCUyFKtzXfaDS409vPJM3M0wwEamXL3DZ5p8QxTp9EBB0RoaRLcILiKtbTvM8ugy8hI7v0wT+p3LNteItQwDMMYPUwkFijwkfe/nfubME9ZIAYe++ZLfPvzjyPOdRIw9l/+GTccOUCz2SRv5534Pqf0Cbp2PeNIpvyLD76VRlan5WoESQa4XjIFp4JGB74OklVqua0x6KHoP0CuOQRhjsB8DrUIXpPoG4bghFda8In//Wcs1KdYlhqtBeXxRZhsNEAjM0f38RsfehM+64/mVJKb9EQUXvxZm2d+epZ/eean5K2cYbtfXHMLRYHcKZPtwNteepnG5Enmv/U0//dse8ipdXh8IRDXH3MURy1vIgi5azM3OUusX4Jshae/+CTu8kGabplTh5scWp4dagSZ5vzavUf4ube8kUXSvJYxnkWoY/Vy+96fMaZtosJvfvRDfOnrT/HxW48Sg1AfYMA2DMMwxgcTiQX7Y+ShKcf9qniWiXgino89OAMPzuALj54TeOzsXfzouRcJFF69ipKLPR7oGDyzWY3f+exTnNUG9bJUnvYs4CIc1EnueWYeveHd/OE3zvPtky1CjB3LUElpjYvpYQj6N1rMrvCtqQf42l+d5sjSEhSpCwE3hFEsoJpDbHPbsTu452idpkZUcz5x42FuPHmQEGBaFC+xMIhF0Ly8WsCnxOJaRvsWz0dvvw0f70zxdUMaEjcrvcIrNH5yjt//3B/wkQ/+Fv/qoXuG3ncjsaEqkIXCS+9gXgL/59vneebCOf79L7+ZPeEgFwL85be+zyU5AawjPdWxFIVPvNDi3/3kxx3RXN6/VTU3y/FWJkyB6BytkCNZHXWenz90mCtXFjh6cGoDV2YYhmHsRkwklhQZok4EaHbCC/cW1pROKReF9x2f5hePT69/zGKBjgLL90VCaSNbQ9m4CPGrL/A//uw7zCz8PV5dOYDLI/WwOgBRi2MOm9sR6Y1JhAt7znIhf5pff/DNfOD4HR1388ZEl1L3jlqlO54jJRoElMwXYhDS0VeNV8Anm1fd+xQP6di+xNpV52ghskgms2TtnP3D+lk3Ok5NJXbQFPqpmWcCR12VBpPUPcx4+EdvvxftDQ1d4+aog38atFP7ump5HjS83kvrzWqf8EJzu6qndgYrCIpDESKOAAPes1dj0JDXeispiqqiZYBo+fyA+26FZA3DGGdMJPYgff8Xz1dSLP3G1RT1zBUhdD3+v+o5gtD2SiO2eN/73sZDBxp4lKySpdJbQWYYtG+pi5zGc/rJL/KmAzewz0dwDkFwAhKHOLKWRYEUif0BbL63huEgv3llTnc2/k3BQZCYQga29kzAqqReet8SA4XJWrdEoebFfpMNwzCMTceWlo1SCsRhlIT0fC8gpbli0P4BXMjxeQvm5jg03UilY2RAluuGRGrPbZYWdcmpt5QstMl6VckwNUdkgO4r50V7cy40lQIatUyIynhxQtv1x+xtB6UtbdWwNjpX1zruUbs3hmEYxo5jIvE1EK9lQZXBWacAaCrmrC5CY5HlbA4XoR6zpBpK15hA9MNbE/uq5UjKro7eEV2pjCrKd2g3dvfYQqW23fWQGVu9CQJcmufYAixPwr4dHFaH4XJhNo+r1e80DMMwxhITiaOEpsI4DgdhglqcTEY4SfGQRVoC5cOwOkL66ugFak6oRaWuEXLfVXayfglGV3msFgdfyxWeygSNZnRX8pQrF7/wRd45cxfTp45u8bmKe7bOdAxfSpvNjeHsCxEwDMMwxhUTia+B1xCS2MdAj7VQxAVKkeHg03MdV3Vl040s4L2DlQxXODgdRQaMDO9FX7VdZQepvN6/Q/+RByZWbMbkDokKiCrSVpbm5jj2uhlqR45s6Tn7XPTSf7na87ju8baCXSIQd8llGIZh7AgmEl8Da4qhIagm8PYvYFUbXiB3afuOHfC1rnh9+2UElNxF8iLBJLm5Fa9u3fOU4y+vpcT1bNO3k/Q/NXC4W7Gya/+PmvJVWD47y/d/8D2OPnA/0Wdr59UOky487DikO19lO7rq+2JYrVyEUxoDsGkxDMO4NkwkvkauJWTsavtK4f7c1BVugNpoS05wbSYihQUzlR9B3IYcw4O2vVrMZd+GO0QSYcqyRJgNuJqj8U8+Dm0l+uTel01Wq5HQsQaHzqHXloKj6aA3DMMwxgUTiWPKk898D82EyVhHC1EEfttcvTtNmQPkRImZI8YIC8twwJllzjAMwzAwY8XY8uSPTnP/Aw9w5MB+cFoUEh4vdZTczYJqtQ7lmKhkwzAMw1gHE4mjhEa2q+WI1oRQc9RpErbljKNIkbojZSRgtqUTUXbxWbNgtmEYhmGMEOZuHjEkQhYBLymBQrWTyRFj1+Ll3AZkxgADoUrs1EeMhWRRim4y28QoCCVFQGO3ZKJEYpTB83uNc+Mq2SquuK2iQCg/HKSfd72IrKZvS2qNpyqoVrL6DcMwjB1nV69F1x+FFVG33q6XyuooqFQTbseUInunL197CxlP061hGIZxHWEicZQoNeJ2nKtsGly0CdzuBh8jh3RF4oastIZhGIaxS7HV0DAMwzAMw+jDROJY0KbM201RjaHymuIpYuHG1QUqLZIdtbZFlbyNtXGVLzrv0a18KwYAVRwRpDbmJnTDMIy1MZE4Srjk/Y0CxM1cKJM0LF3KgUgQ0KpbdXuSqkcKkSKB5JXLLOdtqAn5uE3CSCCICllssfoDzNYQURyCr/75E9OKhmEYvZhIHCVcEojBAXEzLSpJcUZVoiotAi2NLOehm86sbMf6PDKIpHZ2XuDKH/xPTtwwg043WTGRuEMIdV0Gzbf8THUaOIUmtcrZTSQahmH0YiJxlNAkENsOkNipq7dZxxYgauBvXn6euQuXuHX6FGgqODKOb4RSFx96dYk7H3wAcTlTuaKaryqwbWwlEQjU2jBXb4Lf+qpcj3zj8xzdf4R6akQJY1wp1DAM42qMozYYXVxyfzoF8kCbTTDuKRAboEKMASFwPl9hHxO8d+ZtxdoY00nHsGqmAJoJIQRwGeqk6Nu80yMbE9QRltu0Hv8q7WMzSK2eIhR166x7L145z313vhklEF0kiitqNG7ByQzDMK5jTCSOEpqKaTdyIEhnoXxNh6rWWtTubRZxfOPyd9hTazKhtSJcsWjLN46ZK8Ulq6b6lNJp3Lz1KlHL88ju+zXUNb4GCTENkRN7JnnD330/hG4ay1bdgegUJw6fmjJiAYmGYRiD2X2r0/VMcPgW7J8L/PSzj1KPkdprNGmtEok5SYAWcXhPPHua9z7wLhx5t14icXz6Fkv3S4SOKz5RtujbGjpiqTBcqQpCxm76VeyIQh3wNWB7EWgUUy7ebXl8YHSKiuLVrT6PCUXDMIxVjKGDcYTJhLmTx1j6hYc5/8VHaf3pH1G/5Samf/VXaNx0nD033gDOo5IRshpOPIijnSVjVGkXIV8pCkJr+lfLwOUIAUHID3uOTB7kAHtpuxzXKT+iyC4Vi23xOIWGkjK7AaIy+7Vv8swzp7lz8T4+8/738Y7/8N/Y97fuHfq4G5kph3Z6u3iSETeSodRRMnwhorQQru0NHHuzcYAfcHHDRGqW16DS7WXTEX4VIZaFFZjLufidHzBfPNcSRYoPOLVSxG22eHNFDGJ0OO+AQCqII7tIqhuGYVw7JhJHiSyjeedtfPi/foLG8jwLP3yaH3zhMX786c8x0cpp5CuIBoIL+EadBz78YfzePdSJaSG98Wb06LHCV6cgoZCNLXARUQFpskeVeluptcriiLtPFK4mIi5HYoTZedzpv0l+/ZU2S5/8DBPzC/zsC3/F4rkrtDSkmNAtQCuJ5KUlsZRPShEHGdPQcOmXc6fujJCs0SLSeaQ6/qtQdS9XRSJAJC8+hNRwsy3OfeI/89KjX+TwB3+BhTynkXlc0aM8uf4337ynkj48Ia5iOK62ZjQMwzDAROJoIRAzT6x7mAxM3X83b3nordCuEb/1fdyTjyPk4HJWVpb56//0uywsLpJrSm859OYHmL7lVjLvESdEjSBKlJxIJIuO6WwPLxz+Ec9+9VNk+X6kiMeSYjHejVZENNJyAa9K6+Jlnv/8Y2QTNbJ24LbZDD8xwd3veg/3eIEbTm1sDnR9ESMVcVUeO32f7LbtEDrzXz3szt2J4swxgHNFL3EZuMladCI7S0UcS59+suIpHl2JLH33KQ5eniPccjO1rEYMOZ6IbmGcpop2rLWrL2sXvvcNwzCuAROJI4QCmThqCMIk7YlJFEHrwMP3Un/43s6G9XbO3/74b+IC+BXFh8ilbz/J3DPPEtvLxRHTSigCLo+oCoE2xw4F9q4oU3mxEFfiHmUXJlGgwt5Y2O0mD3Pn7/0Xpm++gdjOWfjrJ/jUf/9D3vDRf4CcOMgKWacwyjC4IQ1dKRGjKwVVFS+Olof5LIn8nJRjVJbmieu4/qvCcj1hu5FtIVJTaKwsoVoIxbRj18q6rp5SCIGn/uQvyOeWaS5HWl5xmuRxuwZHX56jdf4KU3sOMnn3G6nnRUGcLNCSOhNsTZigrhUcaRiGYazCROJIUCaOtBBSfURinZqmuEIkgPNEhRgBVXw9Y+LQwY4bMAcO3PJeDtCfGRqBFZJTs66KfuUCB3/pH3LT8buhZ9vdGLtfjYkrPLkssUKMkeX9z3IsTiCvtpDmAvKjZ+ClK5QRg+sRh0wsigK42M3gCEp9usbMK99jbvY5sq88RnjBoV4hi0gI+B1rg6OwtMQTv/97hMtXViVBxaEut5jtPHBlX5PJm2c4P1lk6+eHEHVIdpGXXJOb/vnv8Lpf//toBiyD84LLHZm0i5qJW5V5bELRMAxjPUwkjgQpFkqoIWUZmr5wrBQX5jydF8QV8WJFwH2MqbOKerdq/dMIuEBEefyFp1g6P8/k3RPdWLNdTtfNq+XMkeGIrTa1cy9x9MIr/Pjf/FvmGsoLL7/M/uMnij2HmZtSSF5NcaTIUIeQS7Jk1TRyZv8Sj++dZf/dN/P5P/40J1+NxCLhw0ct05C2HaeO3AmH3/0uXv+WB4r3Ypl+vP7+ZambmAf80UPIPXehEro1OxFwK+BqSFE8WwHxxf5CtxTR7n97GoZhjCwmEkeGshRKSbtngYwIvn+vYvF2UGQ096MRvATaopxfvMhB2cepA8fIVIv1f/evxLFiFVTA43CLyzz12Ue4ZaLJybe/A6brPDBzEt72EN1qfeugZbeOq4tEKPot+sI63F5mzl3mB//vP/Jbv/bPuPkjM7C8nLYrU4N3ytKlGWQOaj5pYE83JXuI6u5SMd1WN09PhSIIYs+q5x3Ff2WcoAhW0dwwDGNnMZE4qkht/W2GxSs1akSNrGQBFxxRW0AN1WwsRGIVLaL+pFnn6Ic/ynkWOfaB98C+JmiNIDKEo7fMSi5cokOQRWi5tHWdGj9cXOJM4xCvsg/yjOXmFG0RWgLNa7zGa6FbzFoh5vgi89ohDPicsvZxtCKzO7VsOkceeGJVB9QxE6JhGMbOYyJxDBCJ0PLMuSV+uHCGxmKOU4/iEUlu6tSKbpwW5ho6WWfmYx9isrReFZm4g+oDrkmnGPkQlsQIWVnEO0YmNVJzSiisxg3NycRRR2joDiYQSaocmKNE58lCCqcEyB0dl/hauLKyEqnWoji3qrONVuy61aiKasMfVUX8LkyiMgzDuI4wkTguCMzHBb78na/xj3/uN2hKc5WuUVVUdU2X9W7FDxLGnf5x66lFVzF4bVBgq3ayjLt9P0r1NTpiXUjFx6MUpTdh/TqSuvoKtFP3cKffW+U9Lea45zpGZ9YNwzBGAxOJY0GRAR0jWs84tv8IXlxfbb5xowyzG0yRVX7VvV3l+yFPWOKFKFocJVnaRF1R2fwF4gAAC4RJREFUJmerMno3hhR6KnddcZiVZXDWEYpDlI/cIcLqqubFNY7scA3DMHYQE4njQgZkjgVyJpZTPUYnrpPhHOPwtQGvR9wactDBGgrBpY4cm4XSMTxGjahEHvnhZzk1sZejZaxfBK+KF00JLjuoXByyKikKGJBxvzZrbSYinWz8raUr8KN6HJFAYEGWabcDZVykSvHeKEWvqUXDMIwOJhLHghQHdvnSJfLFZWpS6/RrHq84xCHZoikpazSWqTO5j9x86y2dezFKjJbT+7WxyuAp0G63+cnLP0WWWmg7IDUrlWgYhnE1Rm91MjaVlCiQ7CrPPX+GN77+DcycmCFsoKuIsTWopNI84+7230qqnfe8z/j297/L7cdfx43HZvq78hmGYRirMJG4yxERoipthFYIHJrYwwQNWxxHiG6CtNm1NpPUxyjFVirQBhZqcIxJpplIInGnmtoYhmFcB5i7eRfTyVgWT44SXMSHWMmmNbYTB32xby6CLzNtK8nNdoeulUoMaiESgyjLPqeZZ3gtnPyR9FfQhKJhGEYfJhLHANFUwiSKVmrRmQzZNtawVtVCamxSyplYSZi2UNFrpBTdULzVU+Z4PSot77rBFtLzaBiGYXQwd/M4oBBRVLq9i40doiIWhW7tQRjlsjHXKbpam6e8aiUinS7ehmEYxtqYSBwHoiTXsyhRLGFlx1BWWRVbRU9kVzwRMa/nZlOWOBJS+MWSz6lFj0tZQwzVjNowDGNMMZFoGFuNVL6KtnYrGrlCm6W8nTLNxcoRbSZ52SWGItQiD8zGeb47/xzHpUmtiNfttGO0BBbDMIw+TCQaxnYh5YPws8sv8MQPvs9tN95ehsztitqEI4mC9575pUUuLs3ywff8ahKPebAJNwzDuAomEscQWxd3GBFCVBYWFzl1eCYV07aM5k2lby5zRZwQPExNTOLE4WuWt2cYhnE17K/kLkakaK2WQ+lPK12avYuoc/Z5YetQkAjqwUVWaPMX3/0K9x+8g2mdoimTQOrhrGXI6G5VjBtx6W5kDnq27SQESdFr2qW43BBWaFJPZaA86Z5s9FyGYRhjgolEw9g2AhBos8JPLj/Pe9/0bo7I/vRLqHQFonHt9Iq+snK2lIURpbudxSIahmEMxMxHhrGNKML88gIX80tMBt+p4WfNVgzDMIxRw0SiYWwXRXHnS3NXcIczfv72h7rdVkwkGoZhGCOGuZvHAHV0Okz4OL7hV1UtVi1i3cdaL1yrkBMPaGoPNxnY67NkQdytAvFqrtyiI8q2nloF1FW6DlU2NgzDMPowkTgmxOJrHLp6RPpN5L1arJwHGSjSygLLm6UmBEQ4wxJ7WGKJRSRM0iayIgEvbtV9EQRk+J4gO60xc9Kc14BJIA9tMtdAQ+puEmLA++7sCSBOiJqUonO++ymmeuOudmG9IjN0fw4uvezKw0XAg1dlX+iOoXzJ3CmGYRiDMZE4DghIITrS2ro7laJWHqsWQwAtvtHildSgrRQLPfOh3ZlazbXMm/BHpz/N5XNnmD5+gFdmL/KpZ/6csBxw0fdv7obPYomyc0JRgOhSrGWmUGtHbrnpNg7uO4SIMuka7PFTaNEUT6pSURwxRiBQL1VypQGKXiWTR6RbM0gjOOfRANGlA0jRki+iOM2IMQcRWhrSbpUJ22KjpmEYxnWLicQxQBydbrW72ZJYFYeRwqXcUYsRLf4VTxQWO0i1UCo7DrItXatb2MH5PZf4zPmv0roQmJrayxPtn7LcWhpcfmiIVOdySLHo4rITuCJhuBR/0Smf/MqjXLryKvUAd0zP8K773kFz2YM6XPSdbdvtNllW45577uEmf7Dv2DKUjS9wZeFVnnr2aaam9nDPbfeSFcfXsvRQBkjk5fkLzPmIK0dQqMPuO8IwDMOoYiJxHFBoiOJVuJgvsdxeoVlr7PSoNp1SUnRciGULkwgu+K4PkkJgCSwLZKIso3gci60rfPPVZ9NOkneOLQiyQYVdWs4UxeN5ZXGZ377l/bznrrez301z075T+JS6AiqUXfm0LNeyjiiVNb7fTvpd+ML5O2a5cOkCwbX58dxz/PmXH2WpGRARVFKtzogSYySiNM99Ac0cuV8tjFWv3lc5xsjExAQXL17k7NmznDpxin2v7GeptbIqjqAWIRPhpQsvcft9t6dxOOn0c7Z2iIZhGIMxkTgOOKiRccdNd/C/HnmEl153jltP3rjToxqKDS/ilYSUgOIkia9XpMVLnCNoZFr2siRLPHfxRR55/EvglBAiAszOzrJnpVCWUvV9Vl2lGxt/QojuMm9+469w34G7cNHh0DRKVaBGjOU+4AZ4oAdcKlDo3p0MTNTYtdB6x9HmHo6enCJo4PXHbuYXb387OYMso8mM98LLL7LUbpH3ev01Z60L02J3UOQGR+PBBkcOH+Fn554jFjbWiJKj7IuBKJ65mRW+cPrryO2VTwqmDw3DMNbEROJYoDh1HJw6QMgVarVkbVtTWOyQ4hgkBsuYQk1RbbgkojpWt0KeKOl5VXg1zuIzz/LKCk88dZqVmPPixBW+9LUv0VpY4u7X38mZF55jvrXMLQ++kenpvYQQiKocl1P89hs+UEQsdoXN4D41az3XfaUbhyfUmWMfE9TJgWY56u7FSM/e19BxZLtIp/WV00dUIyHk1LynHjKmpFZ0m1k9Tg0p4fvQkTuJQp+MjORcDV/YYQNKTo7DM3PqMAFFicXzynRsEyQjF8eDt74DR94R/KYRDcMw1sZE4ljQph5rZJrh4iRLuG5KaklpVRGI0t6RUYpkSTCplNVikEI9iAgxKlIrEk4kCcRAZIUVPvf1LyPNjDY5f/n8l5k+PM0zZ55lMbS55/77aYYGb3v4Xbz10BvYG2HxLY7MZdw1dYQsa6zOvNXCkjhUheshc2MFkCZKQBHUBZK4KuLneqxa14E+TPRZ4xwijizLQAMqHqlOkXT3E1/usdYHluH+PDmEGrWeZ6um2DoZQkNhCojiKUW4M1ezYRjGmphI3O1o8Z8DYg5unrON5znl91Lv8Wk6HC0ifofeFkqbSCQ6pRYDuTgWZYUziy/Scp7JiUnOzp3ny09/gx+9+CyxKB0TnLD08mUOTR2EXPnYQ7/M62+4jfq9wh5f5+jEsa6rOABtkkVSUtZzrooT1wlhTGxA/A1NQFk957rGDxux5e50CZzV81ZBfTKS7vgAV4/O4c2EaBiGMQSiag3Bdjtt2mTqOasX+dd//LssTtQ4nu2nplX/Xwrmi+TEvmrD20dKEIEoQi3LCK2cxbk5nDpOHD/J888/x2Rjgnc+9E68lNLPcXT/QU7sO4EqHKCJJxVNdqI4JAkDgNg1oEoqX0jo8eyu7YYfOOChSVbEKr764nWLyBrTsEYY4o4zCmMwDMO4DjCROAasEKhHZUkCp/Nn+dNzTzAlPomhnqrSUVpEGb5G3+bi8NHhVVj2QkMd++pTPHzk77BfmnhqZAi1IuGjgSNDcDhA07UUuSaKK2tYdym+z6UrBB395WO2SiRGerN1TSTuCKMwBsMwjOsAE4m7miL5QiGXCAhOBScVC+Kgu7/ji6h2Yt0ikBPJtCh/XdY+dGWmg6Tvq5krpNqBIpIyo3trHJbdOTotOfpPPzQmEk0kGoZh7FJMJI4FpTgpldHuQFVT1nNHOBbXVgTJVbVhxzpYSdDpchXxZrx2RvIDiGEYhjEslrgyFkjP4y7DDU6d6K0os3ZdvF06L4ZhGIZxDZgl0TB62SJ389hhlkTDMIzrmt3jezQMwzAMwzA2DROJhmEYhmEYRh8mEg3DMAzDMIw+LHHFMHqxuLnNwebRMAzjusYsiYZhGIZhGEYfJhINwzAMwzCMPkwkGoZhGIZhGH2YSDQMwzAMwzD6MJFoGIZhGIZh9GEi0TAMwzAMw+jDRKJhGIZhGIbRh4lEwzAMwzAMo4//D2TM07LoDS54AAAAAElFTkSuQmCC;" parent="1" vertex="1">
          <mxGeometry x="875.9982352941175" y="928.0023529411765" width="649" height="341" as="geometry" />
        </mxCell>
        <mxCell id="UTg7Y4JdVEXFbtrRq7Db-1" value="拿出来，然后比较大的往后挪，最后插入" style="text;html=1;align=center;verticalAlign=middle;resizable=0;points=[];autosize=1;strokeColor=#6c8ebf;fillColor=#dae8fc;fontSize=19;" parent="1" vertex="1">
          <mxGeometry x="185" y="1161" width="360" height="35" as="geometry" />
        </mxCell>
        <mxCell id="UTg7Y4JdVEXFbtrRq7Db-2" value="O(N^1.3)" style="text;html=1;align=center;verticalAlign=middle;resizable=0;points=[];autosize=1;strokeColor=none;fillColor=none;fontSize=19;" parent="1" vertex="1">
          <mxGeometry x="-342" y="987" width="94" height="35" as="geometry" />
        </mxCell>
        <mxCell id="UTg7Y4JdVEXFbtrRq7Db-3" value="选择排序&lt;br&gt;&lt;br&gt;O(N^2)" style="text;html=1;align=center;verticalAlign=middle;resizable=0;points=[];autosize=1;strokeColor=none;fillColor=none;fontSize=19;" parent="1" vertex="1">
          <mxGeometry x="-324" y="1513" width="94" height="80" as="geometry" />
        </mxCell>
        <mxCell id="UTg7Y4JdVEXFbtrRq7Db-14" value="9" style="rounded=0;whiteSpace=wrap;html=1;fontSize=22;" parent="1" vertex="1">
          <mxGeometry x="-82" y="1513" width="98" height="65" as="geometry" />
        </mxCell>
        <mxCell id="UTg7Y4JdVEXFbtrRq7Db-15" value="2" style="rounded=0;whiteSpace=wrap;html=1;fontSize=22;" parent="1" vertex="1">
          <mxGeometry x="16" y="1513" width="98" height="65" as="geometry" />
        </mxCell>
        <mxCell id="UTg7Y4JdVEXFbtrRq7Db-16" value="1" style="rounded=0;whiteSpace=wrap;html=1;fontSize=22;" parent="1" vertex="1">
          <mxGeometry x="114" y="1513" width="101" height="65" as="geometry" />
        </mxCell>
        <mxCell id="UTg7Y4JdVEXFbtrRq7Db-17" value="6" style="rounded=0;whiteSpace=wrap;html=1;fontSize=22;" parent="1" vertex="1">
          <mxGeometry x="212" y="1513" width="98" height="65" as="geometry" />
        </mxCell>
        <mxCell id="UTg7Y4JdVEXFbtrRq7Db-18" value="5" style="rounded=0;whiteSpace=wrap;html=1;fontSize=22;" parent="1" vertex="1">
          <mxGeometry x="310" y="1513" width="98" height="65" as="geometry" />
        </mxCell>
        <mxCell id="UTg7Y4JdVEXFbtrRq7Db-19" value="4" style="rounded=0;whiteSpace=wrap;html=1;fontSize=22;" parent="1" vertex="1">
          <mxGeometry x="408" y="1513" width="98" height="65" as="geometry" />
        </mxCell>
        <mxCell id="UTg7Y4JdVEXFbtrRq7Db-20" value="9" style="rounded=0;whiteSpace=wrap;html=1;fontSize=22;" parent="1" vertex="1">
          <mxGeometry x="506" y="1513" width="98" height="65" as="geometry" />
        </mxCell>
        <mxCell id="UTg7Y4JdVEXFbtrRq7Db-21" value="8" style="rounded=0;whiteSpace=wrap;html=1;fontSize=22;" parent="1" vertex="1">
          <mxGeometry x="604" y="1513" width="98" height="65" as="geometry" />
        </mxCell>
        <mxCell id="UTg7Y4JdVEXFbtrRq7Db-22" value="7" style="rounded=0;whiteSpace=wrap;html=1;fontSize=22;" parent="1" vertex="1">
          <mxGeometry x="702" y="1513" width="98" height="65" as="geometry" />
        </mxCell>
        <mxCell id="UTg7Y4JdVEXFbtrRq7Db-23" value="3" style="rounded=0;whiteSpace=wrap;html=1;fontSize=22;" parent="1" vertex="1">
          <mxGeometry x="-82" y="1513" width="98" height="65" as="geometry" />
        </mxCell>
        <mxCell id="UTg7Y4JdVEXFbtrRq7Db-25" value="" style="endArrow=classic;html=1;rounded=0;fontSize=19;" parent="1" edge="1">
          <mxGeometry width="50" height="50" relative="1" as="geometry">
            <mxPoint x="213.5" y="1652.5" as="sourcePoint" />
            <mxPoint x="213.5" y="1596.5" as="targetPoint" />
          </mxGeometry>
        </mxCell>
        <mxCell id="UTg7Y4JdVEXFbtrRq7Db-26" value="" style="endArrow=classic;html=1;rounded=0;fontSize=19;" parent="1" edge="1">
          <mxGeometry width="50" height="50" relative="1" as="geometry">
            <mxPoint x="408.00000000000006" y="1650" as="sourcePoint" />
            <mxPoint x="408.00000000000006" y="1594" as="targetPoint" />
          </mxGeometry>
        </mxCell>
        <mxCell id="UTg7Y4JdVEXFbtrRq7Db-27" value="begin" style="text;html=1;align=center;verticalAlign=middle;resizable=0;points=[];autosize=1;strokeColor=none;fillColor=none;fontSize=19;" parent="1" vertex="1">
          <mxGeometry x="212.5" y="1609.5" width="65" height="35" as="geometry" />
        </mxCell>
        <mxCell id="UTg7Y4JdVEXFbtrRq7Db-28" value="end" style="text;html=1;align=center;verticalAlign=middle;resizable=0;points=[];autosize=1;strokeColor=none;fillColor=none;fontSize=19;" parent="1" vertex="1">
          <mxGeometry x="409.43" y="1606" width="50" height="35" as="geometry" />
        </mxCell>
        <mxCell id="UTg7Y4JdVEXFbtrRq7Db-29" value="冒泡排序&lt;br&gt;&lt;br&gt;O(N^2)" style="text;html=1;align=center;verticalAlign=middle;resizable=0;points=[];autosize=1;strokeColor=none;fillColor=none;fontSize=19;" parent="1" vertex="1">
          <mxGeometry x="-328" y="1848" width="94" height="80" as="geometry" />
        </mxCell>
        <mxCell id="UTg7Y4JdVEXFbtrRq7Db-30" value="9" style="rounded=0;whiteSpace=wrap;html=1;fontSize=22;" parent="1" vertex="1">
          <mxGeometry x="-97" y="1852" width="98" height="65" as="geometry" />
        </mxCell>
        <mxCell id="UTg7Y4JdVEXFbtrRq7Db-31" value="2" style="rounded=0;whiteSpace=wrap;html=1;fontSize=22;" parent="1" vertex="1">
          <mxGeometry x="1" y="1852" width="98" height="65" as="geometry" />
        </mxCell>
        <mxCell id="UTg7Y4JdVEXFbtrRq7Db-32" value="1" style="rounded=0;whiteSpace=wrap;html=1;fontSize=22;" parent="1" vertex="1">
          <mxGeometry x="99" y="1852" width="101" height="65" as="geometry" />
        </mxCell>
        <mxCell id="UTg7Y4JdVEXFbtrRq7Db-33" value="6" style="rounded=0;whiteSpace=wrap;html=1;fontSize=22;" parent="1" vertex="1">
          <mxGeometry x="197" y="1852" width="98" height="65" as="geometry" />
        </mxCell>
        <mxCell id="UTg7Y4JdVEXFbtrRq7Db-34" value="5" style="rounded=0;whiteSpace=wrap;html=1;fontSize=22;" parent="1" vertex="1">
          <mxGeometry x="295" y="1852" width="98" height="65" as="geometry" />
        </mxCell>
        <mxCell id="UTg7Y4JdVEXFbtrRq7Db-35" value="4" style="rounded=0;whiteSpace=wrap;html=1;fontSize=22;" parent="1" vertex="1">
          <mxGeometry x="393" y="1852" width="98" height="65" as="geometry" />
        </mxCell>
        <mxCell id="UTg7Y4JdVEXFbtrRq7Db-36" value="9" style="rounded=0;whiteSpace=wrap;html=1;fontSize=22;" parent="1" vertex="1">
          <mxGeometry x="491" y="1852" width="98" height="65" as="geometry" />
        </mxCell>
        <mxCell id="UTg7Y4JdVEXFbtrRq7Db-37" value="8" style="rounded=0;whiteSpace=wrap;html=1;fontSize=22;" parent="1" vertex="1">
          <mxGeometry x="589" y="1852" width="98" height="65" as="geometry" />
        </mxCell>
        <mxCell id="UTg7Y4JdVEXFbtrRq7Db-38" value="7" style="rounded=0;whiteSpace=wrap;html=1;fontSize=22;" parent="1" vertex="1">
          <mxGeometry x="687" y="1852" width="98" height="65" as="geometry" />
        </mxCell>
        <mxCell id="UTg7Y4JdVEXFbtrRq7Db-39" value="3" style="rounded=0;whiteSpace=wrap;html=1;fontSize=22;" parent="1" vertex="1">
          <mxGeometry x="-97" y="1852" width="98" height="65" as="geometry" />
        </mxCell>
        <mxCell id="UTg7Y4JdVEXFbtrRq7Db-40" value="" style="endArrow=classic;html=1;rounded=0;fontSize=19;" parent="1" edge="1">
          <mxGeometry width="50" height="50" relative="1" as="geometry">
            <mxPoint x="2" y="2019" as="sourcePoint" />
            <mxPoint x="2" y="1962.9999999999995" as="targetPoint" />
          </mxGeometry>
        </mxCell>
        <mxCell id="UTg7Y4JdVEXFbtrRq7Db-42" value="begin" style="text;html=1;align=center;verticalAlign=middle;resizable=0;points=[];autosize=1;strokeColor=none;fillColor=none;fontSize=19;" parent="1" vertex="1">
          <mxGeometry x="1" y="1976" width="65" height="35" as="geometry" />
        </mxCell>
        <mxCell id="opSwpIkZeqHumRvgv5nS-1" value="快速排序&lt;br&gt;" style="text;html=1;align=center;verticalAlign=middle;resizable=0;points=[];autosize=1;strokeColor=none;fillColor=none;fontSize=19;" vertex="1" parent="1">
          <mxGeometry x="-324" y="2148" width="94" height="35" as="geometry" />
        </mxCell>
        <mxCell id="opSwpIkZeqHumRvgv5nS-3" value="9" style="rounded=0;whiteSpace=wrap;html=1;fontSize=22;" vertex="1" parent="1">
          <mxGeometry x="-106" y="2139" width="98" height="65" as="geometry" />
        </mxCell>
        <mxCell id="opSwpIkZeqHumRvgv5nS-4" value="2" style="rounded=0;whiteSpace=wrap;html=1;fontSize=22;" vertex="1" parent="1">
          <mxGeometry x="-8" y="2139" width="98" height="65" as="geometry" />
        </mxCell>
        <mxCell id="opSwpIkZeqHumRvgv5nS-5" value="1" style="rounded=0;whiteSpace=wrap;html=1;fontSize=22;" vertex="1" parent="1">
          <mxGeometry x="90" y="2139" width="101" height="65" as="geometry" />
        </mxCell>
        <mxCell id="opSwpIkZeqHumRvgv5nS-6" value="6" style="rounded=0;whiteSpace=wrap;html=1;fontSize=22;" vertex="1" parent="1">
          <mxGeometry x="188" y="2139" width="98" height="65" as="geometry" />
        </mxCell>
        <mxCell id="opSwpIkZeqHumRvgv5nS-7" value="5" style="rounded=0;whiteSpace=wrap;html=1;fontSize=22;" vertex="1" parent="1">
          <mxGeometry x="286" y="2139" width="98" height="65" as="geometry" />
        </mxCell>
        <mxCell id="opSwpIkZeqHumRvgv5nS-8" value="4" style="rounded=0;whiteSpace=wrap;html=1;fontSize=22;" vertex="1" parent="1">
          <mxGeometry x="384" y="2139" width="98" height="65" as="geometry" />
        </mxCell>
        <mxCell id="opSwpIkZeqHumRvgv5nS-9" value="9" style="rounded=0;whiteSpace=wrap;html=1;fontSize=22;" vertex="1" parent="1">
          <mxGeometry x="482" y="2139" width="98" height="65" as="geometry" />
        </mxCell>
        <mxCell id="opSwpIkZeqHumRvgv5nS-10" value="8" style="rounded=0;whiteSpace=wrap;html=1;fontSize=22;" vertex="1" parent="1">
          <mxGeometry x="580" y="2139" width="98" height="65" as="geometry" />
        </mxCell>
        <mxCell id="opSwpIkZeqHumRvgv5nS-11" value="7" style="rounded=0;whiteSpace=wrap;html=1;fontSize=22;" vertex="1" parent="1">
          <mxGeometry x="678" y="2139" width="98" height="65" as="geometry" />
        </mxCell>
        <mxCell id="opSwpIkZeqHumRvgv5nS-12" value="3" style="rounded=0;whiteSpace=wrap;html=1;fontSize=22;fillColor=#f8cecc;strokeColor=#b85450;" vertex="1" parent="1">
          <mxGeometry x="-106" y="2139" width="98" height="65" as="geometry" />
        </mxCell>
        <mxCell id="opSwpIkZeqHumRvgv5nS-13" value="" style="endArrow=classic;html=1;rounded=0;fontSize=19;" edge="1" parent="1">
          <mxGeometry width="50" height="50" relative="1" as="geometry">
            <mxPoint x="-105" y="2279" as="sourcePoint" />
            <mxPoint x="-105" y="2222.9999999999995" as="targetPoint" />
          </mxGeometry>
        </mxCell>
        <mxCell id="opSwpIkZeqHumRvgv5nS-14" value="begin" style="text;html=1;align=center;verticalAlign=middle;resizable=0;points=[];autosize=1;strokeColor=none;fillColor=none;fontSize=19;" vertex="1" parent="1">
          <mxGeometry x="-106" y="2236" width="65" height="35" as="geometry" />
        </mxCell>
        <mxCell id="opSwpIkZeqHumRvgv5nS-15" value="" style="endArrow=classic;html=1;rounded=0;fontSize=19;" edge="1" parent="1">
          <mxGeometry width="50" height="50" relative="1" as="geometry">
            <mxPoint x="678" y="2279" as="sourcePoint" />
            <mxPoint x="678" y="2223" as="targetPoint" />
          </mxGeometry>
        </mxCell>
        <mxCell id="opSwpIkZeqHumRvgv5nS-16" value="end" style="text;html=1;align=center;verticalAlign=middle;resizable=0;points=[];autosize=1;strokeColor=none;fillColor=none;fontSize=19;" vertex="1" parent="1">
          <mxGeometry x="679.4300000000001" y="2235" width="50" height="35" as="geometry" />
        </mxCell>
        <mxCell id="opSwpIkZeqHumRvgv5nS-17" value="key&lt;br style=&quot;font-size: 18px;&quot;&gt;" style="text;html=1;align=center;verticalAlign=middle;resizable=0;points=[];autosize=1;strokeColor=none;fillColor=none;fontSize=18;" vertex="1" parent="1">
          <mxGeometry x="-80" y="2101" width="46" height="34" as="geometry" />
        </mxCell>
        <mxCell id="opSwpIkZeqHumRvgv5nS-18" value="9" style="rounded=0;whiteSpace=wrap;html=1;fontSize=22;" vertex="1" parent="1">
          <mxGeometry x="2494" y="437" width="98" height="65" as="geometry" />
        </mxCell>
        <mxCell id="opSwpIkZeqHumRvgv5nS-19" value="2" style="rounded=0;whiteSpace=wrap;html=1;fontSize=22;" vertex="1" parent="1">
          <mxGeometry x="2592" y="437" width="98" height="65" as="geometry" />
        </mxCell>
        <mxCell id="opSwpIkZeqHumRvgv5nS-20" value="9" style="rounded=0;whiteSpace=wrap;html=1;fontSize=22;" vertex="1" parent="1">
          <mxGeometry x="2690" y="437" width="101" height="65" as="geometry" />
        </mxCell>
        <mxCell id="opSwpIkZeqHumRvgv5nS-21" value="6" style="rounded=0;whiteSpace=wrap;html=1;fontSize=22;" vertex="1" parent="1">
          <mxGeometry x="2788" y="437" width="98" height="65" as="geometry" />
        </mxCell>
        <mxCell id="opSwpIkZeqHumRvgv5nS-22" value="5" style="rounded=0;whiteSpace=wrap;html=1;fontSize=22;" vertex="1" parent="1">
          <mxGeometry x="2886" y="437" width="98" height="65" as="geometry" />
        </mxCell>
        <mxCell id="opSwpIkZeqHumRvgv5nS-23" value="4" style="rounded=0;whiteSpace=wrap;html=1;fontSize=22;" vertex="1" parent="1">
          <mxGeometry x="2984" y="437" width="98" height="65" as="geometry" />
        </mxCell>
        <mxCell id="opSwpIkZeqHumRvgv5nS-24" value="1" style="rounded=0;whiteSpace=wrap;html=1;fontSize=22;fillColor=#dae8fc;strokeColor=#6c8ebf;" vertex="1" parent="1">
          <mxGeometry x="3082" y="437" width="98" height="65" as="geometry" />
        </mxCell>
        <mxCell id="opSwpIkZeqHumRvgv5nS-25" value="8" style="rounded=0;whiteSpace=wrap;html=1;fontSize=22;" vertex="1" parent="1">
          <mxGeometry x="3180" y="437" width="98" height="65" as="geometry" />
        </mxCell>
        <mxCell id="opSwpIkZeqHumRvgv5nS-26" value="7" style="rounded=0;whiteSpace=wrap;html=1;fontSize=22;" vertex="1" parent="1">
          <mxGeometry x="3278" y="437" width="98" height="65" as="geometry" />
        </mxCell>
        <mxCell id="opSwpIkZeqHumRvgv5nS-27" value="3" style="rounded=0;whiteSpace=wrap;html=1;fontSize=22;fillColor=#f8cecc;strokeColor=#b85450;" vertex="1" parent="1">
          <mxGeometry x="2494" y="437" width="98" height="65" as="geometry" />
        </mxCell>
        <mxCell id="opSwpIkZeqHumRvgv5nS-28" value="" style="endArrow=classic;html=1;rounded=0;fontSize=19;" edge="1" parent="1">
          <mxGeometry width="50" height="50" relative="1" as="geometry">
            <mxPoint x="2495" y="586" as="sourcePoint" />
            <mxPoint x="2495" y="529.9999999999995" as="targetPoint" />
          </mxGeometry>
        </mxCell>
        <mxCell id="opSwpIkZeqHumRvgv5nS-29" value="begin" style="text;html=1;align=center;verticalAlign=middle;resizable=0;points=[];autosize=1;strokeColor=none;fillColor=none;fontSize=19;" vertex="1" parent="1">
          <mxGeometry x="2494" y="543" width="65" height="35" as="geometry" />
        </mxCell>
        <mxCell id="opSwpIkZeqHumRvgv5nS-30" value="" style="endArrow=classic;html=1;rounded=0;fontSize=19;" edge="1" parent="1">
          <mxGeometry width="50" height="50" relative="1" as="geometry">
            <mxPoint x="3082" y="584" as="sourcePoint" />
            <mxPoint x="3082" y="528" as="targetPoint" />
          </mxGeometry>
        </mxCell>
        <mxCell id="opSwpIkZeqHumRvgv5nS-31" value="end" style="text;html=1;align=center;verticalAlign=middle;resizable=0;points=[];autosize=1;strokeColor=none;fillColor=none;fontSize=19;" vertex="1" parent="1">
          <mxGeometry x="3083.4300000000003" y="540" width="50" height="35" as="geometry" />
        </mxCell>
        <mxCell id="opSwpIkZeqHumRvgv5nS-32" value="key&lt;br style=&quot;font-size: 18px;&quot;&gt;" style="text;html=1;align=center;verticalAlign=middle;resizable=0;points=[];autosize=1;strokeColor=none;fillColor=none;fontSize=18;" vertex="1" parent="1">
          <mxGeometry x="2520" y="399" width="46" height="34" as="geometry" />
        </mxCell>
        <mxCell id="opSwpIkZeqHumRvgv5nS-33" value="第一次右移动" style="text;html=1;align=center;verticalAlign=middle;resizable=0;points=[];autosize=1;strokeColor=none;fillColor=none;fontSize=19;" vertex="1" parent="1">
          <mxGeometry x="2257" y="454.5" width="132" height="35" as="geometry" />
        </mxCell>
        <mxCell id="opSwpIkZeqHumRvgv5nS-34" value="9" style="rounded=0;whiteSpace=wrap;html=1;fontSize=22;" vertex="1" parent="1">
          <mxGeometry x="2494" y="681" width="98" height="65" as="geometry" />
        </mxCell>
        <mxCell id="opSwpIkZeqHumRvgv5nS-35" value="2" style="rounded=0;whiteSpace=wrap;html=1;fontSize=22;" vertex="1" parent="1">
          <mxGeometry x="2592" y="681" width="98" height="65" as="geometry" />
        </mxCell>
        <mxCell id="opSwpIkZeqHumRvgv5nS-36" value="9" style="rounded=0;whiteSpace=wrap;html=1;fontSize=22;fillColor=#d5e8d4;strokeColor=#82b366;" vertex="1" parent="1">
          <mxGeometry x="2690" y="681" width="101" height="65" as="geometry" />
        </mxCell>
        <mxCell id="opSwpIkZeqHumRvgv5nS-37" value="6" style="rounded=0;whiteSpace=wrap;html=1;fontSize=22;" vertex="1" parent="1">
          <mxGeometry x="2788" y="681" width="98" height="65" as="geometry" />
        </mxCell>
        <mxCell id="opSwpIkZeqHumRvgv5nS-38" value="5" style="rounded=0;whiteSpace=wrap;html=1;fontSize=22;" vertex="1" parent="1">
          <mxGeometry x="2886" y="681" width="98" height="65" as="geometry" />
        </mxCell>
        <mxCell id="opSwpIkZeqHumRvgv5nS-39" value="4" style="rounded=0;whiteSpace=wrap;html=1;fontSize=22;" vertex="1" parent="1">
          <mxGeometry x="2984" y="681" width="98" height="65" as="geometry" />
        </mxCell>
        <mxCell id="opSwpIkZeqHumRvgv5nS-40" value="1" style="rounded=0;whiteSpace=wrap;html=1;fontSize=22;fillColor=#dae8fc;strokeColor=#6c8ebf;" vertex="1" parent="1">
          <mxGeometry x="3082" y="681" width="98" height="65" as="geometry" />
        </mxCell>
        <mxCell id="opSwpIkZeqHumRvgv5nS-41" value="8" style="rounded=0;whiteSpace=wrap;html=1;fontSize=22;" vertex="1" parent="1">
          <mxGeometry x="3180" y="681" width="98" height="65" as="geometry" />
        </mxCell>
        <mxCell id="opSwpIkZeqHumRvgv5nS-42" value="7" style="rounded=0;whiteSpace=wrap;html=1;fontSize=22;" vertex="1" parent="1">
          <mxGeometry x="3278" y="681" width="98" height="65" as="geometry" />
        </mxCell>
        <mxCell id="opSwpIkZeqHumRvgv5nS-43" value="3" style="rounded=0;whiteSpace=wrap;html=1;fontSize=22;fillColor=#f8cecc;strokeColor=#b85450;" vertex="1" parent="1">
          <mxGeometry x="2494" y="681" width="98" height="65" as="geometry" />
        </mxCell>
        <mxCell id="opSwpIkZeqHumRvgv5nS-44" value="" style="endArrow=classic;html=1;rounded=0;fontSize=19;" edge="1" parent="1">
          <mxGeometry width="50" height="50" relative="1" as="geometry">
            <mxPoint x="2691" y="822" as="sourcePoint" />
            <mxPoint x="2691" y="765.9999999999995" as="targetPoint" />
          </mxGeometry>
        </mxCell>
        <mxCell id="opSwpIkZeqHumRvgv5nS-45" value="begin" style="text;html=1;align=center;verticalAlign=middle;resizable=0;points=[];autosize=1;strokeColor=none;fillColor=none;fontSize=19;" vertex="1" parent="1">
          <mxGeometry x="2690" y="779" width="65" height="35" as="geometry" />
        </mxCell>
        <mxCell id="opSwpIkZeqHumRvgv5nS-46" value="" style="endArrow=classic;html=1;rounded=0;fontSize=19;" edge="1" parent="1">
          <mxGeometry width="50" height="50" relative="1" as="geometry">
            <mxPoint x="3082" y="828" as="sourcePoint" />
            <mxPoint x="3082" y="772" as="targetPoint" />
          </mxGeometry>
        </mxCell>
        <mxCell id="opSwpIkZeqHumRvgv5nS-47" value="end" style="text;html=1;align=center;verticalAlign=middle;resizable=0;points=[];autosize=1;strokeColor=none;fillColor=none;fontSize=19;" vertex="1" parent="1">
          <mxGeometry x="3083.4300000000003" y="784" width="50" height="35" as="geometry" />
        </mxCell>
        <mxCell id="opSwpIkZeqHumRvgv5nS-48" value="key&lt;br style=&quot;font-size: 18px;&quot;&gt;" style="text;html=1;align=center;verticalAlign=middle;resizable=0;points=[];autosize=1;strokeColor=none;fillColor=none;fontSize=18;" vertex="1" parent="1">
          <mxGeometry x="2520" y="643" width="46" height="34" as="geometry" />
        </mxCell>
        <mxCell id="opSwpIkZeqHumRvgv5nS-49" value="第二次左移动" style="text;html=1;align=center;verticalAlign=middle;resizable=0;points=[];autosize=1;strokeColor=none;fillColor=none;fontSize=19;" vertex="1" parent="1">
          <mxGeometry x="2253" y="695" width="132" height="35" as="geometry" />
        </mxCell>
        <mxCell id="opSwpIkZeqHumRvgv5nS-65" value="9" style="rounded=0;whiteSpace=wrap;html=1;fontSize=22;" vertex="1" parent="1">
          <mxGeometry x="2494" y="942" width="98" height="65" as="geometry" />
        </mxCell>
        <mxCell id="opSwpIkZeqHumRvgv5nS-66" value="2" style="rounded=0;whiteSpace=wrap;html=1;fontSize=22;" vertex="1" parent="1">
          <mxGeometry x="2592" y="942" width="98" height="65" as="geometry" />
        </mxCell>
        <mxCell id="opSwpIkZeqHumRvgv5nS-67" value="1" style="rounded=0;whiteSpace=wrap;html=1;fontSize=22;fillColor=#dae8fc;strokeColor=#6c8ebf;" vertex="1" parent="1">
          <mxGeometry x="2690" y="942" width="101" height="65" as="geometry" />
        </mxCell>
        <mxCell id="opSwpIkZeqHumRvgv5nS-68" value="6" style="rounded=0;whiteSpace=wrap;html=1;fontSize=22;" vertex="1" parent="1">
          <mxGeometry x="2788" y="942" width="98" height="65" as="geometry" />
        </mxCell>
        <mxCell id="opSwpIkZeqHumRvgv5nS-69" value="5" style="rounded=0;whiteSpace=wrap;html=1;fontSize=22;" vertex="1" parent="1">
          <mxGeometry x="2886" y="942" width="98" height="65" as="geometry" />
        </mxCell>
        <mxCell id="opSwpIkZeqHumRvgv5nS-70" value="4" style="rounded=0;whiteSpace=wrap;html=1;fontSize=22;" vertex="1" parent="1">
          <mxGeometry x="2984" y="942" width="98" height="65" as="geometry" />
        </mxCell>
        <mxCell id="opSwpIkZeqHumRvgv5nS-71" value="9" style="rounded=0;whiteSpace=wrap;html=1;fontSize=22;fillColor=#d5e8d4;strokeColor=#82b366;" vertex="1" parent="1">
          <mxGeometry x="3082" y="942" width="98" height="65" as="geometry" />
        </mxCell>
        <mxCell id="opSwpIkZeqHumRvgv5nS-72" value="8" style="rounded=0;whiteSpace=wrap;html=1;fontSize=22;" vertex="1" parent="1">
          <mxGeometry x="3180" y="942" width="98" height="65" as="geometry" />
        </mxCell>
        <mxCell id="opSwpIkZeqHumRvgv5nS-73" value="7" style="rounded=0;whiteSpace=wrap;html=1;fontSize=22;" vertex="1" parent="1">
          <mxGeometry x="3278" y="942" width="98" height="65" as="geometry" />
        </mxCell>
        <mxCell id="opSwpIkZeqHumRvgv5nS-74" value="3" style="rounded=0;whiteSpace=wrap;html=1;fontSize=22;fillColor=#f8cecc;strokeColor=#b85450;" vertex="1" parent="1">
          <mxGeometry x="2494" y="942" width="98" height="65" as="geometry" />
        </mxCell>
        <mxCell id="opSwpIkZeqHumRvgv5nS-75" value="" style="endArrow=classic;html=1;rounded=0;fontSize=19;" edge="1" parent="1">
          <mxGeometry width="50" height="50" relative="1" as="geometry">
            <mxPoint x="2691" y="1083" as="sourcePoint" />
            <mxPoint x="2691" y="1026.9999999999995" as="targetPoint" />
          </mxGeometry>
        </mxCell>
        <mxCell id="opSwpIkZeqHumRvgv5nS-76" value="begin" style="text;html=1;align=center;verticalAlign=middle;resizable=0;points=[];autosize=1;strokeColor=none;fillColor=none;fontSize=19;" vertex="1" parent="1">
          <mxGeometry x="2690" y="1040" width="65" height="35" as="geometry" />
        </mxCell>
        <mxCell id="opSwpIkZeqHumRvgv5nS-77" value="" style="endArrow=classic;html=1;rounded=0;fontSize=19;" edge="1" parent="1">
          <mxGeometry width="50" height="50" relative="1" as="geometry">
            <mxPoint x="3082" y="1085.5" as="sourcePoint" />
            <mxPoint x="3082" y="1029.5" as="targetPoint" />
          </mxGeometry>
        </mxCell>
        <mxCell id="opSwpIkZeqHumRvgv5nS-78" value="end" style="text;html=1;align=center;verticalAlign=middle;resizable=0;points=[];autosize=1;strokeColor=none;fillColor=none;fontSize=19;" vertex="1" parent="1">
          <mxGeometry x="3083.4300000000003" y="1041.5" width="50" height="35" as="geometry" />
        </mxCell>
        <mxCell id="opSwpIkZeqHumRvgv5nS-79" value="key&lt;br style=&quot;font-size: 18px;&quot;&gt;" style="text;html=1;align=center;verticalAlign=middle;resizable=0;points=[];autosize=1;strokeColor=none;fillColor=none;fontSize=18;" vertex="1" parent="1">
          <mxGeometry x="2520" y="904" width="46" height="34" as="geometry" />
        </mxCell>
        <mxCell id="opSwpIkZeqHumRvgv5nS-80" value="交换" style="text;html=1;align=center;verticalAlign=middle;resizable=0;points=[];autosize=1;strokeColor=none;fillColor=none;fontSize=19;" vertex="1" parent="1">
          <mxGeometry x="2285" y="971" width="56" height="35" as="geometry" />
        </mxCell>
        <mxCell id="opSwpIkZeqHumRvgv5nS-81" value="9" style="rounded=0;whiteSpace=wrap;html=1;fontSize=22;" vertex="1" parent="1">
          <mxGeometry x="2494" y="1225" width="98" height="65" as="geometry" />
        </mxCell>
        <mxCell id="opSwpIkZeqHumRvgv5nS-82" value="2" style="rounded=0;whiteSpace=wrap;html=1;fontSize=22;" vertex="1" parent="1">
          <mxGeometry x="2592" y="1225" width="98" height="65" as="geometry" />
        </mxCell>
        <mxCell id="opSwpIkZeqHumRvgv5nS-83" value="1" style="rounded=0;whiteSpace=wrap;html=1;fontSize=22;fillColor=#dae8fc;strokeColor=#6c8ebf;" vertex="1" parent="1">
          <mxGeometry x="2690" y="1225" width="101" height="65" as="geometry" />
        </mxCell>
        <mxCell id="opSwpIkZeqHumRvgv5nS-84" value="6" style="rounded=0;whiteSpace=wrap;html=1;fontSize=22;" vertex="1" parent="1">
          <mxGeometry x="2788" y="1225" width="98" height="65" as="geometry" />
        </mxCell>
        <mxCell id="opSwpIkZeqHumRvgv5nS-85" value="5" style="rounded=0;whiteSpace=wrap;html=1;fontSize=22;" vertex="1" parent="1">
          <mxGeometry x="2886" y="1225" width="98" height="65" as="geometry" />
        </mxCell>
        <mxCell id="opSwpIkZeqHumRvgv5nS-86" value="4" style="rounded=0;whiteSpace=wrap;html=1;fontSize=22;" vertex="1" parent="1">
          <mxGeometry x="2984" y="1225" width="98" height="65" as="geometry" />
        </mxCell>
        <mxCell id="opSwpIkZeqHumRvgv5nS-87" value="9" style="rounded=0;whiteSpace=wrap;html=1;fontSize=22;" vertex="1" parent="1">
          <mxGeometry x="3082" y="1225" width="98" height="65" as="geometry" />
        </mxCell>
        <mxCell id="opSwpIkZeqHumRvgv5nS-88" value="8" style="rounded=0;whiteSpace=wrap;html=1;fontSize=22;" vertex="1" parent="1">
          <mxGeometry x="3180" y="1225" width="98" height="65" as="geometry" />
        </mxCell>
        <mxCell id="opSwpIkZeqHumRvgv5nS-89" value="7" style="rounded=0;whiteSpace=wrap;html=1;fontSize=22;" vertex="1" parent="1">
          <mxGeometry x="3278" y="1225" width="98" height="65" as="geometry" />
        </mxCell>
        <mxCell id="opSwpIkZeqHumRvgv5nS-90" value="3" style="rounded=0;whiteSpace=wrap;html=1;fontSize=22;fillColor=#f8cecc;strokeColor=#b85450;" vertex="1" parent="1">
          <mxGeometry x="2494" y="1225" width="98" height="65" as="geometry" />
        </mxCell>
        <mxCell id="opSwpIkZeqHumRvgv5nS-91" value="" style="endArrow=classic;html=1;rounded=0;fontSize=19;" edge="1" parent="1">
          <mxGeometry width="50" height="50" relative="1" as="geometry">
            <mxPoint x="2691" y="1366" as="sourcePoint" />
            <mxPoint x="2691" y="1309.9999999999995" as="targetPoint" />
          </mxGeometry>
        </mxCell>
        <mxCell id="opSwpIkZeqHumRvgv5nS-92" value="begin" style="text;html=1;align=center;verticalAlign=middle;resizable=0;points=[];autosize=1;strokeColor=none;fillColor=none;fontSize=19;" vertex="1" parent="1">
          <mxGeometry x="2690" y="1323" width="65" height="35" as="geometry" />
        </mxCell>
        <mxCell id="opSwpIkZeqHumRvgv5nS-93" value="" style="endArrow=classic;html=1;rounded=0;fontSize=19;" edge="1" parent="1">
          <mxGeometry width="50" height="50" relative="1" as="geometry">
            <mxPoint x="2690" y="1454" as="sourcePoint" />
            <mxPoint x="2690" y="1398" as="targetPoint" />
          </mxGeometry>
        </mxCell>
        <mxCell id="opSwpIkZeqHumRvgv5nS-94" value="end" style="text;html=1;align=center;verticalAlign=middle;resizable=0;points=[];autosize=1;strokeColor=none;fillColor=none;fontSize=19;" vertex="1" parent="1">
          <mxGeometry x="2691.4300000000003" y="1410" width="50" height="35" as="geometry" />
        </mxCell>
        <mxCell id="opSwpIkZeqHumRvgv5nS-95" value="key&lt;br style=&quot;font-size: 18px;&quot;&gt;" style="text;html=1;align=center;verticalAlign=middle;resizable=0;points=[];autosize=1;strokeColor=none;fillColor=none;fontSize=18;" vertex="1" parent="1">
          <mxGeometry x="2520" y="1187" width="46" height="34" as="geometry" />
        </mxCell>
        <mxCell id="opSwpIkZeqHumRvgv5nS-96" value="第二次右移动" style="text;html=1;align=center;verticalAlign=middle;resizable=0;points=[];autosize=1;strokeColor=none;fillColor=none;fontSize=18;" vertex="1" parent="1">
          <mxGeometry x="2234" y="1244" width="126" height="34" as="geometry" />
        </mxCell>
        <mxCell id="opSwpIkZeqHumRvgv5nS-110" value="9" style="rounded=0;whiteSpace=wrap;html=1;fontSize=22;" vertex="1" parent="1">
          <mxGeometry x="2494" y="1591" width="98" height="65" as="geometry" />
        </mxCell>
        <mxCell id="opSwpIkZeqHumRvgv5nS-111" value="2" style="rounded=0;whiteSpace=wrap;html=1;fontSize=22;" vertex="1" parent="1">
          <mxGeometry x="2592" y="1591" width="98" height="65" as="geometry" />
        </mxCell>
        <mxCell id="opSwpIkZeqHumRvgv5nS-112" value="3" style="rounded=0;whiteSpace=wrap;html=1;fontSize=22;fillColor=#f8cecc;strokeColor=#b85450;" vertex="1" parent="1">
          <mxGeometry x="2690" y="1591" width="101" height="65" as="geometry" />
        </mxCell>
        <mxCell id="opSwpIkZeqHumRvgv5nS-113" value="6" style="rounded=0;whiteSpace=wrap;html=1;fontSize=22;" vertex="1" parent="1">
          <mxGeometry x="2788" y="1591" width="98" height="65" as="geometry" />
        </mxCell>
        <mxCell id="opSwpIkZeqHumRvgv5nS-114" value="5" style="rounded=0;whiteSpace=wrap;html=1;fontSize=22;" vertex="1" parent="1">
          <mxGeometry x="2886" y="1591" width="98" height="65" as="geometry" />
        </mxCell>
        <mxCell id="opSwpIkZeqHumRvgv5nS-115" value="4" style="rounded=0;whiteSpace=wrap;html=1;fontSize=22;" vertex="1" parent="1">
          <mxGeometry x="2984" y="1591" width="98" height="65" as="geometry" />
        </mxCell>
        <mxCell id="opSwpIkZeqHumRvgv5nS-116" value="9" style="rounded=0;whiteSpace=wrap;html=1;fontSize=22;" vertex="1" parent="1">
          <mxGeometry x="3082" y="1591" width="98" height="65" as="geometry" />
        </mxCell>
        <mxCell id="opSwpIkZeqHumRvgv5nS-117" value="8" style="rounded=0;whiteSpace=wrap;html=1;fontSize=22;" vertex="1" parent="1">
          <mxGeometry x="3180" y="1591" width="98" height="65" as="geometry" />
        </mxCell>
        <mxCell id="opSwpIkZeqHumRvgv5nS-118" value="7" style="rounded=0;whiteSpace=wrap;html=1;fontSize=22;" vertex="1" parent="1">
          <mxGeometry x="3278" y="1591" width="98" height="65" as="geometry" />
        </mxCell>
        <mxCell id="opSwpIkZeqHumRvgv5nS-119" value="1" style="rounded=0;whiteSpace=wrap;html=1;fontSize=22;fillColor=#dae8fc;strokeColor=#6c8ebf;" vertex="1" parent="1">
          <mxGeometry x="2494" y="1591" width="98" height="65" as="geometry" />
        </mxCell>
        <mxCell id="opSwpIkZeqHumRvgv5nS-120" value="" style="endArrow=classic;html=1;rounded=0;fontSize=19;" edge="1" parent="1">
          <mxGeometry width="50" height="50" relative="1" as="geometry">
            <mxPoint x="2691" y="1732" as="sourcePoint" />
            <mxPoint x="2691" y="1675.9999999999995" as="targetPoint" />
          </mxGeometry>
        </mxCell>
        <mxCell id="opSwpIkZeqHumRvgv5nS-121" value="begin" style="text;html=1;align=center;verticalAlign=middle;resizable=0;points=[];autosize=1;strokeColor=none;fillColor=none;fontSize=19;" vertex="1" parent="1">
          <mxGeometry x="2690" y="1689" width="65" height="35" as="geometry" />
        </mxCell>
        <mxCell id="opSwpIkZeqHumRvgv5nS-122" value="" style="endArrow=classic;html=1;rounded=0;fontSize=19;" edge="1" parent="1">
          <mxGeometry width="50" height="50" relative="1" as="geometry">
            <mxPoint x="2690" y="1820" as="sourcePoint" />
            <mxPoint x="2690" y="1764" as="targetPoint" />
          </mxGeometry>
        </mxCell>
        <mxCell id="opSwpIkZeqHumRvgv5nS-123" value="end" style="text;html=1;align=center;verticalAlign=middle;resizable=0;points=[];autosize=1;strokeColor=none;fillColor=none;fontSize=19;" vertex="1" parent="1">
          <mxGeometry x="2691.4300000000003" y="1776" width="50" height="35" as="geometry" />
        </mxCell>
        <mxCell id="opSwpIkZeqHumRvgv5nS-124" value="key&lt;br style=&quot;font-size: 18px;&quot;&gt;" style="text;html=1;align=center;verticalAlign=middle;resizable=0;points=[];autosize=1;strokeColor=none;fillColor=none;fontSize=18;" vertex="1" parent="1">
          <mxGeometry x="2520" y="1553" width="46" height="34" as="geometry" />
        </mxCell>
        <mxCell id="opSwpIkZeqHumRvgv5nS-125" value="begin与end相遇，一趟走完，交换key和相遇位置" style="text;html=1;align=center;verticalAlign=middle;resizable=0;points=[];autosize=1;strokeColor=none;fillColor=none;fontSize=19;" vertex="1" parent="1">
          <mxGeometry x="2064" y="1608.5" width="430" height="35" as="geometry" />
        </mxCell>
      </root>
    </mxGraphModel>
  </diagram>
</mxfile>
